<?xml version="1.0" encoding="utf-8"?>
<!-- Generator: Adobe Illustrator 27.1.1, SVG Export Plug-In . SVG Version: 6.00 Build 0)  -->
<svg version="1.1" id="Layer_1" xmlns="http://www.w3.org/2000/svg" xmlns:xlink="http://www.w3.org/1999/xlink" x="0px" y="0px"
	 viewBox="0 0 104 46" style="enable-background:new 0 0 104 46;" xml:space="preserve">
<style type="text/css">
	.st0{clip-path:url(#SVGID_00000125569688514225388180000016260909903455967422_);}
	.st1{fill:#2C9F48;}
	.st2{display:none;}
	.st3{display:inline;}
	.st4{clip-path:url(#SVGID_00000160876504858845055960000005871835888407870339_);}
	.st5{clip-path:url(#SVGID_00000149354533758500526060000006558969596962672781_);}
	.st6{fill:#CB7929;}
	.st7{display:inline;fill:#CB7929;}
	.st8{clip-path:url(#SVGID_00000121237692678112473540000011040957121246890392_);}
	.st9{clip-path:url(#SVGID_00000140004175950460326190000003959493300260207258_);}
	.st10{fill:#F0BA1B;}
</style>
<g id="svg">
	<g>
		<g>
			<g>
				<defs>
					<rect id="SVGID_1_" y="3.1" width="43.9" height="43.9"/>
				</defs>
				<clipPath id="SVGID_00000034808323193762482020000010729203191002301879_">
					<use xlink:href="#SVGID_1_"  style="overflow:visible;"/>
				</clipPath>
				<g style="clip-path:url(#SVGID_00000034808323193762482020000010729203191002301879_);">
					<path class="st1" d="M6.7,23.4c2.3,3.2,7.6,3.7,10,3.5c-1.1-8.8-6-11.9-7.9-13.7c5.3,1.7,7.9,7.3,8.6,9.4
						c0.2-4.3,1.1-5.1,1.6-6.2C15.4,8,2.4,8.5,0,8.5C2.3,11.1,3.8,19.3,6.7,23.4z"/>
					<path class="st1" d="M19.3,40.1h-2.6c0.2-1.5,1.2-5.5,2.8-10.3c-1.3-4.3-0.9-12.6,5.2-17.1s15.6-4.2,19.2-4.2
						c-1.5,1.3-3.3,7-4,9.7c-0.8,2.5-3.2,8-6.1,10.4c-3.7,3-8.5,2.7-10.9,2.7c0.5-9.4,7-14.4,9.9-17C22.5,19.1,19.1,34.8,19.3,40.1z
						"/>
				</g>
			</g>
		</g>
		<path class="st1" d="M49.9,37.8V13.9h9.2c1.7,0,3.2,0.3,4.3,0.8c1.2,0.5,2,1.3,2.6,2.2c0.6,0.9,0.9,2,0.9,3.2c0,1-0.2,1.8-0.6,2.5
			s-0.9,1.2-1.5,1.7c-0.6,0.4-1.3,0.7-2.1,0.9v0.2c0.8,0,1.7,0.3,2.4,0.8c0.8,0.5,1.4,1.1,1.9,2s0.7,1.9,0.7,3.1
			c0,1.2-0.3,2.4-0.9,3.3c-0.6,1-1.5,1.8-2.7,2.3c-1.2,0.6-2.7,0.9-4.6,0.9C59.5,37.8,49.9,37.8,49.9,37.8z M54.2,34.2h4.7
			c1.6,0,2.7-0.3,3.4-0.9c0.7-0.6,1.1-1.4,1.1-2.3c0-0.7-0.2-1.3-0.5-1.9c-0.4-0.6-0.8-1-1.5-1.4c-0.6-0.3-1.4-0.5-2.3-0.5h-4.8v7
			H54.2z M54.2,24h4.3c0.7,0,1.4-0.1,2-0.4s1.1-0.7,1.4-1.2c0.4-0.5,0.5-1.1,0.5-1.8c0-0.9-0.3-1.7-1-2.3c-0.6-0.6-1.6-0.9-2.9-0.9
			h-4.4V24H54.2z M75.9,13.9v23.9h-4.3V13.9H75.9z M102.1,25.8c0,2.6-0.5,4.8-1.4,6.6c-1,1.8-2.3,3.2-3.9,4.2
			c-1.7,1-3.5,1.5-5.6,1.5s-4-0.5-5.6-1.5c-1.7-1-3-2.4-3.9-4.2c-1-1.8-1.4-4-1.4-6.6s0.5-4.8,1.4-6.6c1-1.8,2.3-3.2,3.9-4.2
			c1.7-1,3.5-1.5,5.6-1.5s4,0.5,5.6,1.5c1.7,1,3,2.4,3.9,4.2C101.6,21,102.1,23.3,102.1,25.8z M97.7,25.8c0-1.8-0.3-3.3-0.9-4.6
			c-0.6-1.3-1.3-2.2-2.3-2.8c-1-0.6-2.1-1-3.4-1s-2.5,0.3-3.4,1c-1,0.6-1.8,1.6-2.3,2.8c-0.6,1.2-0.8,2.8-0.8,4.6s0.3,3.4,0.8,4.6
			c0.6,1.2,1.4,2.2,2.3,2.8c1,0.6,2.1,1,3.4,1s2.5-0.3,3.4-1c1-0.6,1.8-1.6,2.3-2.8C97.4,29.2,97.7,27.6,97.7,25.8z"/>
	</g>
</g>
<g id="Layer_2_00000057106385644336511460000016247771187769719208_" class="st2">
	<g class="st3">
		<g>
			<defs>
				<rect id="SVGID_00000080902984938112380920000009758573284281522845_" x="13.7" y="-0.1" width="44.8" height="44.8"/>
			</defs>
			<clipPath id="SVGID_00000078017293608658807470000009627893284403437954_">
				<use xlink:href="#SVGID_00000080902984938112380920000009758573284281522845_"  style="overflow:visible;"/>
			</clipPath>
			<g style="clip-path:url(#SVGID_00000078017293608658807470000009627893284403437954_);">
				<g>
					<g>
						<defs>
							<rect id="SVGID_00000156573716140668095660000006100822642891236010_" x="13.7" y="-0.1" width="44.8" height="44.8"/>
						</defs>
						<clipPath id="SVGID_00000142865764474501303590000006435027638824129428_">
							<use xlink:href="#SVGID_00000156573716140668095660000006100822642891236010_"  style="overflow:visible;"/>
						</clipPath>
						<g style="clip-path:url(#SVGID_00000142865764474501303590000006435027638824129428_);">
							<path class="st6" d="M37.8,1.4c-2.8,0.8-4.6,1.3-5.3,1.7s-1.1,0.6-1.1,0.7c0,0.1,1.3,1.5,4,4.2s4.3,4.2,4.8,4.5
								c0.6,0.3,1.2,0.5,2,0.5s3-0.4,6.6-1.4c1.8-0.5,3.6-1,5.5-1.5c-0.2-0.3-0.4-0.7-0.5-1c-0.4-0.7-1.6-2.1-3.7-4.2
								C48,2.7,46.6,1.5,46,1.1s-1.4-0.6-2.4-0.6C42.5,0.3,40.6,0.7,37.8,1.4z M30.1,5.4c-0.4,0.7-0.9,2.3-1.5,4.8
								c-0.7,2.5-1,3.9-1,4.1c0,0.2,1.3,1.1,3.9,2.6s4.2,2.5,4.6,3c0.4,0.5,0.8,1,1,1.6c0.1,0.3,0.2,0.6,0.3,0.9
								c0.2-0.2,0.4-0.4,0.6-0.6c0.4-0.4,0.9-1.9,1.6-4.5c0.7-2.6,0.7-4,0.1-4.3c-0.6-0.3-2.2-1.8-5-4.5c-1.4-1.4-2.8-2.8-4.1-4.1
								C30.5,4.7,30.3,5.1,30.1,5.4z M48.8,12.3c-3.6,1-5.7,1.5-6.4,1.5s-1.4,1.1-2,3.4c-0.3,1.1-0.6,2.3-0.9,3.4
								c0.3-0.1,0.6-0.2,0.8-0.3c0.6-0.2,1.2-0.4,1.9-0.4s2.5,0.3,5.3,1.1s4.3,0.9,4.5,0.4s0.7-2,1.3-4.5c0.7-2.5,1-4.1,1-4.7
								c0-0.6,0-1,0-1.1s-0.1-0.2-0.2-0.2S52.4,11.3,48.8,12.3z M23.6,15.1c-0.5,0.2-1.7,0.8-3.6,1.9c-1.9,1.1-3.2,1.9-3.7,2.2
								c-0.5,0.3-0.9,0.7-1.2,1s-0.4,0.6-0.2,0.7c0.1,0.2,1.6,1.1,4.4,2.7s4.4,2.5,4.9,2.6s1,0.2,1.6,0.1s2.5-1,5.6-2.8
								s4.6-2.8,4.6-2.9s-0.2-0.3-0.4-0.6c-0.3-0.3-1.5-1.1-3.7-2.4s-3.7-2.1-4.4-2.4c-0.7-0.3-1.4-0.4-2-0.4
								C24.6,14.8,24.1,14.9,23.6,15.1z M41.3,20.6c-0.4,0.1-0.8,0.3-1.3,0.6c-0.5,0.3-1.7,1.4-3.7,3.4s-3.1,3.2-3.4,3.6
								c-0.3,0.4-0.4,0.7-0.4,0.8c0,0.1,1.6,0.6,4.9,1.5c3.3,0.9,5.2,1.3,5.7,1.3s1.1-0.1,1.7-0.4c0.6-0.3,2.1-1.7,4.6-4.2
								c1.2-1.3,2.5-2.5,3.7-3.8c-0.3-0.2-0.7-0.4-1-0.5c-0.7-0.4-2.2-0.9-4.7-1.5s-4-1-4.7-1S41.6,20.5,41.3,20.6z M13.9,22.1
								c-0.1,0.4-0.2,2-0.2,4.9s0.1,4.6,0.3,5.2c0.2,0.6,0.6,1.1,1.1,1.6s1.9,1.4,4.1,2.7c2.3,1.3,3.6,2.1,4,2.2
								c0.4,0.2,0.8,0.3,1.1,0.3c0.2,0,0.3,0,0.5,0c0-2,0-4,0-6c0-4-0.3-6.1-0.9-6.2c-0.6-0.2-2.4-1.1-5.4-2.8
								c-1.5-0.9-3-1.7-4.4-2.6C14,21.7,14,21.9,13.9,22.1z M32.2,23.9c-2.7,1.6-4.2,2.5-4.6,2.7s-0.8,0.3-1.3,0.4s-0.7,2.1-0.7,6.1
								c0,2,0,4,0,6c0.3-0.1,0.6-0.1,0.9-0.2c0.6-0.1,1.7-0.7,3.5-1.7c1.7-1,2.4-2.1,2.1-3.3c-0.3-1.2-0.5-2.1-0.5-2.6s0-1,0-1.4
								c0.1-0.4,0.3-0.9,0.6-1.6c0.4-0.7,1.2-1.7,2.6-3c1.3-1.3,2-2.2,1.9-2.7s-0.2-0.8-0.3-0.8C36.2,21.6,34.8,22.3,32.2,23.9z
								 M49.8,28c-2.5,2.5-3.9,3.9-4.4,4.1c-0.5,0.2-0.2,2.3,0.8,6.1c0.5,1.9,1,3.9,1.5,5.8c0.3-0.1,0.5-0.3,0.8-0.4
								c0.5-0.3,1.8-1.4,3.9-3.5c2.1-2.1,3.3-3.5,3.6-4.1s0.5-1.3,0.5-1.9c0-0.6-0.2-2.1-0.8-4.4s-1-3.7-1.2-4.2
								c-0.2-0.5-0.4-0.8-0.6-1C53.7,24.3,52.3,25.5,49.8,28z M32.2,31c0,0.6,0.3,2.1,0.9,4.3c0.6,2.3,1,3.6,1.1,4
								c0.2,0.4,0.4,0.8,0.8,1.3c0.4,0.5,0.9,0.8,1.4,1.1c0.6,0.3,2.1,0.8,4.7,1.5c2.6,0.7,4.2,1,4.9,1c0.3,0,0.7,0,1,0
								c-0.5-1.9-1-3.9-1.5-5.8c-1-3.9-1.9-5.8-2.7-5.8s-2.7-0.5-5.9-1.3c-1.6-0.4-3.2-0.9-4.8-1.3C32.2,30.3,32.2,30.6,32.2,31z"/>
						</g>
					</g>
				</g>
			</g>
		</g>
	</g>
	<path class="st7" d="M77.9,17.7c-0.1-1-0.6-1.9-1.4-2.4c-0.8-0.6-1.9-0.9-3.2-0.9c-0.9,0-1.7,0.1-2.4,0.4c-0.7,0.3-1.2,0.7-1.5,1.1
		c-0.3,0.5-0.5,1-0.5,1.6c0,0.5,0.1,1,0.3,1.3c0.2,0.4,0.6,0.7,1,1s0.9,0.5,1.3,0.6c0.5,0.2,1,0.3,1.5,0.4l2.3,0.6
		c0.9,0.2,1.8,0.5,2.7,0.9c0.9,0.4,1.6,0.8,2.3,1.4c0.7,0.6,1.2,1.2,1.6,2s0.6,1.7,0.6,2.8c0,1.4-0.4,2.7-1.1,3.8s-1.8,1.9-3.2,2.5
		c-1.4,0.6-3,0.9-5,0.9c-1.9,0-3.6-0.3-4.9-0.9c-1.4-0.6-2.5-1.4-3.3-2.6c-0.8-1.1-1.2-2.5-1.3-4.1h4.4c0.1,0.9,0.3,1.6,0.8,2.1
		c0.5,0.6,1.1,1,1.8,1.3c0.7,0.3,1.6,0.4,2.5,0.4c1,0,1.8-0.1,2.5-0.4s1.3-0.7,1.7-1.2c0.4-0.5,0.6-1.1,0.6-1.8
		c0-0.6-0.2-1.2-0.6-1.6s-0.9-0.8-1.5-1c-0.7-0.3-1.4-0.5-2.3-0.8l-2.8-0.7c-2-0.5-3.6-1.3-4.8-2.3c-1.2-1.1-1.7-2.5-1.7-4.2
		c0-1.4,0.4-2.7,1.2-3.8c0.8-1.1,1.9-1.9,3.2-2.5c1.4-0.6,2.9-0.9,4.6-0.9s3.3,0.3,4.6,0.9c1.3,0.6,2.3,1.4,3.1,2.5
		c0.7,1.1,1.1,2.3,1.2,3.6H77.9z M86.5,35.4V11h15.6v3.7H90.9v6.6H101V25H90.9v10.4H86.5z"/>
</g>
<g id="Layer_2_00000087370042650634071470000016202698219348547742_" class="st2">
	<g class="st3">
		<g>
			<g>
				<defs>
					<rect id="SVGID_00000067224014853500090820000000554786064980367490_" x="10.5" y="0.7" width="44.6" height="44.6"/>
				</defs>
				<clipPath id="SVGID_00000060730672270732232400000015068567871785852854_">
					<use xlink:href="#SVGID_00000067224014853500090820000000554786064980367490_"  style="overflow:visible;"/>
				</clipPath>
				<g style="clip-path:url(#SVGID_00000060730672270732232400000015068567871785852854_);">
					<g>
						<g>
							<defs>
								<rect id="SVGID_00000047047512040987728440000009559328710483342228_" x="10.5" y="0.7" width="44.6" height="44.6"/>
							</defs>
							<clipPath id="SVGID_00000029747898653907184600000017842422676960178105_">
								<use xlink:href="#SVGID_00000047047512040987728440000009559328710483342228_"  style="overflow:visible;"/>
							</clipPath>
							<g style="clip-path:url(#SVGID_00000029747898653907184600000017842422676960178105_);">
								<path class="st10" d="M23,12c-0.4-0.8-0.7-1.8-0.7-2.8s0.3-1.5,1.1-1.6c0.7-0.1,1.6-0.1,2.5,0c1,0.1,1.7,0.3,2.4,0.4
									C29,8.3,29.5,8.5,30,8.8c0.4,0.3,0.9,0.7,1.4,1.3s0.8,1.2,1,1.9c0.2,0.6,0.3,1.2,0.2,1.8c0,0.6-0.2,1-0.5,1.2l-0.5,0.4
									l-0.8-0.5c-0.5-0.4-1.2-0.7-1.9-0.9c-0.7-0.2-1.7-0.4-3.1-0.6C24.4,13.3,23.5,12.8,23,12z"/>
								<path class="st10" d="M28.8,6c0.2-0.9,0.7-1.8,1.5-2.7s1.4-1.6,2-2l0.9-0.7L34,1.2c0.5,0.3,1.1,0.9,1.8,1.6
									c0.7,0.8,1.2,1.5,1.5,2.4s0.5,1.3,0.4,1.5c0,0.2-0.6,0.6-1.6,1.3s-1.8,1.4-2.4,2.2l-0.8,1.2l-0.2-0.5
									c-0.1-0.3-0.4-0.8-0.9-1.3c-0.4-0.5-1.1-1-2-1.5C28.9,7.6,28.6,6.9,28.8,6z"/>
								<path class="st10" d="M22.8,18.1c-0.4-0.8-0.5-1.7-0.6-2.6c0-0.9,0.2-1.4,0.7-1.5s1.2-0.2,2.1-0.1c0.9,0.1,1.7,0.2,2.5,0.4
									s1.4,0.4,1.8,0.6c0.4,0.2,0.9,0.7,1.5,1.3c0.6,0.6,1,1.3,1.2,1.9c0.2,0.7,0.3,1.3,0.3,2s-0.2,1.1-0.5,1.3
									c-0.3,0.2-0.9,0.1-1.8-0.4s-2-0.8-3.2-1.1c-1.2-0.2-2-0.3-2.4-0.3s-0.7,0-0.9-0.1C23.4,19.4,23.2,18.9,22.8,18.1z"/>
								<path class="st10" d="M33.7,11.7c0.3-0.8,0.6-1.3,0.9-1.8c0.3-0.4,0.8-0.9,1.5-1.4s1.4-0.9,2.2-1.2c0.8-0.3,1.9-0.5,3.2-0.7
									c1.3-0.1,2-0.2,2.1-0.1s0.1,0.7,0,1.8s-0.3,2-0.7,2.7c-0.3,0.7-0.6,1-0.8,1.2c-0.2,0.1-0.8,0.3-1.8,0.4
									c-1,0.1-1.8,0.3-2.3,0.5s-1.3,0.6-2.3,1.2l-1.5,1l-0.5-0.4c-0.3-0.3-0.5-0.7-0.5-1.2C33.3,13.1,33.5,12.4,33.7,11.7z"/>
								<path class="st10" d="M22.8,24.6c-0.4-0.9-0.6-1.8-0.6-2.7c0-0.9,0-1.5,0.1-1.5c0.1-0.1,0.4-0.1,0.7-0.2
									c0.4,0,1.2,0,2.5,0.1s2.2,0.3,2.7,0.4c0.5,0.2,1,0.4,1.6,0.8c0.5,0.4,1,0.8,1.5,1.5c0.4,0.6,0.7,1.4,0.9,2.2
									c0.2,0.8,0.2,1.4,0.2,1.7c0,0.3-0.2,0.6-0.6,0.8l-0.6,0.4l-0.8-0.6c-0.5-0.4-1.1-0.7-1.6-0.9c-0.6-0.2-1.6-0.4-3.1-0.5
									C24.1,25.9,23.2,25.4,22.8,24.6z"/>
								<path class="st10" d="M33.6,17.9c0.2-0.5,0.5-1.1,1-1.7c0.5-0.6,1.1-1.1,1.7-1.6c0.7-0.4,1.3-0.8,1.8-0.9
									c0.5-0.2,0.8-0.2,0.9-0.2c0.1,0,0.4,0,1.1-0.2c0.7-0.2,1.4-0.3,2.1-0.3c0.7,0,1.2,0,1.3,0c0.1,0.1,0.1,0.6,0,1.5
									s-0.3,1.7-0.5,2.4c-0.3,0.7-0.5,1.2-0.8,1.5s-0.6,0.4-1,0.4s-1.1,0.1-2.2,0.4c-1,0.3-1.8,0.5-2.4,0.8
									c-0.6,0.3-1.1,0.6-1.6,1s-0.8,0.6-1,0.6c-0.1,0-0.3-0.1-0.6-0.3c-0.3-0.2-0.4-0.7-0.3-1.4C33.3,19.1,33.4,18.4,33.6,17.9z"
									/>
								<path class="st10" d="M22.7,30.8c-0.4-0.9-0.6-1.8-0.7-2.7c-0.1-0.9,0-1.4,0.1-1.5s0.4-0.1,0.9-0.2c0.5,0,1.3,0,2.4,0.1
									s2,0.2,2.6,0.4c0.6,0.2,1.2,0.5,1.7,0.8s1,0.9,1.5,1.8c0.5,0.8,0.8,1.5,0.9,2.1c0.1,0.6,0.1,1.1,0,1.5s-0.3,0.7-0.5,0.9
									l-0.4,0.3l-0.8-0.5c-0.5-0.3-1.1-0.6-1.9-0.9c-0.7-0.3-1.5-0.5-2.3-0.6s-1.5-0.2-2-0.1c-0.5,0-0.8,0-0.9-0.1
									C23.3,32.2,23,31.7,22.7,30.8z"/>
								<path class="st10" d="M33.6,24c0.3-0.7,0.6-1.2,1-1.7s1.1-1,2.2-1.6c1-0.6,2.4-1,4-1.2s2.5-0.3,2.6-0.3
									c0.1,0.1,0.1,0.5,0.1,1.2c0,0.8-0.2,1.6-0.5,2.6s-0.6,1.5-0.9,1.8c-0.2,0.2-0.7,0.4-1.4,0.4c-0.7,0.1-1.5,0.2-2.4,0.5
									s-1.9,0.7-2.8,1.3c-0.5,0.3-1,0.6-1.5,0.9l-0.4-0.4c-0.3-0.2-0.4-0.7-0.4-1.5C33.2,25.3,33.4,24.6,33.6,24z"/>
								<path class="st10" d="M22.2,36.3c-0.1-0.2-0.2-0.8-0.3-1.7c-0.1-0.9,0-1.4,0.1-1.5s0.5-0.2,1.1-0.2s1.3,0,2.3,0.1
									c0.9,0.1,1.7,0.2,2.2,0.3c0.6,0.1,1.2,0.5,1.9,0.9c0.7,0.5,1.3,1,1.7,1.7c0.4,0.7,0.7,1.3,0.8,2c0.1,0.7,0.2,1.2,0.1,1.6
									c0,0.4-0.2,0.7-0.5,0.9s-0.8,0.4-1.4,0.4c-0.6,0.1-1.4,0-2.4-0.1s-1.9-0.4-2.7-0.8c-0.8-0.4-1.5-1-2.1-1.8s-0.8-1.2-0.8-1.3
									C22.3,36.7,22.3,36.5,22.2,36.3z"/>
								<path class="st10" d="M33.4,30.7c0.3-0.8,0.6-1.4,0.9-1.9c0.3-0.5,0.8-0.9,1.5-1.4c0.6-0.5,1.3-0.8,1.8-1.1
									c0.6-0.2,1.7-0.5,3.2-0.7s2.3-0.2,2.5-0.1c0.1,0.1,0.2,0.7,0.1,1.5c-0.1,0.9-0.3,1.7-0.7,2.5c-0.3,0.8-0.6,1.3-0.9,1.5
									c-0.2,0.2-0.7,0.3-1.6,0.4c-0.8,0.1-1.6,0.2-2.2,0.4c-0.7,0.2-1.2,0.4-1.6,0.5c-0.4,0.2-0.9,0.5-1.5,1s-1.1,0.6-1.4,0.5
									c-0.4-0.2-0.6-0.6-0.6-1.2C33,32.2,33.1,31.5,33.4,30.7z"/>
								<path class="st10" d="M33.5,36.4c0.3-0.6,0.6-1.2,1-1.6c0.4-0.4,1-0.9,2-1.4c0.9-0.5,1.9-0.9,2.9-1.1c1-0.2,1.9-0.4,2.6-0.4
									c0.7,0,1.2,0,1.3,0.2c0.1,0.2,0.1,0.6,0.1,1.3S43.1,35,42.6,36s-1,1.8-1.8,2.4c-0.7,0.6-1.5,1-2.2,1.3
									c-0.8,0.3-1.7,0.5-2.9,0.7c-1.1,0.1-1.9,0.1-2.2,0c-0.3-0.2-0.5-0.5-0.6-1.1s0-0.9,0.1-1s0.2-0.3,0.1-0.5
									C33,37.5,33.2,37,33.5,36.4z"/>
								<path class="st10" d="M31.6,45.2c-0.1-0.1-0.2-0.8-0.1-2.1c0-1.3,0.2-2,0.5-2.2s0.7-0.2,0.9-0.1c0.3,0.1,0.4,0.9,0.4,2.2
									s-0.1,2-0.3,2.2s-0.4,0.2-0.8,0.2C31.9,45.3,31.7,45.3,31.6,45.2z"/>
							</g>
						</g>
					</g>
				</g>
			</g>
		</g>
		<path class="st10" d="M77.5,19.4c-0.2-0.6-0.5-1.2-0.8-1.7s-0.8-1-1.2-1.3c-0.5-0.4-1-0.6-1.6-0.8s-1.3-0.3-2-0.3
			c-1.3,0-2.5,0.3-3.5,1c-1,0.7-1.8,1.6-2.4,2.9c-0.7,1.3-1,2.8-1,4.6s0.3,3.4,0.9,4.7c0.6,1.3,1.4,2.2,2.4,2.9s2.2,1,3.6,1
			c1.2,0,2.3-0.2,3.2-0.7c0.9-0.5,1.6-1.1,2.1-2s0.7-1.9,0.7-3.1l1,0.2h-6.6v-3.4h9.9v2.9c0,2.1-0.4,3.9-1.3,5.4s-2.1,2.7-3.7,3.5
			s-3.3,1.2-5.3,1.2c-2.2,0-4.2-0.5-5.9-1.5c-1.7-1-3-2.5-4-4.3c-0.9-1.9-1.4-4.1-1.4-6.7c0-2,0.3-3.7,0.8-5.3
			c0.6-1.5,1.3-2.9,2.4-3.9c1-1.1,2.2-1.9,3.5-2.5c1.4-0.6,2.8-0.9,4.4-0.9c1.3,0,2.6,0.2,3.8,0.6c1.2,0.4,2.2,0.9,3.1,1.7
			c0.9,0.7,1.7,1.6,2.2,2.6c0.6,1,1,2.1,1.2,3.3h-4.5V19.4z M86.5,36V11.7h15.6v3.7H90.9V22H101v3.7H90.9V36H86.5z"/>
	</g>
</g>
</svg>
