<?xml version="1.0" encoding="utf-8"?>
<!-- Generator: Adobe Illustrator 27.1.1, SVG Export Plug-In . SVG Version: 6.00 Build 0)  -->
<svg version="1.1" id="Layer_2" xmlns="http://www.w3.org/2000/svg" xmlns:xlink="http://www.w3.org/1999/xlink" x="0px" y="0px"
	 viewBox="0 0 104 46" style="enable-background:new 0 0 104 46;" xml:space="preserve">
<style type="text/css">
	.st0{clip-path:url(#SVGID_00000103248207646192350710000011552861892599830416_);}
	.st1{clip-path:url(#SVGID_00000109720347565376532490000011326021141028500867_);}
	.st2{fill:#CB7929;}
</style>
<g>
	<g>
		<defs>
			<rect id="SVGID_1_" x="13.7" y="0.6" width="44.8" height="44.8"/>
		</defs>
		<clipPath id="SVGID_00000075149982816500635120000014286341933121064122_">
			<use xlink:href="#SVGID_1_"  style="overflow:visible;"/>
		</clipPath>
		<g style="clip-path:url(#SVGID_00000075149982816500635120000014286341933121064122_);">
			<g>
				<defs>
					<rect id="SVGID_00000060024086003873522960000012116899665693697447_" x="13.7" y="0.6" width="44.8" height="44.8"/>
				</defs>
				<clipPath id="SVGID_00000013170799885436620850000000530637651601818529_">
					<use xlink:href="#SVGID_00000060024086003873522960000012116899665693697447_"  style="overflow:visible;"/>
				</clipPath>
				<g style="clip-path:url(#SVGID_00000013170799885436620850000000530637651601818529_);">
					<path class="st2" d="M37.8,2.1c-2.8,0.8-4.6,1.3-5.3,1.7c-0.7,0.4-1.1,0.6-1.1,0.7c0,0.1,1.3,1.5,4,4.2
						c2.7,2.7,4.3,4.2,4.8,4.5c0.6,0.3,1.2,0.5,2,0.5c0.8,0,3-0.4,6.6-1.4c1.8-0.5,3.6-1,5.5-1.5c-0.2-0.3-0.4-0.7-0.5-1
						c-0.4-0.7-1.6-2.1-3.7-4.2c-2.1-2.2-3.5-3.4-4.1-3.8c-0.6-0.4-1.4-0.6-2.4-0.6C42.5,1,40.6,1.3,37.8,2.1z M30.1,6.1
						c-0.4,0.7-0.9,2.3-1.5,4.8c-0.7,2.5-1,3.9-1,4.1c0,0.2,1.3,1.1,3.9,2.6c2.6,1.5,4.2,2.5,4.6,3c0.4,0.5,0.8,1,1,1.6
						c0.1,0.3,0.2,0.6,0.3,0.9c0.2-0.2,0.4-0.4,0.6-0.6c0.4-0.4,0.9-1.9,1.6-4.5c0.7-2.6,0.7-4,0.1-4.3c-0.6-0.3-2.2-1.8-5-4.5
						c-1.4-1.4-2.8-2.8-4.1-4.1C30.5,5.4,30.3,5.8,30.1,6.1z M48.8,12.9c-3.6,1-5.7,1.5-6.4,1.5c-0.7,0-1.4,1.1-2,3.4
						c-0.3,1.1-0.6,2.3-0.9,3.4c0.3-0.1,0.6-0.2,0.8-0.3c0.6-0.2,1.2-0.4,1.9-0.4c0.7,0,2.5,0.3,5.3,1.1s4.3,0.9,4.5,0.4
						c0.2-0.5,0.7-2,1.3-4.5c0.7-2.5,1-4.1,1-4.7c0-0.6,0-1,0-1.1c0-0.1-0.1-0.2-0.2-0.2S52.4,11.9,48.8,12.9z M23.6,15.8
						c-0.5,0.2-1.7,0.8-3.6,1.9c-1.9,1.1-3.2,1.9-3.7,2.2c-0.5,0.3-0.9,0.7-1.2,1c-0.3,0.3-0.4,0.6-0.2,0.7c0.1,0.2,1.6,1.1,4.4,2.7
						C22,26,23.6,26.9,24,27c0.5,0.1,1,0.2,1.6,0.1c0.6-0.1,2.5-1,5.6-2.8c3.1-1.8,4.6-2.8,4.6-2.9c0-0.1-0.2-0.3-0.4-0.6
						c-0.3-0.3-1.5-1.1-3.7-2.4c-2.2-1.3-3.7-2.1-4.4-2.4c-0.7-0.3-1.4-0.4-2-0.4C24.6,15.5,24.1,15.6,23.6,15.8z M41.3,21.3
						c-0.4,0.1-0.8,0.3-1.3,0.6c-0.5,0.3-1.7,1.4-3.7,3.4c-2,2-3.1,3.2-3.4,3.6c-0.3,0.4-0.4,0.7-0.4,0.8c0,0.1,1.6,0.6,4.9,1.5
						c3.3,0.9,5.2,1.3,5.7,1.3c0.5,0,1.1-0.1,1.7-0.4c0.6-0.3,2.1-1.7,4.6-4.2c1.2-1.3,2.5-2.5,3.7-3.8c-0.3-0.2-0.7-0.4-1-0.5
						c-0.7-0.4-2.2-0.9-4.7-1.5s-4-1-4.7-1S41.6,21.2,41.3,21.3z M13.9,22.8c-0.1,0.4-0.2,2-0.2,4.9c0,2.9,0.1,4.6,0.3,5.2
						c0.2,0.6,0.6,1.1,1.1,1.6c0.5,0.5,1.9,1.4,4.1,2.7c2.3,1.3,3.6,2.1,4,2.2c0.4,0.2,0.8,0.3,1.1,0.3c0.2,0,0.3,0,0.5,0
						c0-2,0-4,0-6c0-4-0.3-6.1-0.9-6.2c-0.6-0.2-2.4-1.1-5.4-2.8c-1.5-0.9-3-1.7-4.4-2.6C14,22.4,14,22.6,13.9,22.8z M32.2,24.6
						c-2.7,1.6-4.2,2.5-4.6,2.7c-0.4,0.2-0.8,0.3-1.3,0.4c-0.5,0.1-0.7,2.1-0.7,6.1c0,2,0,4,0,6c0.3-0.1,0.6-0.1,0.9-0.2
						c0.6-0.1,1.7-0.7,3.5-1.7c1.7-1,2.4-2.1,2.1-3.3c-0.3-1.2-0.5-2.1-0.5-2.6c0-0.5,0-1,0-1.4c0.1-0.4,0.3-0.9,0.6-1.6
						c0.4-0.7,1.2-1.7,2.6-3c1.3-1.3,2-2.2,1.9-2.7c-0.1-0.5-0.2-0.8-0.3-0.8C36.2,22.2,34.8,23,32.2,24.6z M49.8,28.7
						c-2.5,2.5-3.9,3.9-4.4,4.1c-0.5,0.2-0.2,2.3,0.8,6.1c0.5,1.9,1,3.9,1.5,5.8c0.3-0.1,0.5-0.3,0.8-0.4c0.5-0.3,1.8-1.4,3.9-3.5
						c2.1-2.1,3.3-3.5,3.6-4.1c0.3-0.6,0.5-1.3,0.5-1.9c0-0.6-0.2-2.1-0.8-4.4c-0.6-2.3-1-3.7-1.2-4.2c-0.2-0.5-0.4-0.8-0.6-1
						C53.7,25,52.3,26.2,49.8,28.7z M32.2,31.6c0,0.6,0.3,2.1,0.9,4.3c0.6,2.3,1,3.6,1.1,4c0.2,0.4,0.4,0.8,0.8,1.3
						c0.4,0.5,0.9,0.8,1.4,1.1c0.6,0.3,2.1,0.8,4.7,1.5c2.6,0.7,4.2,1,4.9,1c0.3,0,0.7,0,1,0c-0.5-1.9-1-3.9-1.5-5.8
						c-1-3.9-1.9-5.8-2.7-5.8c-0.8,0-2.7-0.5-5.9-1.3c-1.6-0.4-3.2-0.9-4.8-1.3C32.2,31,32.2,31.3,32.2,31.6z"/>
				</g>
			</g>
		</g>
	</g>
	<path class="st2" d="M77.9,18.3c-0.1-1-0.6-1.9-1.4-2.4c-0.8-0.6-1.9-0.9-3.2-0.9c-0.9,0-1.7,0.1-2.4,0.4c-0.7,0.3-1.2,0.7-1.5,1.1
		s-0.5,1-0.5,1.6c0,0.5,0.1,1,0.3,1.3c0.2,0.4,0.6,0.7,1,1c0.4,0.3,0.9,0.5,1.3,0.6c0.5,0.2,1,0.3,1.5,0.4l2.3,0.6
		c0.9,0.2,1.8,0.5,2.7,0.9c0.9,0.4,1.6,0.8,2.3,1.4c0.7,0.6,1.2,1.2,1.6,2c0.4,0.8,0.6,1.7,0.6,2.8c0,1.4-0.4,2.7-1.1,3.8
		c-0.7,1.1-1.8,1.9-3.2,2.5c-1.4,0.6-3,0.9-5,0.9c-1.9,0-3.6-0.3-4.9-0.9C66.9,35,65.8,34.1,65,33c-0.8-1.1-1.2-2.5-1.3-4.1h4.4
		c0.1,0.9,0.3,1.6,0.8,2.1c0.5,0.6,1.1,1,1.8,1.3c0.7,0.3,1.6,0.4,2.5,0.4c1,0,1.8-0.1,2.5-0.4c0.7-0.3,1.3-0.7,1.7-1.2
		c0.4-0.5,0.6-1.1,0.6-1.8c0-0.6-0.2-1.2-0.6-1.6c-0.4-0.4-0.9-0.8-1.5-1c-0.7-0.3-1.4-0.5-2.3-0.8l-2.8-0.7c-2-0.5-3.6-1.3-4.8-2.3
		c-1.2-1.1-1.7-2.5-1.7-4.2c0-1.4,0.4-2.7,1.2-3.8c0.8-1.1,1.9-1.9,3.2-2.5c1.4-0.6,2.9-0.9,4.6-0.9c1.7,0,3.3,0.3,4.6,0.9
		c1.3,0.6,2.3,1.4,3.1,2.5c0.7,1.1,1.1,2.3,1.2,3.6H77.9z M86.5,36.1V11.6h15.6v3.7H90.9V22H101v3.7H90.9v10.4H86.5z"/>
</g>
</svg>
