<?xml version="1.0" encoding="utf-8"?>
<!-- Generator: Adobe Illustrator 27.1.1, SVG Export Plug-In . SVG Version: 6.00 Build 0)  -->
<svg version="1.1" id="Layer_1" xmlns="http://www.w3.org/2000/svg" xmlns:xlink="http://www.w3.org/1999/xlink" x="0px" y="0px"
	 viewBox="0 0 460 267.6" style="enable-background:new 0 0 460 267.6;" xml:space="preserve">
<style type="text/css">
	.st0{fill:#016FD0;}
</style>
<g id="_x31_6-amex_x2C__Credit_card">
	<g>
		<g>
			<path class="st0" d="M406.1,222v-3.6c-8.6,4.5-3.1,3.6-125.1,3.6c0-20.1,0.1-19.1,0-20.1c-1.4-0.1-2.6-0.1-7.5-0.1
				c0,14.3-0.1,5.4-0.1,20.2h-31.6c0-9.7,0.1-12.2,0.1-23.3c-8,4.8-18.2,5.1-27.4,4.9c0,11.7-0.1,6.6-0.1,18.4h-39
				c-4.1-4.6-2.2-2.5-12.3-13.9c-2.6,2.8-10.2,11.1-12.9,13.9H84.8v-73.7h66.3c4,4.5,2.2,2.5,12.4,13.7c2.6-2.8,9.7-10.7,12.5-13.7
				h46.3c7.8,0,14.4,1.5,19.4,4.5v-4.5c43.3,0,51.3-1.1,60.4,4.1v-4.1h62.4v4.1c9.1-5.5,15.6-4.1,51.8-4.1v4
				c8.2-4.7,13.2-4.1,43.3-4v-110c0-21.2-17.2-38.3-38.3-38.3H38.3C17.2,0,0,17.2,0,38.3V96c7.5-17.5,15.7-36.7,18.4-43h31.7
				c3.4,8.1,1.3,3,7.2,16.8V52.9H94c2.3,4.9,8.9,19.2,11.1,23.9c4.6-10.9,8.1-19.1,10.1-23.9h82.2c0-0.1,9.2,0,9.3,0
				c34.9,0.2,42.8-0.6,51.4,4.2v-4.2h31.9v7.4c6.1-4.9,14.3-7.4,24.5-7.4h22c0,0.4,1.5,0.2,1.8,0.2h25.9c3.4,7.8,2.1,4.8,7,16.4
				V53.2h34.6c3.9,6.4-0.8-1.4,8.9,14.7V53.2h31.8v73.4h-33.2c-4.3-7.2-1.1-1.8-10.5-17.5v17.5h-42.1c-5.1-11.8-0.1-0.2-5.3-12.2
				h-15.2c-3.4,8-1.8,4.2-5.1,12.2h-21.4c-9.8,0-17.8-2.4-23.7-7.1v7.1h-53.1c-0.2-11.1-0.1-19.8-0.1-19.8c-1.4-0.2-2.7-0.2-7.8-0.2
				v20H120.8v-9.1c-2,4.5-2.2,4.7-4.1,9.1H93.2c-3.2-7.1-2.3-5.1-4.1-9.1v9.1H46.9c-3.4-8.1-1.8-4.2-5.1-12.2H26.5
				c-3.4,8-1.8,4.1-5.1,12.2H0.2v102.6c0,21.2,17.2,38.3,38.3,38.3h383.2c21.1,0,38.3-17.2,38.3-38.3v-12.2
				C449.9,223.7,433.9,222,406.1,222z"/>
			<rect x="267.2" y="63.5" class="st0" width="13.5" height="55.3"/>
			<path class="st0" d="M259.7,78.4c0-13.1-11.3-14.7-21.9-14.7l-31.2-0.2v55.3h13.1v-20H234c14.7,0,11.6,8.2,11.8,20h13.3V108
				c0-7.3-1.2-12.1-8.8-14.7C256.2,90.9,259.7,84.8,259.7,78.4z M236.2,87.4h-16.5V75.2h16.8c4.1,0,8.5,0.8,8.5,5.9
				C245,86.4,240.7,87.4,236.2,87.4z"/>
			<polygon class="st0" points="197.5,75.2 197.5,63.5 153.2,63.5 153.2,118.9 197.5,118.9 197.5,107.4 166.4,107.4 166.4,96.4 
				196.6,96.4 196.6,85.2 166.4,85.2 166.4,75.2 			"/>
			<path class="st0" d="M143.4,118.9V63.5h-22l-15.7,37.5L88.3,63.5H66.6V116L44.2,63.5H24.7L1,118.9h14.3l5.1-12.2h27.5l5.1,12.2
				h27V75.6l19.2,43.3h11.7l19.2-43.3v43.3L143.4,118.9L143.4,118.9z M25.1,95.2l8.9-22l9.2,22H25.1z"/>
			<path class="st0" d="M222.9,158.9h-42.1L164,177.1l-16.4-18.2H94.6l-0.1,55.3h52.2l17-18.4l16.3,18.4h25.7l0.1-18.6
				c15.1,0,39.4,3.7,39.4-18.6C245.1,163.2,235.3,158.9,222.9,158.9z M140,202.5h-32.4v-11h29v-11.3h-29v-10h33.3l14.3,16.1
				L140,202.5z M192.5,209.1l-20.2-22.4l20.2-21.9L192.5,209.1L192.5,209.1z M222.7,184.3h-16.9v-14h17.2c4.5,0,8.1,1.8,8.1,6.7
				C231.1,182.1,227.4,184.3,222.7,184.3z"/>
			<path class="st0" d="M287.2,91.6c0,17.7,8.1,27.1,26.3,27.1h15.3l5.1-12.2h27.4l5.3,12.2h26.9V77.4l24.9,41.4h18.8V63.7h-13.5
				v38.4l-23.2-38.4h-20.2v52.2l-22.3-52.2h-19.8l-18.8,43.5h-5.9c-10.6,0-12.9-6.5-12.9-15.9c0-19,12.5-16,26.4-15.7V63.5h-12.9
				C295.6,63.5,287.2,73,287.2,91.6z M347.9,73.1l8.9,22h-18.2L347.9,73.1z"/>
			<path class="st0" d="M389.6,202.3h-25.7l-0.1,11.8h25.7c11.8,0,20.9-4.5,20.9-17.6c0-26.5-34.2-8.9-34.2-21
				c0-4.5,3.9-5.1,7.3-5.1h24.3v-11.7h-26.5c-10.2,0-18.8,5.3-18.8,16.5c0,26.3,34.1,10,34.1,21.9
				C396.5,201.5,392.9,202.3,389.6,202.3z"/>
			<path class="st0" d="M304.6,173.8c0-13.1-11.3-14.9-21.6-14.9h-31.5l-0.1,55.3h13.2l0.1-20.2h14c8.8,0,11.8,1.6,11.8,11l-0.1,9.2
				h13.2l0.1-11c0-7.1-1.4-12.1-8.8-14.7C301.2,186,304.5,179.8,304.6,173.8z M281.3,182.7h-16.5v-12.5h16.8c4.1,0,8.5,0.8,8.5,5.9
				C290.1,181.7,285.8,182.7,281.3,182.7z"/>
			<polygon class="st0" points="355.9,170.3 355.9,158.9 311.9,158.9 311.8,214.2 355.8,214.2 355.9,202.8 325.1,202.5 325.1,191.5 
				355.4,191.5 355.4,180.2 325.2,180.2 325.2,170.3 			"/>
			<path class="st0" d="M435.1,170.5h24v-11.7h-26.3c-10.2,0-19,5.3-19,16.5c0,26.3,34.1,10.2,34.1,21.9c0,4.1-3.4,5.1-6.7,5.1
				h-25.5l-0.1,11.8h25.5c6.7,0,14-1.4,18-7.1v-20.6c-8.4-11-31.4-1-31.4-10.8C427.8,171.1,431.4,170.5,435.1,170.5z"/>
		</g>
	</g>
</g>
<g id="Layer_1_00000054227095772158338600000002015573182342827943_">
</g>
</svg>
