<?xml version="1.0" encoding="utf-8"?>
<!-- Generator: Adobe Illustrator 27.1.1, SVG Export Plug-In . SVG Version: 6.00 Build 0)  -->
<svg version="1.1" id="Layer_1" xmlns="http://www.w3.org/2000/svg" xmlns:xlink="http://www.w3.org/1999/xlink" x="0px" y="0px"
	 viewBox="0 0 52.7 32.7" style="enable-background:new 0 0 52.7 32.7;" xml:space="preserve">
<style type="text/css">
	.st0{fill:#004E91;}
	.st1{fill:#FFDD00;}
</style>
<path class="st0" d="M47,5.7h-2.5H33.1h-2.5L29,7.6l-5.4,6.1l-1.7,1.9h-2.5H8.3H5.8l1.6-1.9l0.8-0.9l1.6-1.9H7.4H4.2H2.5
	C1.1,10.8,0,12,0,13.4v4.9v0.5c0,1.4,1.1,2.5,2.5,2.5h0.7H29h1.9c1.4,0,3.2-0.9,4.1-1.9l4.3-4.9L47,5.7z"/>
<path class="st1" d="M50.2,0c1.4,0,2.5,1.1,2.5,2.5v5.3c0,1.4-1.1,2.5-2.5,2.5h-1.3h-3.6h-2.5l1.6-1.9l0.8-0.9l1.6-1.9H30.6
	l-8.7,9.8H5.7L17.3,2.4l0.4-0.5c0.9-1,2.8-1.9,4.1-1.9h0.6L50.2,0L50.2,0z"/>
<path class="st0" d="M52.7,32.4v-0.8c0-0.1-0.1-0.2-0.2-0.2H52c-0.1,0-0.3,0-0.3-0.1c0-0.1,0-0.2,0-0.4v-2.9h0.8
	c0.1,0,0.1,0,0.1-0.1c0,0,0.1-0.1,0.1-0.1V27c0-0.1,0-0.1-0.1-0.1c0,0-0.1-0.1-0.1-0.1h-0.8v-1.1c0-0.1,0-0.1,0-0.1c0,0-0.1,0-0.1,0
	h0l-1.2,0.2c-0.1,0-0.1,0-0.1,0.1c0,0-0.1,0.1-0.1,0.1v0.8h-0.8c-0.1,0-0.1,0-0.1,0.1c0,0-0.1,0.1-0.1,0.1v0.7c0,0.1,0,0.1,0.1,0.1
	c0,0,0.1,0.1,0.1,0.1l0.8,0.1v2.9c0,0.4,0,0.6,0.1,0.9c0.1,0.2,0.2,0.4,0.3,0.5c0.1,0.1,0.3,0.2,0.5,0.3c0.2,0,0.5,0.1,0.7,0.1
	c0.1,0,0.3,0,0.4,0c0.1,0,0.3,0,0.4-0.1C52.6,32.6,52.7,32.5,52.7,32.4z M48.4,32.3v-0.9c0-0.1,0-0.1-0.1-0.1c0,0-0.1,0-0.1,0h0
	c-0.2,0-0.4,0-0.5,0c-0.2,0-0.4,0-0.7,0c-0.1,0-0.2,0-0.3-0.1c-0.1,0-0.2-0.1-0.3-0.2c-0.1-0.1-0.1-0.2-0.2-0.4
	c0-0.1-0.1-0.3-0.1-0.6v-0.8c0-0.2,0-0.4,0.1-0.6c0-0.1,0.1-0.3,0.2-0.4c0.1-0.1,0.2-0.1,0.3-0.2c0.1,0,0.2-0.1,0.3-0.1
	c0.3,0,0.5,0,0.7,0c0.2,0,0.4,0,0.5,0h0c0.1,0,0.1,0,0.1,0c0,0,0.1-0.1,0.1-0.1v-0.9c0-0.1,0-0.1,0-0.1c0,0-0.1-0.1-0.2-0.1
	c-0.1,0-0.3-0.1-0.5-0.1c-0.2,0-0.5,0-0.8,0c-0.7,0-1.3,0.2-1.7,0.6c-0.4,0.4-0.6,1.1-0.6,1.9v0.8c0,0.8,0.2,1.5,0.6,1.9
	c0.4,0.4,1,0.6,1.7,0.6c0.3,0,0.6,0,0.8,0c0.2,0,0.4-0.1,0.5-0.1c0.1,0,0.1,0,0.2-0.1C48.4,32.4,48.4,32.4,48.4,32.3z M41.8,31.2
	c-0.1,0.1-0.3,0.1-0.4,0.1c-0.1,0-0.3,0.1-0.4,0.1c-0.2,0-0.4,0-0.5-0.1c-0.1-0.1-0.1-0.2-0.1-0.4v-0.1c0-0.1,0-0.2,0-0.3
	c0-0.1,0.1-0.2,0.1-0.2c0.1-0.1,0.2-0.1,0.3-0.1c0.1,0,0.3,0,0.4,0h0.6V31.2z M43.4,28.8c0-0.4-0.1-0.7-0.2-0.9
	c-0.1-0.3-0.3-0.5-0.5-0.6c-0.2-0.2-0.4-0.3-0.7-0.4c-0.3-0.1-0.6-0.1-1-0.1c-0.3,0-0.7,0-1,0.1c-0.3,0-0.6,0.1-0.8,0.1
	c-0.1,0-0.2,0.1-0.2,0.2V28c0,0.1,0,0.1,0,0.1c0,0,0.1,0,0.1,0h0c0.1,0,0.2,0,0.3,0c0.1,0,0.3,0,0.4,0c0.1,0,0.3,0,0.5,0
	s0.3,0,0.5,0c0.2,0,0.4,0,0.5,0.1c0.1,0.1,0.2,0.3,0.2,0.6v0.4h-0.5c-0.9,0-1.5,0.1-1.9,0.4c-0.4,0.3-0.6,0.7-0.6,1.3v0.1
	c0,0.3,0,0.6,0.1,0.8c0.1,0.2,0.2,0.4,0.4,0.5c0.2,0.1,0.3,0.2,0.5,0.3c0.2,0.1,0.4,0.1,0.6,0.1c0.3,0,0.6,0,0.8-0.1
	c0.2-0.1,0.4-0.2,0.6-0.3v0.2c0,0.1,0,0.1,0.1,0.1c0,0,0.1,0.1,0.1,0.1h1.1c0.1,0,0.1,0,0.1-0.1s0.1-0.1,0.1-0.1L43.4,28.8
	L43.4,28.8z M38.1,32.4v-0.8c0-0.1-0.1-0.2-0.2-0.2h-0.5c-0.1,0-0.3,0-0.3-0.1c0-0.1,0-0.2,0-0.4v-2.9h0.8c0.1,0,0.1,0,0.1-0.1
	c0,0,0.1-0.1,0.1-0.1V27c0-0.1,0-0.1-0.1-0.1c0,0-0.1-0.1-0.1-0.1h-0.8v-1.1c0-0.1,0-0.1,0-0.1c0,0-0.1,0-0.1,0h0l-1.2,0.2
	c-0.1,0-0.1,0-0.1,0.1c0,0-0.1,0.1-0.1,0.1v0.8h-0.8c-0.1,0-0.1,0-0.1,0.1c0,0-0.1,0.1-0.1,0.1v0.7c0,0.1,0,0.1,0.1,0.1
	c0,0,0.1,0.1,0.1,0.1l0.8,0.1v2.9c0,0.4,0,0.6,0.1,0.9c0.1,0.2,0.2,0.4,0.3,0.5c0.1,0.1,0.3,0.2,0.5,0.3c0.2,0,0.5,0.1,0.7,0.1
	c0.1,0,0.3,0,0.4,0c0.1,0,0.3,0,0.4-0.1C38,32.6,38.1,32.5,38.1,32.4z M33.7,32.4V29c0-0.3,0-0.6-0.1-0.9c0-0.3-0.1-0.5-0.3-0.7
	c-0.1-0.2-0.3-0.4-0.5-0.5c-0.2-0.1-0.5-0.2-0.9-0.2c-0.3,0-0.6,0-0.9,0.1c-0.3,0.1-0.5,0.2-0.8,0.4V27c0-0.1,0-0.1-0.1-0.1
	c0,0-0.1-0.1-0.1-0.1h-1.1c-0.1,0-0.1,0-0.1,0.1c0,0-0.1,0.1-0.1,0.1v5.3c0,0.1,0,0.1,0.1,0.1c0,0,0.1,0.1,0.1,0.1h1.2
	c0.1,0,0.1,0,0.1-0.1c0,0,0.1-0.1,0.1-0.1v-3.9c0.2-0.1,0.3-0.2,0.5-0.2c0.1-0.1,0.3-0.1,0.5-0.1c0.1,0,0.3,0,0.4,0
	c0.1,0,0.2,0.1,0.2,0.1c0.1,0.1,0.1,0.2,0.1,0.3c0,0.1,0,0.3,0,0.4v3.3c0,0.1,0,0.1,0.1,0.1c0,0,0.1,0.1,0.1,0.1h1.2
	c0.1,0,0.1,0,0.1-0.1C33.7,32.5,33.7,32.4,33.7,32.4z M26.1,30.1c0,0.8-0.3,1.2-0.9,1.2c-0.3,0-0.5-0.1-0.7-0.3
	c-0.1-0.2-0.2-0.5-0.2-0.9v-0.7c0-0.4,0.1-0.7,0.2-0.9c0.1-0.2,0.4-0.3,0.7-0.3c0.6,0,0.9,0.4,0.9,1.2V30.1z M27.7,29.4
	c0-0.4-0.1-0.8-0.2-1.1c-0.1-0.3-0.3-0.6-0.5-0.8c-0.2-0.2-0.5-0.4-0.8-0.5c-0.3-0.1-0.7-0.2-1.1-0.2c-0.4,0-0.8,0.1-1.1,0.2
	c-0.3,0.1-0.6,0.3-0.8,0.5c-0.2,0.2-0.4,0.5-0.5,0.8c-0.1,0.3-0.2,0.7-0.2,1.1v0.7c0,0.4,0.1,0.8,0.2,1.1c0.1,0.3,0.3,0.6,0.5,0.8
	s0.5,0.4,0.8,0.5c0.3,0.1,0.7,0.2,1.1,0.2c0.4,0,0.8-0.1,1.1-0.2c0.3-0.1,0.6-0.3,0.8-0.5c0.2-0.2,0.4-0.5,0.5-0.8
	c0.1-0.3,0.2-0.7,0.2-1.1V29.4z M22.1,32.3v-0.9c0-0.1,0-0.1-0.1-0.1c0,0-0.1,0-0.1,0h0c-0.2,0-0.4,0-0.5,0s-0.4,0-0.7,0
	c-0.1,0-0.2,0-0.3-0.1c-0.1,0-0.2-0.1-0.3-0.2C20,31,20,30.8,19.9,30.7c0-0.1-0.1-0.3-0.1-0.6v-0.8c0-0.2,0-0.4,0.1-0.6
	c0-0.1,0.1-0.3,0.2-0.4c0.1-0.1,0.2-0.1,0.3-0.2c0.1,0,0.2-0.1,0.3-0.1c0.3,0,0.5,0,0.7,0c0.2,0,0.4,0,0.5,0h0c0.1,0,0.1,0,0.1,0
	c0,0,0.1-0.1,0.1-0.1v-0.9c0-0.1,0-0.1,0-0.1c0,0-0.1-0.1-0.2-0.1c-0.1,0-0.3-0.1-0.5-0.1c-0.2,0-0.5,0-0.8,0
	c-0.7,0-1.3,0.2-1.7,0.6c-0.4,0.4-0.6,1.1-0.6,1.9v0.8c0,0.8,0.2,1.5,0.6,1.9c0.4,0.4,1,0.6,1.7,0.6c0.3,0,0.6,0,0.8,0
	c0.2,0,0.4-0.1,0.5-0.1c0.1,0,0.1,0,0.2-0.1C22.1,32.4,22.1,32.4,22.1,32.3z M17.2,32.4V29c0-0.3,0-0.6-0.1-0.9
	c0-0.3-0.1-0.5-0.3-0.7c-0.1-0.2-0.3-0.4-0.5-0.5c-0.2-0.1-0.5-0.2-0.9-0.2c-0.3,0-0.6,0-0.9,0.1c-0.3,0.1-0.5,0.2-0.8,0.4V27
	c0-0.1,0-0.1-0.1-0.1c0,0-0.1-0.1-0.1-0.1h-1.1c-0.1,0-0.1,0-0.1,0.1c0,0-0.1,0.1-0.1,0.1v5.3c0,0.1,0,0.1,0.1,0.1
	c0,0,0.1,0.1,0.1,0.1h1.2c0.1,0,0.1,0,0.1-0.1s0.1-0.1,0.1-0.1v-3.9c0.2-0.1,0.3-0.2,0.5-0.2c0.1-0.1,0.3-0.1,0.5-0.1s0.3,0,0.4,0
	c0.1,0,0.2,0.1,0.2,0.1c0.1,0.1,0.1,0.2,0.1,0.3c0,0.1,0,0.3,0,0.4v3.3c0,0.1,0,0.1,0.1,0.1s0.1,0.1,0.1,0.1H17c0.1,0,0.1,0,0.1-0.1
	C17.2,32.5,17.2,32.4,17.2,32.4z M9.4,31.2c-0.1,0.1-0.3,0.1-0.4,0.1s-0.3,0.1-0.4,0.1c-0.2,0-0.4,0-0.5-0.1C8,31.3,8,31.2,8,30.9
	v-0.1c0-0.1,0-0.2,0-0.3c0-0.1,0.1-0.2,0.1-0.2c0.1-0.1,0.2-0.1,0.3-0.1c0.1,0,0.3,0,0.4,0h0.6V31.2z M11.1,28.8
	c0-0.4-0.1-0.7-0.2-0.9c-0.1-0.3-0.3-0.5-0.5-0.6c-0.2-0.2-0.4-0.3-0.7-0.4c-0.3-0.1-0.6-0.1-1-0.1c-0.3,0-0.7,0-1,0.1
	S7.2,26.9,7,27c-0.1,0-0.2,0.1-0.2,0.2V28c0,0.1,0,0.1,0,0.1c0,0,0.1,0,0.1,0h0c0.1,0,0.2,0,0.3,0c0.1,0,0.3,0,0.4,0
	c0.1,0,0.3,0,0.5,0c0.2,0,0.3,0,0.5,0c0.2,0,0.4,0,0.5,0.1c0.1,0.1,0.2,0.3,0.2,0.6v0.4H8.9c-0.9,0-1.5,0.1-1.9,0.4
	c-0.4,0.3-0.6,0.7-0.6,1.3v0.1c0,0.3,0,0.6,0.1,0.8C6.7,32,6.8,32.2,7,32.3c0.2,0.1,0.3,0.2,0.5,0.3c0.2,0.1,0.4,0.1,0.6,0.1
	c0.3,0,0.6,0,0.8-0.1s0.4-0.2,0.6-0.3v0.2c0,0.1,0,0.1,0.1,0.1s0.1,0.1,0.1,0.1h1.1c0.1,0,0.1,0,0.1-0.1s0.1-0.1,0.1-0.1L11.1,28.8
	L11.1,28.8z M3.9,30.4c0,0.3-0.1,0.5-0.3,0.6c-0.2,0.1-0.6,0.2-1.1,0.2H2.4c-0.1,0-0.2,0-0.3,0s-0.2,0-0.3,0H1.7v-1.9h1.1
	c0.4,0,0.7,0.1,0.8,0.3c0.1,0.2,0.2,0.4,0.2,0.6V30.4z M3.8,27.4c0,0.1,0,0.2,0,0.3c0,0.1-0.1,0.2-0.2,0.3c-0.1,0.1-0.2,0.1-0.3,0.2
	c-0.1,0-0.3,0.1-0.5,0.1H1.7v-1.7c0,0,0.1,0,0.1,0s0.1,0,0.2,0h0.2h0.2c0.5,0,0.9,0.1,1.1,0.2c0.2,0.1,0.3,0.3,0.3,0.6L3.8,27.4
	L3.8,27.4z M5.5,30.3c0-0.4-0.1-0.6-0.3-0.9c-0.2-0.3-0.4-0.5-0.6-0.6c0.3-0.1,0.5-0.3,0.6-0.6c0.1-0.3,0.2-0.6,0.2-0.9v-0.2
	c0-0.4-0.1-0.7-0.2-1c-0.1-0.3-0.4-0.5-0.6-0.6c-0.3-0.2-0.6-0.3-1-0.4C3.2,25.1,2.8,25,2.3,25c-0.2,0-0.3,0-0.5,0
	c-0.2,0-0.3,0-0.5,0c-0.2,0-0.3,0-0.5,0c-0.1,0-0.3,0-0.3,0c-0.2,0-0.3,0.1-0.4,0.2C0,25.4,0,25.6,0,25.8v6.1c0,0.2,0,0.4,0.1,0.5
	c0.1,0.1,0.2,0.1,0.4,0.2c0.1,0,0.2,0,0.4,0c0.1,0,0.3,0,0.5,0c0.2,0,0.3,0,0.5,0c0.2,0,0.4,0,0.5,0c0.4,0,0.9,0,1.2-0.1
	c0.4-0.1,0.7-0.2,1-0.4c0.3-0.2,0.5-0.4,0.7-0.7c0.2-0.3,0.3-0.7,0.3-1.1V30.3z"/>
</svg>
