<svg width="68" height="49" viewBox="0 0 68 49" fill="none" xmlns="http://www.w3.org/2000/svg">
<path d="M54.6337 13.429H52.1731H40.7876H38.327L36.6588 15.3057L31.2789 21.3738L29.6107 23.2505H27.1501H15.9731H13.5125L15.139 21.353L15.9106 20.4563L17.5371 18.5587H15.0765H11.9069H10.1344C8.77901 18.5587 7.67383 19.7056 7.67383 21.0819V25.9614V26.4201C7.67383 27.8172 8.77901 28.9433 10.1344 28.9433H10.8226H36.6797H38.5355C39.8909 28.9433 41.7468 28.0883 42.6435 27.0666L46.9391 22.1871L54.6337 13.429Z" fill="#004E91"/>
<path d="M57.9074 7.73628C59.2628 7.73628 60.368 8.88316 60.368 10.2594V15.5977C60.368 16.9948 59.2628 18.1208 57.9074 18.1208H56.5729H52.9654H50.5048L52.1521 16.2441L52.9654 15.3057L54.6127 13.429H38.3061L29.6106 23.2297H13.4082L25.023 10.0926L25.4609 9.59215C26.3785 8.57038 28.2343 7.71542 29.5897 7.71542H30.1528H57.9074V7.73628Z" fill="#FFDD00"/>
<path d="M60.3681 40.1202V39.3487C60.3681 39.2444 60.3055 39.1818 60.1596 39.1818H59.6591C59.5131 39.1818 59.4089 39.161 59.388 39.0984C59.3463 39.0359 59.3463 38.9108 59.3463 38.7022V35.7829H60.1596C60.2221 35.7829 60.2638 35.762 60.3055 35.7203C60.3472 35.6786 60.3681 35.6369 60.3681 35.5744V34.7611C60.3681 34.6986 60.3472 34.6569 60.3055 34.6151C60.2638 34.5734 60.2221 34.5526 60.1596 34.5526H59.3463V33.4891C59.3463 33.4266 59.3255 33.3849 59.3046 33.364C59.2629 33.3431 59.2212 33.3223 59.1795 33.3223H59.1586L57.9492 33.5308C57.8866 33.5517 57.8449 33.5725 57.8032 33.5934C57.7615 33.6351 57.7407 33.6768 57.7407 33.7185V34.5317H56.9274C56.8649 34.5317 56.8232 34.5526 56.7815 34.5943C56.7398 34.636 56.7189 34.6777 56.7189 34.7403V35.4075C56.7189 35.4701 56.7398 35.5118 56.7815 35.5327C56.8232 35.5744 56.8649 35.5952 56.9274 35.6161L57.7407 35.7412V38.6605C57.7407 39.015 57.7824 39.307 57.8449 39.5363C57.9283 39.7657 58.0326 39.9325 58.1577 40.0577C58.3037 40.1828 58.4705 40.2662 58.679 40.3079C58.8876 40.3496 59.1378 40.3704 59.4089 40.3704C59.5548 40.3704 59.68 40.3704 59.8051 40.3496C59.9093 40.3287 60.0553 40.3079 60.2013 40.287C60.3055 40.287 60.3681 40.2245 60.3681 40.1202ZM56.0308 40.0159V39.1193C56.0308 39.0567 56.0099 39.015 55.9682 38.9942C55.9265 38.9733 55.8848 38.9525 55.8431 38.9525H55.8222C55.6346 38.9733 55.4469 38.9942 55.2801 38.9942C55.1133 39.015 54.8839 39.015 54.5919 39.015C54.4877 39.015 54.3626 38.9942 54.2792 38.9525C54.1749 38.9108 54.0915 38.8482 54.0081 38.7648C53.9247 38.6814 53.883 38.5563 53.8413 38.4103C53.7996 38.2643 53.7787 38.0767 53.7787 37.8473V37.0132C53.7787 36.7838 53.7996 36.5961 53.8413 36.4502C53.883 36.3042 53.9455 36.1791 54.0081 36.0957C54.0915 36.0123 54.1749 35.9497 54.2792 35.908C54.3834 35.8663 54.4877 35.8454 54.5919 35.8454C54.8839 35.8454 55.1133 35.8454 55.2801 35.8663C55.4469 35.8872 55.6346 35.8872 55.8222 35.908H55.8431C55.9057 35.908 55.9474 35.8872 55.9682 35.8663C56.0099 35.8454 56.0308 35.8037 56.0308 35.7412V34.8445C56.0308 34.7611 56.0099 34.7194 55.9891 34.6986C55.9474 34.6777 55.9057 34.636 55.8222 34.6151C55.6763 34.5734 55.5095 34.5526 55.2801 34.5109C55.0507 34.4692 54.8005 34.4692 54.4877 34.4692C53.7787 34.4692 53.2157 34.6777 52.7778 35.1156C52.3607 35.5535 52.1314 36.1791 52.1314 37.0132V37.8473C52.1314 38.6605 52.3399 39.307 52.7778 39.7449C53.1948 40.1828 53.7787 40.3913 54.4877 40.3913C54.7796 40.3913 55.0507 40.3704 55.2801 40.3496C55.5095 40.3079 55.6971 40.287 55.8222 40.2453C55.9057 40.2245 55.9474 40.2036 55.9891 40.1619C56.0308 40.1411 56.0308 40.0785 56.0308 40.0159ZM49.5039 38.9525C49.3788 39.015 49.2537 39.0567 49.1077 39.0984C48.9618 39.1401 48.8158 39.161 48.6698 39.161C48.4613 39.161 48.2945 39.1401 48.1902 39.0776C48.086 39.015 48.0443 38.8899 48.0443 38.6605V38.5771C48.0443 38.452 48.0651 38.3477 48.086 38.2643C48.1068 38.1809 48.1694 38.0975 48.2319 38.035C48.2945 37.9724 48.3988 37.9307 48.503 37.889C48.6073 37.8681 48.7532 37.8473 48.9409 37.8473H49.5039V38.9525ZM51.0887 36.5127C51.0887 36.1374 51.0262 35.8246 50.9219 35.5744C50.8176 35.3241 50.6508 35.1156 50.4632 34.9488C50.2546 34.782 50.0253 34.6569 49.7333 34.5943C49.4414 34.5109 49.1077 34.4692 48.7533 34.4692C48.4196 34.4692 48.086 34.49 47.7732 34.5317C47.4604 34.5734 47.2102 34.6151 47.0225 34.6777C46.8974 34.7194 46.8348 34.782 46.8348 34.9071V35.7203C46.8348 35.7829 46.8557 35.8246 46.8765 35.8663C46.9182 35.8872 46.9599 35.908 47.0016 35.908H47.0433C47.1268 35.908 47.231 35.8872 47.3353 35.8872C47.4604 35.8872 47.5855 35.8663 47.7315 35.8663C47.8774 35.8663 48.0443 35.8454 48.2111 35.8454C48.3779 35.8454 48.5447 35.8454 48.6907 35.8454C48.9201 35.8454 49.1077 35.8872 49.2329 35.9706C49.358 36.054 49.4414 36.2416 49.4414 36.5336V36.8881H48.8992C48.0443 36.8881 47.3978 37.0132 47.0225 37.2843C46.6263 37.5554 46.4386 37.9933 46.4386 38.5771V38.6605C46.4386 38.9942 46.4803 39.2653 46.5846 39.4738C46.6889 39.7032 46.814 39.87 46.9808 40.0159C47.1476 40.1411 47.3144 40.2453 47.523 40.3079C47.7315 40.3704 47.94 40.3913 48.1694 40.3913C48.4613 40.3913 48.7324 40.3496 48.9409 40.2662C49.1494 40.1828 49.358 40.0785 49.5665 39.9325V40.0994C49.5665 40.1619 49.5873 40.2036 49.6291 40.2453C49.6708 40.287 49.7125 40.3079 49.775 40.3079H50.9011C50.9636 40.3079 51.0053 40.287 51.047 40.2453C51.0887 40.2036 51.1096 40.1619 51.1096 40.0994V36.5127H51.0887ZM45.7296 40.1202V39.3487C45.7296 39.2444 45.6671 39.1818 45.5211 39.1818H45.0415C44.8955 39.1818 44.7913 39.161 44.7704 39.0984C44.7287 39.0359 44.7287 38.9108 44.7287 38.7022V35.7829H45.542C45.6045 35.7829 45.6462 35.762 45.6879 35.7203C45.7296 35.6786 45.7505 35.6369 45.7505 35.5744V34.7611C45.7505 34.6986 45.7296 34.6569 45.6879 34.6151C45.6462 34.5734 45.6045 34.5526 45.542 34.5526H44.7287V33.4891C44.7287 33.4266 44.7079 33.3849 44.687 33.364C44.6453 33.3431 44.6036 33.3223 44.5619 33.3223H44.541L43.3316 33.5308C43.269 33.5517 43.2273 33.5725 43.1856 33.5934C43.1439 33.6351 43.1231 33.6768 43.1231 33.7185V34.5317H42.3098C42.2473 34.5317 42.2056 34.5526 42.1639 34.5943C42.1222 34.636 42.1013 34.6777 42.1013 34.7403V35.4075C42.1013 35.4701 42.1222 35.5118 42.1639 35.5327C42.2056 35.5744 42.2473 35.5952 42.3098 35.6161L43.1231 35.7412V38.6605C43.1231 39.015 43.1648 39.307 43.2273 39.5363C43.3107 39.7657 43.415 39.9325 43.5401 40.0577C43.6652 40.1828 43.8529 40.2662 44.0614 40.3079C44.27 40.3496 44.5202 40.3704 44.7913 40.3704C44.9372 40.3704 45.0624 40.3704 45.1875 40.3496C45.2917 40.3287 45.4377 40.3079 45.5837 40.287C45.6671 40.287 45.7296 40.2245 45.7296 40.1202ZM41.3506 40.0994V36.763C41.3506 36.4502 41.3298 36.1582 41.2672 35.8663C41.2255 35.5952 41.1212 35.345 40.9961 35.1365C40.871 34.9279 40.6833 34.7611 40.454 34.6569C40.2246 34.5317 39.9326 34.4692 39.5573 34.4692C39.2445 34.4692 38.9526 34.5109 38.7023 34.5943C38.4521 34.6777 38.2019 34.8028 37.91 35.0113V34.7611C37.91 34.6986 37.8891 34.6569 37.8474 34.6151C37.8057 34.5734 37.764 34.5526 37.7014 34.5526H36.5754C36.5128 34.5526 36.4711 34.5734 36.4294 34.6151C36.3877 34.6569 36.3669 34.6986 36.3669 34.7611V40.0994C36.3669 40.1619 36.3877 40.2036 36.4294 40.2453C36.4711 40.287 36.5128 40.3079 36.5754 40.3079H37.7848C37.8474 40.3079 37.8891 40.287 37.9308 40.2453C37.9725 40.2036 37.9934 40.1619 37.9934 40.0994V36.1582C38.1602 36.0748 38.327 35.9914 38.4938 35.9289C38.6398 35.8663 38.8066 35.8454 38.9526 35.8454C39.0985 35.8454 39.2237 35.8663 39.3279 35.8872C39.4322 35.908 39.4947 35.9706 39.5573 36.0331C39.6199 36.1165 39.6407 36.1999 39.6616 36.3251C39.6824 36.4502 39.6824 36.5961 39.6824 36.763V40.0994C39.6824 40.1619 39.7033 40.2036 39.745 40.2453C39.7867 40.287 39.8284 40.3079 39.8909 40.3079H41.1004C41.1629 40.3079 41.2046 40.287 41.2464 40.2453C41.3298 40.2036 41.3506 40.1411 41.3506 40.0994ZM33.7603 37.7847C33.7603 38.598 33.4684 39.015 32.8636 39.015C32.5717 39.015 32.3423 38.9108 32.1964 38.7022C32.0504 38.4937 31.967 38.1809 31.967 37.7847V37.0757C31.967 36.6587 32.0504 36.3668 32.1964 36.1582C32.3423 35.9497 32.5717 35.8454 32.8636 35.8454C33.4475 35.8454 33.7603 36.2625 33.7603 37.0757V37.7847ZM35.3868 37.0757C35.3868 36.6795 35.3242 36.3042 35.22 35.9914C35.1157 35.6786 34.9489 35.4075 34.7404 35.1782C34.5318 34.9488 34.2608 34.782 33.948 34.6569C33.6352 34.5317 33.2807 34.4692 32.8636 34.4692C32.4466 34.4692 32.0921 34.5317 31.7793 34.6569C31.4665 34.782 31.1954 34.9488 30.9869 35.1782C30.7784 35.4075 30.6116 35.6786 30.5073 35.9914C30.4031 36.3042 30.3405 36.6795 30.3405 37.0757V37.7847C30.3405 38.1809 30.4031 38.5563 30.5073 38.8691C30.6116 39.1818 30.7784 39.4529 30.9869 39.6823C31.1954 39.9117 31.4665 40.0785 31.7793 40.2036C32.0921 40.3287 32.4466 40.3913 32.8636 40.3913C33.2807 40.3913 33.6352 40.3287 33.948 40.2036C34.2608 40.0785 34.5318 39.9117 34.7404 39.6823C34.9489 39.4529 35.1157 39.1818 35.22 38.8691C35.3242 38.5563 35.3868 38.1809 35.3868 37.7847V37.0757ZM29.7983 40.0159V39.1193C29.7983 39.0567 29.7775 39.015 29.7358 38.9942C29.6941 38.9733 29.6524 38.9525 29.5898 38.9525H29.569C29.3813 38.9733 29.1936 38.9942 29.0268 38.9942C28.86 38.9942 28.6306 39.015 28.3387 39.015C28.2344 39.015 28.1093 38.9942 28.0259 38.9525C27.9216 38.9108 27.8382 38.8482 27.7548 38.7648C27.6714 38.6814 27.6297 38.5563 27.588 38.4103C27.5463 38.2643 27.5254 38.0767 27.5254 37.8473V37.0132C27.5254 36.7838 27.5463 36.5961 27.588 36.4502C27.6297 36.3042 27.6922 36.1791 27.7548 36.0957C27.8382 36.0123 27.9216 35.9497 28.0259 35.908C28.1301 35.8663 28.2344 35.8454 28.3387 35.8454C28.6306 35.8454 28.86 35.8454 29.0268 35.8663C29.1936 35.8872 29.3813 35.8872 29.569 35.908H29.5898C29.6524 35.908 29.6941 35.8872 29.7358 35.8663C29.7775 35.8454 29.7983 35.8037 29.7983 35.7412V34.8445C29.7983 34.7611 29.7775 34.7194 29.7566 34.6986C29.7149 34.6777 29.6732 34.636 29.5898 34.6151C29.4438 34.5734 29.277 34.5526 29.0476 34.5109C28.8183 34.4692 28.568 34.4692 28.2552 34.4692C27.5463 34.4692 26.9832 34.6777 26.5453 35.1156C26.1283 35.5535 25.8989 36.1791 25.8989 37.0132V37.8473C25.8989 38.6605 26.1074 39.307 26.5453 39.7449C26.9624 40.1828 27.5463 40.3913 28.2552 40.3913C28.5472 40.3913 28.8183 40.3704 29.0476 40.3496C29.277 40.3079 29.4438 40.287 29.5898 40.2453C29.6732 40.2245 29.7149 40.2036 29.7566 40.1619C29.7983 40.1411 29.7983 40.0785 29.7983 40.0159ZM24.8771 40.0994V36.763C24.8771 36.4502 24.8563 36.1582 24.7937 35.8663C24.752 35.5952 24.6478 35.345 24.5226 35.1365C24.3975 34.9279 24.2099 34.7611 23.9805 34.6569C23.7511 34.5317 23.4592 34.4692 23.0838 34.4692C22.771 34.4692 22.4791 34.5109 22.2289 34.5943C21.9786 34.6777 21.7284 34.8028 21.4365 35.0113V34.7611C21.4365 34.6986 21.4156 34.6569 21.3739 34.6151C21.3322 34.5734 21.2905 34.5526 21.228 34.5526H20.1019C20.0394 34.5526 19.9977 34.5734 19.9559 34.6151C19.9142 34.6569 19.8934 34.6986 19.8934 34.7611V40.0994C19.8934 40.1619 19.9142 40.2036 19.9559 40.2453C19.9977 40.287 20.0394 40.3079 20.1019 40.3079H21.3114C21.3739 40.3079 21.4156 40.287 21.4573 40.2453C21.499 40.2036 21.5199 40.1619 21.5199 40.0994V36.1582C21.6867 36.0748 21.8535 35.9914 22.0203 35.9289C22.1663 35.8663 22.3331 35.8454 22.4791 35.8454C22.6251 35.8454 22.7502 35.8663 22.8544 35.8872C22.9587 35.908 23.0213 35.9706 23.0838 36.0331C23.1464 36.1165 23.1672 36.1999 23.1881 36.3251C23.2089 36.4502 23.2089 36.5961 23.2089 36.763V40.0994C23.2089 40.1619 23.2298 40.2036 23.2715 40.2453C23.3132 40.287 23.3549 40.3079 23.4175 40.3079H24.6269C24.6895 40.3079 24.7312 40.287 24.7729 40.2453C24.8354 40.2036 24.8771 40.1411 24.8771 40.0994ZM17.12 38.9525C16.9949 39.015 16.8698 39.0567 16.7238 39.0984C16.5778 39.1401 16.4319 39.161 16.2859 39.161C16.0774 39.161 15.9106 39.1401 15.8063 39.0776C15.702 39.015 15.6603 38.8899 15.6603 38.6605V38.5771C15.6603 38.452 15.6812 38.3477 15.702 38.2643C15.7229 38.1809 15.7855 38.0975 15.848 38.035C15.9106 37.9724 16.0148 37.9307 16.1191 37.889C16.2234 37.8681 16.3693 37.8473 16.557 37.8473H17.12V38.9525ZM18.7257 36.5127C18.7257 36.1374 18.6631 35.8246 18.5588 35.5744C18.4546 35.3241 18.2878 35.1156 18.1001 34.9488C17.8916 34.782 17.6622 34.6569 17.3702 34.5943C17.0783 34.5109 16.7447 34.4692 16.3902 34.4692C16.0565 34.4692 15.7229 34.49 15.4101 34.5317C15.0973 34.5734 14.8471 34.6151 14.6594 34.6777C14.5343 34.7194 14.4717 34.782 14.4717 34.9071V35.7203C14.4717 35.7829 14.4926 35.8246 14.5134 35.8663C14.5552 35.8872 14.5969 35.908 14.6386 35.908H14.6803C14.7637 35.908 14.8679 35.8872 14.9722 35.8872C15.0973 35.8872 15.2224 35.8663 15.3893 35.8663C15.5352 35.8663 15.702 35.8454 15.8689 35.8454C16.0357 35.8454 16.2025 35.8454 16.3485 35.8454C16.5778 35.8454 16.7655 35.8872 16.8906 35.9706C17.0157 36.054 17.0992 36.2416 17.0992 36.5336V36.8881H16.557C15.702 36.8881 15.0556 37.0132 14.6803 37.2843C14.3049 37.5554 14.0964 37.9933 14.0964 38.5771V38.6605C14.0964 38.9942 14.1381 39.2653 14.2424 39.4738C14.3466 39.7032 14.4717 39.87 14.6386 40.0159C14.8054 40.1411 14.9722 40.2453 15.1807 40.3079C15.3893 40.3704 15.5978 40.3913 15.8272 40.3913C16.1191 40.3913 16.3902 40.3496 16.5987 40.2662C16.8072 40.1828 17.0157 40.0785 17.2243 39.9325V40.0994C17.2243 40.1619 17.2451 40.2036 17.2868 40.2453C17.3285 40.287 17.3702 40.3079 17.4328 40.3079H18.5588C18.6214 40.3079 18.6631 40.287 18.7048 40.2453C18.7465 40.2036 18.7674 40.1619 18.7674 40.0994V36.5127H18.7257ZM11.5524 38.0975C11.5524 38.3686 11.4481 38.598 11.2605 38.7439C11.0728 38.8899 10.6974 38.9733 10.197 38.9733H10.0302C9.94675 38.9733 9.86334 38.9733 9.77993 38.9733C9.69652 38.9733 9.61311 38.9733 9.5297 38.9733H9.36288V37.0966H10.4889C10.8851 37.0966 11.177 37.18 11.323 37.3677C11.469 37.5554 11.5524 37.7639 11.5524 37.9933V38.0975ZM11.5107 35.1156C11.5107 35.2199 11.4898 35.3241 11.469 35.4284C11.4273 35.5327 11.3856 35.6161 11.3022 35.6786C11.2188 35.7412 11.1145 35.8037 10.9894 35.8454C10.8643 35.8871 10.6974 35.908 10.4889 35.908H9.36288V34.1772C9.40459 34.1772 9.44629 34.1772 9.50885 34.1772C9.57141 34.1772 9.65482 34.1772 9.73823 34.1772H9.9676H10.1344C10.6557 34.1772 11.0102 34.2398 11.2188 34.3649C11.4273 34.49 11.5315 34.6986 11.5315 34.9696V35.1156H11.5107ZM13.2206 37.9933C13.2206 37.6388 13.1372 37.3468 12.9704 37.0966C12.8035 36.8464 12.595 36.6378 12.3239 36.5127C12.595 36.3876 12.8035 36.1791 12.9495 35.9289C13.0955 35.6578 13.1789 35.3658 13.1789 35.0531V34.8654C13.1789 34.4692 13.0955 34.1355 12.9495 33.8645C12.8035 33.5934 12.5742 33.3849 12.3031 33.218C12.032 33.0512 11.6984 32.9469 11.3022 32.8635C10.906 32.801 10.4889 32.7593 10.0093 32.7593C9.84249 32.7593 9.67567 32.7593 9.50885 32.7593C9.34203 32.7593 9.17521 32.7801 9.00839 32.7801C8.84157 32.7801 8.6956 32.801 8.54963 32.8218C8.40367 32.8427 8.2994 32.8427 8.21599 32.8635C8.02832 32.9052 7.88235 32.9469 7.79894 33.0512C7.71553 33.1346 7.67383 33.3014 7.67383 33.5308V39.6197C7.67383 39.8491 7.71553 39.9951 7.79894 40.0994C7.88235 40.1828 8.02832 40.2453 8.21599 40.287C8.32026 40.3079 8.44537 40.3287 8.57049 40.3287C8.71645 40.3496 8.86242 40.3496 9.02924 40.3704C9.19606 40.3704 9.36288 40.3913 9.5297 40.3913C9.69652 40.3913 9.88419 40.3913 10.051 40.3913C10.4889 40.3913 10.906 40.3496 11.2813 40.287C11.6567 40.2245 12.0111 40.0994 12.2822 39.9325C12.5742 39.7657 12.7827 39.5363 12.9704 39.2444C13.1372 38.9525 13.2206 38.5771 13.2206 38.1392V37.9933Z" fill="#004E91"/>
</svg>
