<svg width="68" height="45" viewBox="0 0 68 45" fill="none" xmlns="http://www.w3.org/2000/svg">
<g clip-path="url(#clip0_713_34179)">
<path d="M45.0039 2.57743L36.932 1.90035L9.81348 1.49239V43.2203H38.7609L48.4071 40.597L54.9733 34.9049L58.1851 25.9516V15.6075L53.382 7.29648L45.0039 2.57743Z" fill="white"/>
<path d="M10.6701 2.19266V41.9364H34.8167C49.3978 41.9364 57.3297 35.1443 57.3297 22.0137C57.3297 8.52002 48.7319 2.19266 34.8167 2.19266H10.6701ZM34.8167 0.130005C56.1997 0.130005 59.3925 13.842 59.3925 22.0137C59.3925 36.192 50.6652 44 34.8167 44C34.8167 44 9.12431 44 8.60693 44C8.60693 43.4806 8.60693 0.648145 8.60693 0.130005C9.12431 0.130005 34.8167 0.130005 34.8167 0.130005Z" fill="#0A0B09"/>
<path d="M25.5674 15.8518C25.5674 17.0946 25.5674 19.0941 25.5674 20.3364C26.2483 20.3364 26.9439 20.3364 26.9439 20.3364C27.8976 20.3364 28.7785 20.0607 28.7785 18.0589C28.7785 16.1026 27.7982 15.8518 26.9439 15.8518C26.9439 15.8518 26.2483 15.8518 25.5674 15.8518ZM48.5294 13.6213H50.756C50.756 13.6213 50.756 18.6979 50.756 20.3364C51.2498 20.3364 52.6058 20.3364 54.0555 20.3364C53.1506 8.15183 43.5653 5.51929 34.8555 5.51929H25.5693V13.6259H26.9439C29.4499 13.6259 31.0069 15.3253 31.0069 18.0589C31.0069 20.8793 29.4873 22.5628 26.9439 22.5628H25.5693V38.7836H34.8555C49.0167 38.7836 53.9447 32.2074 54.1188 22.5628H48.5294V13.6213ZM42.3256 18.6106H43.9365L43.1999 16.0828H43.0661L42.3256 18.6106ZM38.8509 22.5655L41.5473 13.621H44.7151L47.4107 22.5655H45.0928L44.5875 20.8352H41.6749L41.1681 22.5655H38.8509ZM37.7816 20.3364V22.5628H32.2731V13.6247H37.6038V15.8503C37.6038 15.8503 35.7067 15.8503 34.5 15.8503C34.5 16.1572 34.5 16.509 34.5 16.8864H37.4354V19.1114H34.5C34.5 19.5583 34.5 19.9796 34.5 20.3364C35.7416 20.3364 37.7816 20.3364 37.7816 20.3364Z" fill="#D50172"/>
<path d="M22.6537 18.09C22.6537 20.7436 20.5036 22.8949 17.85 22.8949C15.1976 22.8949 13.0454 20.7436 13.0454 18.09C13.0454 15.4384 15.1976 13.2862 17.85 13.2862C20.5036 13.2862 22.6537 15.4384 22.6537 18.09ZM13.9965 38.7763H21.7263V25.0159H13.9965V38.7763Z" fill="black"/>
</g>
<defs>
<clipPath id="clip0_713_34179">
<rect width="68" height="44" fill="white" transform="translate(0 0.0650024)"/>
</clipPath>
</defs>
</svg>
