<svg width="52" height="44" viewBox="0 0 52 44" fill="none" xmlns="http://www.w3.org/2000/svg">
<path d="M37.0039 2.57743L28.932 1.90035L1.81348 1.49239V43.2203H30.7609L40.4071 40.597L46.9733 34.9049L50.1851 25.9516V15.6075L45.382 7.29648L37.0039 2.57743Z" fill="white"/>
<path d="M2.67008 2.19266V41.9364H26.8167C41.3978 41.9364 49.3297 35.1443 49.3297 22.0137C49.3297 8.52002 40.7319 2.19266 26.8167 2.19266H2.67008ZM26.8167 0.130005C48.1997 0.130005 51.3925 13.842 51.3925 22.0137C51.3925 36.192 42.6652 44 26.8167 44C26.8167 44 1.12431 44 0.606934 44C0.606934 43.4806 0.606934 0.648145 0.606934 0.130005C1.12431 0.130005 26.8167 0.130005 26.8167 0.130005Z" fill="#0A0B09"/>
<path d="M17.5674 15.8518C17.5674 17.0946 17.5674 19.0941 17.5674 20.3364C18.2483 20.3364 18.9439 20.3364 18.9439 20.3364C19.8976 20.3364 20.7785 20.0607 20.7785 18.0589C20.7785 16.1026 19.7982 15.8518 18.9439 15.8518C18.9439 15.8518 18.2483 15.8518 17.5674 15.8518ZM40.5294 13.6213H42.756C42.756 13.6213 42.756 18.6979 42.756 20.3364C43.2498 20.3364 44.6058 20.3364 46.0555 20.3364C45.1506 8.15183 35.5653 5.51929 26.8555 5.51929H17.5693V13.6259H18.9439C21.4499 13.6259 23.0069 15.3253 23.0069 18.0589C23.0069 20.8793 21.4873 22.5628 18.9439 22.5628H17.5693V38.7836H26.8555C41.0167 38.7836 45.9447 32.2074 46.1188 22.5628H40.5294V13.6213ZM34.3256 18.6106H35.9365L35.1999 16.0828H35.0661L34.3256 18.6106ZM30.8509 22.5655L33.5473 13.621H36.7151L39.4107 22.5655H37.0928L36.5875 20.8352H33.6749L33.1681 22.5655H30.8509ZM29.7816 20.3364V22.5628H24.2731V13.6247H29.6038V15.8503C29.6038 15.8503 27.7067 15.8503 26.5 15.8503C26.5 16.1572 26.5 16.509 26.5 16.8864H29.4354V19.1114H26.5C26.5 19.5583 26.5 19.9796 26.5 20.3364C27.7416 20.3364 29.7816 20.3364 29.7816 20.3364Z" fill="#D50172"/>
<path d="M14.6537 18.09C14.6537 20.7436 12.5036 22.8949 9.84997 22.8949C7.19764 22.8949 5.04541 20.7436 5.04541 18.09C5.04541 15.4384 7.19764 13.2862 9.84997 13.2862C12.5036 13.2862 14.6537 15.4384 14.6537 18.09ZM5.99646 38.7763H13.7263V25.0159H5.99646V38.7763Z" fill="black"/>
</svg>
