<svg width="68" height="44" viewBox="0 0 68 44" fill="none" xmlns="http://www.w3.org/2000/svg">
<path d="M33.7 36C37.5 32.5 39.9 27.5 39.9 22C39.9 16.4 37.5 11.4 33.7 8.00001C30.3 5.00001 25.9 3.10001 21 3.10001C10.5 3.10001 2 11.6 2 22C2 32.5 10.5 41 21 41C25.9 40.9 30.3 39 33.7 36Z" fill="#3362AB"/>
<path d="M33.7002 36C37.5002 32.5 39.9002 27.5 39.9002 22C39.9002 16.4 37.5002 11.4 33.7002 8" fill="#3362AB"/>
<path d="M33.7002 36C37.5002 32.5 39.9002 27.5 39.9002 22C39.9002 16.4 37.5002 11.4 33.7002 8" stroke="#3362AB" stroke-width="0.3097"/>
<path d="M46.3998 3C41.4998 3 36.9998 4.89999 33.6998 7.89999C32.9998 8.49999 32.3998 9.19999 31.7998 9.89999H35.5998C36.0998 10.5 36.5998 11.2 36.9998 11.9H30.2998C29.8998 12.5 29.4998 13.2 29.1998 13.9H38.0998C38.3998 14.6 38.6998 15.2 38.8998 15.9H28.3998C28.1998 16.6 27.9998 17.2 27.7998 17.9H39.3998C39.6998 19.2 39.7998 20.5 39.7998 21.9C39.7998 24 39.4998 26 38.7998 27.9H28.2998C28.4998 28.6 28.7998 29.3 29.0998 29.9H37.9998C37.6998 30.6 37.2998 31.3 36.8998 31.9H30.1998C30.5998 32.6 31.0998 33.3 31.5998 33.9H35.3998C34.7998 34.6 34.1998 35.3 33.4998 35.9C36.8998 38.9 41.2998 40.8 46.1998 40.8C56.6998 40.8 65.0998 32.3 65.0998 21.8C65.3998 11.5 56.8998 3 46.3998 3Z" fill="#C9191B"/>
<path d="M18.5999 26.6H16.1999L17.5999 19.2L14.3999 26.6H12.2999L11.8999 19.3L10.4999 26.6H8.3999L10.1999 17H13.8999L14.0999 23L16.6999 17H20.4999L18.5999 26.6Z" fill="white"/>
<path d="M44.9999 26.6C44.3999 26.8 43.7999 26.9 43.2999 26.9C42.0999 26.9 41.3999 26.3 41.3999 25.2C41.3999 25 41.3999 24.7 41.4999 24.5L41.5999 23.7L41.6999 23.1L42.7999 17.1H45.0999L44.7999 18.9H45.9999L45.6999 20.8H44.4999L43.8999 24.1C43.8999 24.2 43.8999 24.4 43.8999 24.4C43.8999 24.8 44.1999 25 44.6999 25C44.9999 25 45.1999 25 45.2999 24.9L44.9999 26.6Z" fill="white"/>
<path d="M51.7998 18.9C51.5998 18.8 51.5998 18.8 51.4998 18.8C51.3998 18.8 51.2998 18.8 51.2998 18.8C51.1998 18.8 51.0998 18.8 50.9998 18.8C50.1998 18.8 49.6998 19.1 48.8998 20.1L49.0998 18.9H47.1998L45.7998 26.7H48.1998C48.9998 21.9 49.3998 21.1 50.4998 21.1C50.5998 21.1 50.6998 21.1 50.7998 21.1L51.0998 21.2L51.7998 18.9Z" fill="white"/>
<path d="M35.6002 21.3C35.6002 22.3 36.2002 23 37.4002 23.5C38.4002 23.9 38.5002 24 38.5002 24.4C38.5002 24.9 38.1002 25.1 37.1002 25.1C36.4002 25.1 35.7002 25 35.0002 24.8L34.7002 26.6H34.8002L35.2002 26.7C35.3002 26.7 35.6002 26.8 35.8002 26.8C36.4002 26.8 36.8002 26.9 37.1002 26.9C39.6002 26.9 40.8002 26.1 40.8002 24.3C40.8002 23.2 40.3002 22.6 39.1002 22.1C38.1002 21.7 38.0002 21.6 38.0002 21.2C38.0002 20.8 38.4002 20.6 39.2002 20.6C39.7002 20.6 40.3002 20.6 40.9002 20.7L41.2002 18.9C40.6002 18.8 39.7002 18.7 39.1002 18.7C36.5002 18.7 35.6002 19.9 35.6002 21.3Z" fill="white"/>
<path d="M24.5998 23.2C24.2998 23.2 24.1998 23.2 24.0998 23.2C22.7998 23.2 22.0998 23.6 22.0998 24.4C22.0998 24.9 22.3998 25.2 22.8998 25.2C23.7998 25.1 24.4998 24.3 24.5998 23.2ZM26.2998 26.6H24.2998L24.3998 25.8C23.7998 26.4 22.9998 26.7 21.8998 26.7C20.5998 26.7 19.7998 25.8 19.7998 24.6C19.7998 22.7 21.2998 21.6 23.8998 21.6C24.1998 21.6 24.4998 21.6 24.8998 21.7C24.9998 21.4 24.9998 21.3 24.9998 21.2C24.9998 20.7 24.5998 20.5 23.4998 20.5C22.7998 20.5 22.0998 20.6 21.5998 20.7L21.2998 20.8L21.0998 20.9L21.3998 19.1C22.5998 18.8 23.2998 18.7 24.1998 18.7C26.1998 18.7 27.2998 19.5 27.2998 21C27.2998 21.4 27.2998 21.7 27.0998 22.5L26.5998 25.3L26.4998 25.8L26.3998 26.2V26.5L26.2998 26.6Z" fill="white"/>
<path d="M32.8001 21.8C32.8001 21.6 32.8001 21.5 32.8001 21.4C32.8001 20.8 32.4001 20.4 31.7001 20.4C30.9001 20.4 30.4001 20.9 30.2001 21.8H32.8001ZM34.0001 26.5C33.2001 26.7 32.4001 26.8 31.6001 26.8C29.0001 26.8 27.6001 25.6 27.6001 23.3C27.6001 20.6 29.3001 18.6 31.7001 18.6C33.6001 18.6 34.9001 19.7 34.9001 21.4C34.9001 22 34.8001 22.5 34.6001 23.3H29.9001C29.9001 23.4 29.9001 23.5 29.9001 23.5C29.9001 24.4 30.6001 24.9 32.0001 24.9C32.8001 24.9 33.6001 24.7 34.5001 24.4L34.0001 26.5Z" fill="white"/>
<path d="M56.6999 22.1C56.6999 21.3 56.3999 20.5 55.3999 20.5C54.1999 20.5 53.4999 21.9 53.4999 23.2C53.4999 24.3 53.9999 25 54.8999 25C55.3999 25 56.4999 24.3 56.6999 23.1C56.6999 22.8 56.6999 22.4 56.6999 22.1ZM59.1999 23.1C58.7999 25.7 56.9999 26.9 54.5999 26.9C51.8999 26.9 50.8999 25.3 50.8999 23.3C50.8999 20.5 52.6999 18.7 55.4999 18.7C57.9999 18.7 59.1999 20.2 59.1999 22.2C59.2999 22.6 59.2999 22.6 59.1999 23.1Z" fill="white"/>
</svg>
