<svg width="68" height="44" viewBox="0 0 68 44" fill="none" xmlns="http://www.w3.org/2000/svg">
<path d="M66 21.5C66 32.2 57.3 41 46.5 41C35.8 41 27 32.2 27 21.5C27 10.8 35.7 2 46.4 2C57.3 2 66 10.8 66 21.5Z" fill="#F9B50B"/>
<path d="M39.9 21.6C39.9 20.2 39.7 18.8 39.5 17.5H27.5C27.6 16.8 27.8 16.2 28 15.4H38.7C38.5 14.7 38.2 14 37.9 13.3H28.8C29.1 12.6 29.5 12 29.9 11.2H36.8C36.4 10.5 35.9 9.8 35.3 9.1H31.5C32.1 8.4 32.7 7.8 33.5 7.1C30.1 3.9 25.5 2 20.4 2C9.8 2.3 1 10.8 1 21.5C1 32.2 9.7 41 20.5 41C25.6 41 30.1 39 33.6 35.9C34.3 35.3 34.9 34.6 35.6 33.8H31.6C31.1 33.2 30.6 32.5 30.2 31.8H37C37.4 31.2 37.8 30.5 38.1 29.7H29C28.7 29.1 28.4 28.4 28.2 27.6H38.9C39.5 25.8 39.9 23.8 39.9 21.6Z" fill="#C8191C"/>
<path d="M27.3999 26.5L27.6999 24.7C27.5999 24.7 27.3999 24.8 27.1999 24.8C26.4999 24.8 26.3999 24.4 26.4999 24.2L27.0999 20.6H28.1999L28.4999 18.6H27.4999L27.6999 17.4H25.5999C25.5999 17.4 24.3999 24.2 24.3999 25C24.3999 26.2 25.0999 26.8 26.0999 26.8C26.6999 26.8 27.1999 26.6 27.3999 26.5Z" fill="white"/>
<path d="M28.1001 23.2C28.1001 26.1 30.1001 26.8 31.7001 26.8C33.2001 26.8 33.9001 26.5 33.9001 26.5L34.3001 24.5C34.3001 24.5 33.2001 25 32.1001 25C29.8001 25 30.2001 23.3 30.2001 23.3H34.4001C34.4001 23.3 34.7001 22 34.7001 21.4C34.7001 20.1 34.0001 18.4 31.7001 18.4C29.7001 18.3 28.1001 20.6 28.1001 23.2ZM31.7001 20.2C32.8001 20.2 32.6001 21.5 32.6001 21.6H30.3001C30.4001 21.5 30.6001 20.2 31.7001 20.2Z" fill="white"/>
<path d="M44.8001 26.5L45.2001 24.2C45.2001 24.2 44.2001 24.7 43.4001 24.7C42.0001 24.7 41.3001 23.6 41.3001 22.3C41.3001 19.8 42.5001 18.5 44.0001 18.5C45.0001 18.5 45.9001 19.1 45.9001 19.1L46.2001 16.9C46.2001 16.9 45.0001 16.4 43.8001 16.4C41.4001 16.4 39.1001 18.5 39.1001 22.4C39.1001 25 40.3001 26.7 42.8001 26.7C43.7001 26.8 44.8001 26.5 44.8001 26.5Z" fill="white"/>
<path d="M16.1002 18.3C14.7002 18.3 13.6002 18.7 13.6002 18.7L13.3002 20.5C13.3002 20.5 14.2002 20.1 15.6002 20.1C16.3002 20.1 16.9002 20.2 16.9002 20.8C16.9002 21.2 16.8002 21.3 16.8002 21.3H15.9002C14.1002 21.3 12.2002 22 12.2002 24.4C12.2002 26.3 13.4002 26.7 14.2002 26.7C15.6002 26.7 16.3002 25.8 16.4002 25.8L16.3002 26.6H18.0002L18.8002 20.9C18.8002 18.4 16.8002 18.3 16.1002 18.3ZM16.5002 22.9C16.5002 23.2 16.3002 24.9 15.1002 24.9C14.5002 24.9 14.3002 24.4 14.3002 24.1C14.3002 23.6 14.6002 22.9 16.2002 22.9C16.4002 22.9 16.5002 22.9 16.5002 22.9Z" fill="white"/>
<path d="M20.7998 26.7C21.2998 26.7 23.8998 26.8 23.8998 24C23.8998 21.4 21.3998 21.9 21.3998 20.9C21.3998 20.4 21.7998 20.2 22.4998 20.2C22.7998 20.2 23.8998 20.3 23.8998 20.3L24.1998 18.4C24.1998 18.4 23.4998 18.2 22.1998 18.2C20.6998 18.2 19.0998 18.8 19.0998 20.9C19.0998 23.3 21.6998 23.1 21.6998 24C21.6998 24.6 20.9998 24.7 20.4998 24.7C19.5998 24.7 18.5998 24.4 18.5998 24.4L18.2998 26.3C18.4998 26.5 19.0998 26.7 20.7998 26.7Z" fill="white"/>
<path d="M62.0001 16.7L61.6001 19.5C61.6001 19.5 60.8001 18.5 59.6001 18.5C57.7001 18.5 56.1001 20.8 56.1001 23.5C56.1001 25.2 56.9001 26.9 58.7001 26.9C59.9001 26.9 60.7001 26.1 60.7001 26.1L60.6001 26.8H62.7001L64.2001 16.9L62.0001 16.7ZM61.0001 22.1C61.0001 23.2 60.5001 24.7 59.3001 24.7C58.6001 24.7 58.2001 24.1 58.2001 23C58.2001 21.3 58.9001 20.3 59.9001 20.3C60.6001 20.4 61.0001 20.9 61.0001 22.1Z" fill="white"/>
<path d="M4.7998 26.6L5.9998 19.2L6.1998 26.6H7.5998L10.2998 19.2L9.1998 26.6H11.3998L13.0998 16.7H9.6998L7.5998 22.8L7.4998 16.7H4.4998L2.7998 26.6H4.7998Z" fill="white"/>
<path d="M36.8 26.6C37.4 23.2 37.5 20.4 39 20.9C39.2 19.6 39.5 19 39.7 18.5H39.3C38.4 18.5 37.6 19.7 37.6 19.7L37.8 18.6H35.8L34.5 26.6H36.8V26.6Z" fill="white"/>
<path d="M49.6002 18.3C48.2002 18.3 47.1002 18.7 47.1002 18.7L46.8002 20.5C46.8002 20.5 47.7002 20.1 49.1002 20.1C49.8002 20.1 50.4002 20.2 50.4002 20.8C50.4002 21.2 50.3002 21.3 50.3002 21.3H49.4002C47.6002 21.3 45.7002 22 45.7002 24.4C45.7002 26.3 46.9002 26.7 47.7002 26.7C49.1002 26.7 49.8002 25.8 49.9002 25.8L49.8002 26.6H51.7002L52.5002 20.9C52.5002 18.4 50.3002 18.3 49.6002 18.3ZM50.1002 22.9C50.1002 23.2 49.9002 24.9 48.7002 24.9C48.1002 24.9 47.9002 24.4 47.9002 24.1C47.9002 23.6 48.2002 22.9 49.8002 22.9C50.0002 22.9 50.0002 22.9 50.1002 22.9Z" fill="white"/>
<path d="M54.0998 26.6C54.6998 23.2 54.7998 20.4 56.2998 20.9C56.4998 19.6 56.7998 19 56.9998 18.5H56.5998C55.6998 18.5 54.8998 19.7 54.8998 19.7L55.0998 18.6H53.0998L51.7998 26.6H54.0998V26.6Z" fill="white"/>
</svg>
