<svg width="68" height="21" viewBox="0 0 68 21" fill="none" xmlns="http://www.w3.org/2000/svg">
<path d="M63.4267 0.298248H59.1518C57.8594 0.298248 56.8652 0.69591 56.2688 1.98831L48.1167 20.579H53.8828C53.8828 20.579 54.8769 18.0936 55.0758 17.4971C55.6723 17.4971 61.3389 17.4971 62.1343 17.4971C62.3331 18.193 62.8302 20.4796 62.8302 20.4796H67.9998L63.4267 0.298248ZM56.6664 13.3217C57.1635 12.1287 58.8536 7.65498 58.8536 7.65498C58.8536 7.7544 59.3506 6.462 59.5495 5.76609L59.9471 7.55557C59.9471 7.55557 61.0407 12.4269 61.2395 13.4211H56.6664V13.3217Z" fill="#3362AB"/>
<path d="M48.5146 13.9181C48.5146 18.0936 44.7368 20.8772 38.8713 20.8772C36.3859 20.8772 33.9999 20.3801 32.7075 19.7837L33.5028 15.2105L34.1987 15.5088C35.9882 16.3041 37.1812 16.6024 39.3683 16.6024C40.959 16.6024 42.6491 16.0059 42.6491 14.6141C42.6491 13.7193 41.9531 13.1228 39.766 12.1287C37.6783 11.1345 34.8947 9.54387 34.8947 6.66083C34.8947 2.68421 38.7719 0 44.2397 0C46.3274 0 48.1169 0.397661 49.2105 0.894738L48.4151 5.26901L48.0175 4.87135C47.0233 4.47369 45.7309 4.07603 43.842 4.07603C41.7543 4.17544 40.7602 5.07018 40.7602 5.86551C40.7602 6.76024 41.9531 7.45615 43.842 8.35089C47.0233 9.84212 48.5146 11.5322 48.5146 13.9181Z" fill="#3362AB"/>
<path d="M0 0.497088L0.0994153 0.0994263H8.64913C9.84212 0.0994263 10.7369 0.497088 11.0351 1.78949L12.924 10.7369C11.0351 5.96493 6.66083 2.08773 0 0.497088Z" fill="#F9B50B"/>
<path d="M24.9532 0.298268L16.304 20.4796H10.4385L5.46777 3.57897C9.04673 5.86553 12.0292 9.44448 13.1228 11.9299L13.7192 14.0176L19.0877 0.198853H24.9532V0.298268Z" fill="#3362AB"/>
<path d="M27.2398 0.198853H32.7076L29.2281 20.4796H23.7603L27.2398 0.198853Z" fill="#3362AB"/>
</svg>
