<svg width="68" height="44" viewBox="0 0 68 44" fill="none" xmlns="http://www.w3.org/2000/svg">
<path d="M63.4267 12.2982H59.1518C57.8594 12.2982 56.8652 12.6959 56.2688 13.9883L48.1167 32.579H53.8828C53.8828 32.579 54.8769 30.0936 55.0758 29.4971C55.6723 29.4971 61.3389 29.4971 62.1343 29.4971C62.3331 30.193 62.8302 32.4796 62.8302 32.4796H67.9998L63.4267 12.2982ZM56.6664 25.3217C57.1635 24.1287 58.8536 19.655 58.8536 19.655C58.8536 19.7544 59.3506 18.462 59.5495 17.7661L59.9471 19.5556C59.9471 19.5556 61.0407 24.4269 61.2395 25.4211H56.6664V25.3217Z" fill="#3362AB"/>
<path d="M48.5146 25.9181C48.5146 30.0936 44.7368 32.8772 38.8713 32.8772C36.3859 32.8772 33.9999 32.3801 32.7075 31.7837L33.5028 27.2105L34.1987 27.5088C35.9882 28.3041 37.1812 28.6024 39.3683 28.6024C40.959 28.6024 42.6491 28.0059 42.6491 26.6141C42.6491 25.7193 41.9531 25.1228 39.766 24.1287C37.6783 23.1345 34.8947 21.5439 34.8947 18.6608C34.8947 14.6842 38.7719 12 44.2397 12C46.3274 12 48.1169 12.3977 49.2105 12.8947L48.4151 17.269L48.0175 16.8714C47.0233 16.4737 45.7309 16.076 43.842 16.076C41.7543 16.1754 40.7602 17.0702 40.7602 17.8655C40.7602 18.7602 41.9531 19.4562 43.842 20.3509C47.0233 21.8421 48.5146 23.5322 48.5146 25.9181Z" fill="#3362AB"/>
<path d="M0 12.4971L0.0994153 12.0994H8.64913C9.84212 12.0994 10.7369 12.4971 11.0351 13.7895L12.924 22.7369C11.0351 17.9649 6.66083 14.0877 0 12.4971Z" fill="#F9B50B"/>
<path d="M24.9532 12.2983L16.304 32.4796H10.4385L5.46777 15.579C9.04673 17.8655 12.0292 21.4445 13.1228 23.9299L13.7192 26.0176L19.0877 12.1989H24.9532V12.2983Z" fill="#3362AB"/>
<path d="M27.2398 12.1989H32.7076L29.2281 32.4796H23.7603L27.2398 12.1989Z" fill="#3362AB"/>
</svg>
