<?xml version="1.0" encoding="utf-8"?>
<!-- Generator: Adobe Illustrator 27.1.1, SVG Export Plug-In . SVG Version: 6.00 Build 0)  -->
<svg version="1.1" id="Layer_1" xmlns="http://www.w3.org/2000/svg" xmlns:xlink="http://www.w3.org/1999/xlink" x="0px" y="0px"
	 viewBox="0 0 28.8 28.8" style="enable-background:new 0 0 28.8 28.8;" xml:space="preserve">
<style type="text/css">
	.st0{fill:url(#SVGID_1_);}
	.st1{fill:#DB4437;}
	.st2{fill:#FFFFFF;fill-opacity:0.2;}
	.st3{fill:#3E2723;fill-opacity:0.2;}
	.st4{fill:url(#SVGID_00000106108670805434965790000011353733875956257691_);}
	.st5{opacity:0.4;fill:#FFFFFF;enable-background:new    ;}
	.st6{opacity:0.1;fill:#3E2723;enable-background:new    ;}
	.st7{opacity:0.3671;}
	.st8{fill:#A6554E;}
	.st9{fill:#EEEEEE;}
	.st10{opacity:0.4873;}
	.st11{fill:#A8544D;}
</style>
<radialGradient id="SVGID_1_" cx="-272.6028" cy="420.752" r="1" gradientTransform="matrix(27.3076 0 0 -27.3076 7450.6729 11493.4902)" gradientUnits="userSpaceOnUse">
	<stop  offset="0" style="stop-color:#FFFFFF;stop-opacity:0.1"/>
	<stop  offset="1" style="stop-color:#FFFFFF;stop-opacity:0"/>
</radialGradient>
<path class="st0" d="M14.4,28.8c8,0,14.4-6.4,14.4-14.4S22.4,0,14.4,0S0,6.4,0,14.4S6.4,28.8,14.4,28.8z"/>
<path class="st1" d="M14.4,28.8c8,0,14.4-6.4,14.4-14.4S22.4,0,14.4,0S0,6.4,0,14.4S6.4,28.8,14.4,28.8z"/>
<path class="st2" d="M14.4,0.2c7.9,0,14.4,6.4,14.4,14.3v-0.1c0-8-6.4-14.4-14.4-14.4C6.4,0,0,6.4,0,14.4v0.1
	C0,6.6,6.5,0.2,14.4,0.2z"/>
<path class="st3" d="M14.4,28.6C6.5,28.6,0,22.2,0,14.3v0.1c0,8,6.4,14.4,14.4,14.4c8,0,14.4-6.4,14.4-14.4v-0.1
	C28.8,22.2,22.3,28.6,14.4,28.6z"/>
<linearGradient id="SVGID_00000021092538151941113430000001616730810243752127_" gradientUnits="userSpaceOnUse" x1="7.2259" y1="13.4602" x2="26.1186" y2="6.7472" gradientTransform="matrix(1 0 0 -1 0 28.6901)">
	<stop  offset="0" style="stop-color:#3E2723;stop-opacity:0.2"/>
	<stop  offset="1" style="stop-color:#3E2723;stop-opacity:2.000000e-02"/>
</linearGradient>
<path style="fill:url(#SVGID_00000021092538151941113430000001616730810243752127_);" d="M28.7,15.8c-1.3-1.3-5.4-5.4-5.4-5.4h-2.2
	v3.3H19l-4.1-4.1h0c-1.1-1.1-2.6-1.7-4.4-1.7c-2.6,0-4.8,1.5-5.9,3.6c-0.4,0.9-0.7,1.9-0.7,2.9c0,1.1,0.2,2.1,0.7,2.9
	C5,18,5.4,18.6,6,19.2L7.8,21l7.8,7.8C22.5,28.2,28.1,22.7,28.7,15.8z"/>
<path class="st5" d="M10.5,13.4h6.1c0.1,0.4,0.1,0.8,0.2,1.2v-0.1c0-0.5-0.1-0.9-0.2-1.3h-6.1V13.4z M10.5,8c1.7,0,3.2,0.6,4.3,1.6
	l0.1-0.1c-1.1-1-2.6-1.7-4.4-1.7c-3.6,0-6.5,2.9-6.5,6.5c0,0,0,0.1,0,0.1C4,10.9,6.9,8,10.5,8L10.5,8z M10.5,18.8
	c2.6,0,3.7-1.9,3.8-3.2h0c-0.2,1.3-1.3,3-3.8,3c-2.3,0-4.1-1.8-4.1-4.1c0,0,0,0.1,0,0.1C6.3,16.9,8.2,18.8,10.5,18.8L10.5,18.8z"/>
<path class="st6" d="M10.5,10.2c-2.3,0-4.1,1.9-4.1,4.2c0,0,0,0.1,0,0.1c0-2.3,1.9-4.1,4.1-4.1c1.3,0,2.2,0.6,2.7,1l1.7-1.7
	c0,0-0.1-0.1-0.1-0.1l-1.6,1.6C12.6,10.7,11.8,10.2,10.5,10.2L10.5,10.2z M10.5,20.9c-3.6,0-6.5-2.9-6.5-6.5c0,0,0,0.1,0,0.1
	c0,3.6,2.9,6.5,6.5,6.5c3.8,0,6.3-2.7,6.3-6.4v-0.1C16.7,18.3,14.2,20.9,10.5,20.9z M10.5,15.4v0.2h3.8c0-0.1,0-0.1,0-0.2H10.5z"/>
<g class="st7">
	<path class="st8" d="M14.9,16c-0.1,1.3-1.2,3.2-3.8,3.2c-2.3,0-4.1-1.9-4.1-4.2s1.8-4.2,4.1-4.2c1.3,0,2.2,0.6,2.7,1l1.7-1.7
		c-1.1-1-2.6-1.7-4.4-1.7c-3.6,0-6.5,2.9-6.5,6.5s2.9,6.5,6.5,6.5c3.8,0,6.3-2.7,6.3-6.4c0-0.5-0.1-0.9-0.2-1.3h-6.1V16L14.9,16
		L14.9,16z"/>
</g>
<path class="st9" d="M14.3,15.4c-0.1,1.3-1.2,3.2-3.8,3.2c-2.3,0-4.1-1.9-4.1-4.2c0-2.3,1.8-4.2,4.1-4.2c1.3,0,2.2,0.6,2.7,1
	l1.7-1.7c-1.1-1-2.6-1.7-4.4-1.7c-3.6,0-6.5,2.9-6.5,6.5s2.9,6.5,6.5,6.5c3.8,0,6.3-2.7,6.3-6.4c0-0.5-0.1-0.9-0.2-1.3h-6.1v2.2
	H14.3L14.3,15.4z"/>
<g class="st10">
	<path class="st11" d="M26.6,13.9h-2.8v-2.8h-2.2v2.8h-2.8v2.2h2.8V19h2.2v-2.8h2.8"/>
</g>
<path class="st9" d="M26.2,13.2h-2.8v-2.8h-2.2v2.8h-2.8v2.2h2.8v2.8h2.2v-2.8h2.8"/>
</svg>
