<svg width="18" height="20" viewBox="0 0 18 20" fill="none" xmlns="http://www.w3.org/2000/svg">
<path d="M18.0001 10.2115C18.0001 9.58763 17.9495 8.96037 17.8416 8.34659H9.18457V11.8809H14.142C13.9363 13.0207 13.2753 14.0291 12.3074 14.6699V16.9631H15.265C17.0018 15.3646 18.0001 13.0039 18.0001 10.2115Z" fill="#4285F4"/>
<path d="M9.18412 19.1787C11.6595 19.1787 13.747 18.366 15.268 16.9631L12.3103 14.6698C11.4875 15.2296 10.4252 15.5466 9.1875 15.5466C6.79309 15.5466 4.76289 13.9313 4.03445 11.7594H0.982422V14.1235C2.54048 17.2227 5.71391 19.1787 9.18412 19.1787Z" fill="#34A853"/>
<path d="M4.03132 11.7594C3.64686 10.6196 3.64686 9.38525 4.03132 8.24538V5.88132H0.98266C-0.31909 8.4747 -0.31909 11.5301 0.98266 14.1235L4.03132 11.7594Z" fill="#FBBC04"/>
<path d="M9.18412 4.45479C10.4926 4.43455 11.7573 4.92692 12.7049 5.83073L15.3253 3.21037C13.6661 1.65231 11.4639 0.795722 9.18412 0.822701C5.71391 0.822701 2.54048 2.7787 0.982422 5.88132L4.03108 8.24538C4.75615 6.07017 6.78971 4.45479 9.18412 4.45479Z" fill="#EA4335"/>
</svg>
