<?xml version="1.0" encoding="utf-8"?>
<!-- Generator: Adobe Illustrator 27.1.1, SVG Export Plug-In . SVG Version: 6.00 Build 0)  -->
<svg version="1.1" id="Layer_1" xmlns="http://www.w3.org/2000/svg" xmlns:xlink="http://www.w3.org/1999/xlink" x="0px" y="0px"
	 viewBox="0 0 179.3 42.3" style="enable-background:new 0 0 179.3 42.3;" xml:space="preserve">
<style type="text/css">
	.st0{fill:#0837B6;}
	.st1{fill:#BE0E0B;}
	.st2{fill:#D8787B;}
	.st3{fill:#728DD4;}
</style>
<path class="st0" d="M23,42.3l-3.6,0l1.8-2.9L23,42.3z"/>
<path class="st1" d="M23,0c-0.6,1-1.2,1.9-1.8,2.9L19.4,0L23,0z"/>
<path class="st0" d="M29.6,31.6L23,42.3l-1.8-2.9l4.8-7.9L29.6,31.6z"/>
<path class="st0" d="M42.3,31.6l-3.6,0l-6.4-10.4H36L42.3,31.6z"/>
<path class="st1" d="M29.5,10.6c-2.2,3.5-4.3,7-6.5,10.6h-3.6c2.2-3.5,4.3-7,6.5-10.5L29.5,10.6z"/>
<path class="st1" d="M29.5,10.6l-3.6,0l-4.7-7.7C21.8,1.9,22.4,1,23,0L29.5,10.6L29.5,10.6z"/>
<path class="st2" d="M21.2,2.9c-4.3,7-8.6,14-12.9,20.9c-1.6,2.6-3.2,5.2-4.8,7.8c-0.4,0-0.7,0-1.1,0H0c4.9-8,9.8-15.9,14.7-23.9
	c1.6-2.6,3.2-5.1,4.7-7.7L21.2,2.9L21.2,2.9z"/>
<path class="st3" d="M21.2,39.4l-1.8,2.9l-6.6-10.7c0.4,0,0.7,0,1.1,0h2.5L21.2,39.4L21.2,39.4z"/>
<path class="st2" d="M4,10.6l-1.9,3.1l-1.8-2.9l-0.1-0.2H4z"/>
<path class="st0" d="M60.5,28.6L54.8,22v6.6h-2.4V13.8h2.4v6.7l5.7-6.7h3l-6.4,7.4l6.5,7.4L60.5,28.6L60.5,28.6z"/>
<path class="st0" d="M71.5,27.7c-1.2-0.6-2.1-1.5-2.7-2.7c-0.7-1.2-1-2.5-1-3.9c0-1.4,0.3-2.7,1-3.9c0.7-1.1,1.6-2,2.7-2.7
	c1.2-0.6,2.4-1,3.8-1c1.4,0,2.7,0.3,3.8,1c1.2,0.6,2.1,1.5,2.7,2.7c0.7,1.1,1,2.4,1,3.9c0,1.4-0.3,2.7-1,3.9
	c-0.7,1.2-1.6,2.1-2.7,2.7c-1.2,0.6-2.4,1-3.8,1C73.9,28.7,72.6,28.4,71.5,27.7z M77.9,25.9c0.8-0.4,1.4-1.1,1.8-1.9
	c0.4-0.8,0.6-1.8,0.6-2.9c0-1.1-0.2-2-0.6-2.9c-0.4-0.8-1-1.4-1.8-1.9c-0.8-0.4-1.6-0.7-2.6-0.7c-1,0-1.8,0.2-2.6,0.7
	c-0.8,0.4-1.4,1.1-1.8,1.9c-0.4,0.8-0.6,1.8-0.6,2.9c0,1.1,0.2,2,0.6,2.9c0.4,0.8,1,1.5,1.8,1.9c0.8,0.4,1.6,0.7,2.6,0.7
	C76.2,26.6,77.1,26.4,77.9,25.9z"/>
<path class="st0" d="M90.1,28.2c-0.8-0.3-1.4-0.8-1.9-1.5c-0.5-0.6-0.7-1.4-0.7-2.2h2.6c0.1,0.6,0.3,1.2,0.8,1.6
	c0.4,0.4,1.1,0.6,1.9,0.6c0.8,0,1.5-0.2,2-0.6c0.5-0.4,0.7-0.9,0.7-1.6c0-0.5-0.1-0.9-0.4-1.2c-0.3-0.3-0.7-0.6-1.1-0.7
	c-0.4-0.2-1-0.4-1.8-0.6c-1-0.3-1.7-0.5-2.3-0.8c-0.6-0.3-1.1-0.7-1.5-1.2c-0.4-0.6-0.6-1.3-0.6-2.2c0-0.8,0.2-1.6,0.6-2.2
	c0.4-0.6,1-1.1,1.8-1.5c0.8-0.3,1.6-0.5,2.7-0.5c1.4,0,2.6,0.4,3.5,1.1s1.4,1.7,1.5,2.9h-2.7c0-0.5-0.3-1-0.8-1.4
	c-0.5-0.4-1.1-0.6-1.8-0.6c-0.7,0-1.3,0.2-1.7,0.5c-0.4,0.4-0.7,0.9-0.7,1.5c0,0.5,0.1,0.8,0.4,1.1c0.3,0.3,0.6,0.5,1.1,0.7
	c0.4,0.2,1,0.4,1.7,0.6c1,0.3,1.8,0.5,2.4,0.8c0.6,0.3,1.1,0.7,1.6,1.2c0.4,0.6,0.6,1.3,0.6,2.2c0,0.7-0.2,1.5-0.6,2.1
	c-0.4,0.7-1,1.2-1.8,1.6c-0.8,0.4-1.7,0.6-2.7,0.6C91.8,28.7,90.9,28.5,90.1,28.2L90.1,28.2z"/>
<path class="st0" d="M115.3,13.8v14.8h-2.4v-6.5h-6.9v6.5h-2.4V13.8h2.4v6.3h6.9v-6.3H115.3z"/>
<path class="st0" d="M123.7,15.8v4.3h5.1v2h-5.1v4.5h5.7v2h-8.2V13.8h8.2v2L123.7,15.8L123.7,15.8z"/>
<path class="st0" d="M142.8,28.6l-3.4-5.9h-1.8v5.9h-2.4V13.8h5.1c1.1,0,2.1,0.2,2.9,0.6c0.8,0.4,1.4,0.9,1.8,1.6
	c0.4,0.7,0.6,1.4,0.6,2.2c0,1-0.3,1.8-0.8,2.6c-0.6,0.8-1.4,1.3-2.6,1.6l3.7,6.1H142.8L142.8,28.6z M137.6,20.7h2.7
	c0.9,0,1.6-0.2,2.1-0.7c0.5-0.5,0.7-1.1,0.7-1.8c0-0.8-0.2-1.4-0.7-1.8c-0.5-0.4-1.1-0.6-2.1-0.6h-2.7V20.7L137.6,20.7z"/>
<path class="st0" d="M150.7,25.3v-1.8l7.1-9.9h2.9v9.6h2v2.1h-2v3.2h-2.4v-3.2H150.7z M158.5,16.1l-5,7.1h5V16.1z"/>
<path class="st0" d="M172.3,28.6c-0.6-0.1-1.1-0.3-1.7-0.5c-0.9-0.4-1.6-1-2.1-1.9c-0.5-0.8-0.8-1.9-0.8-3.1v-9.4h2.4v9.4
	c0,1.1,0.3,2,0.9,2.5c0.3,0.3,0.7,0.5,1.2,0.7c0.4,0.1,0.8,0.2,1.3,0.2c0.4,0,0.8,0,1.2-0.1c0.5-0.1,1-0.4,1.3-0.7
	c0.6-0.6,0.9-1.4,0.9-2.5v-9.4h2.4v9.4c0,1.2-0.3,2.2-0.8,3.1c-0.5,0.8-1.2,1.5-2.1,1.9c-0.5,0.3-1.1,0.4-1.7,0.5
	c-0.4,0-0.7,0-1.1,0C173.1,28.7,172.7,28.6,172.3,28.6L172.3,28.6z"/>
</svg>
