<svg width="184" height="50" viewBox="0 0 184 50" fill="none" xmlns="http://www.w3.org/2000/svg">
<path d="M24.9698 46.1659L21.4131 46.1359L23.1791 43.2556L24.9698 46.1659Z" fill="#0837B6"/>
<path d="M24.9698 3.83667C24.3738 4.80678 23.7751 5.7769 23.1791 6.74932L21.4131 3.86901L24.9698 3.83667Z" fill="#BE0E0B"/>
<path d="M31.5631 35.4183L24.9718 46.1657L23.1812 43.2554L27.9982 35.4021L31.5631 35.4183Z" fill="#0837B6"/>
<path d="M44.3325 35.4046L40.7567 35.3885L34.3813 25.0013H37.9545L44.3325 35.4046Z" fill="#0837B6"/>
<path d="M31.4745 14.4409C29.3175 17.9633 27.1523 21.4812 24.9898 25.0013H21.4331C23.5928 21.4858 25.7553 17.9749 27.9096 14.4571L31.4745 14.4409Z" fill="#BE0E0B"/>
<path d="M31.4756 14.4407L27.9107 14.4568L23.1812 6.74675C23.7771 5.77664 24.3758 4.80653 24.9718 3.83411L31.4756 14.4383V14.4407Z" fill="#BE0E0B"/>
<path d="M23.1818 6.74737C18.8924 13.7229 14.603 20.6985 10.3136 27.6741C8.72526 30.2587 7.1369 32.8411 5.54853 35.4257C5.18767 35.4257 4.82953 35.4257 4.46866 35.4257H2C6.89632 27.4708 11.7926 19.5113 16.6862 11.554C18.2609 8.99018 19.8383 6.42862 21.413 3.86707L23.1791 6.74737H23.1818Z" fill="#D8787B"/>
<path d="M23.1794 43.2558L21.4134 46.1361L14.833 35.4371C15.1939 35.4371 15.552 35.4371 15.9129 35.4371H18.3679L23.1794 43.2581V43.2558Z" fill="#728DD4"/>
<path d="M6.00503 14.4409L4.11047 17.5314L2.33894 14.6026L2.23779 14.4409H6.00503Z" fill="#D8787B"/>
<path d="M62.4665 32.3965L56.754 25.7927V32.3965H54.333V17.6384H56.754V24.3706L62.4873 17.6384H65.5221L59.109 25.0262L65.6262 32.3931H62.463L62.4665 32.3965Z" fill="#0837B6"/>
<path d="M73.4745 31.5779C72.3195 30.9328 71.4073 30.0345 70.7344 28.883C70.0615 27.728 69.7251 26.4308 69.7251 24.9879C69.7251 23.5451 70.0615 22.2479 70.7344 21.1033C71.4073 19.9553 72.3195 19.0604 73.4745 18.4188C74.6294 17.7736 75.8919 17.451 77.2654 17.451C78.6389 17.451 79.9223 17.7736 81.0772 18.4188C82.2322 19.0639 83.1409 19.9587 83.8069 21.1033C84.4728 22.2514 84.8058 23.5451 84.8058 24.9879C84.8058 26.4308 84.4728 27.7315 83.8069 28.883C83.1409 30.038 82.2322 30.9363 81.0772 31.5779C79.9223 32.2231 78.6528 32.5456 77.2654 32.5456C75.8781 32.5456 74.6294 32.2231 73.4745 31.5779ZM79.8772 29.7744C80.6402 29.3269 81.2402 28.6922 81.6703 27.8633C82.1004 27.0343 82.3189 26.077 82.3189 24.9845C82.3189 23.8919 82.1039 22.9381 81.6703 22.1195C81.2368 21.2975 80.6402 20.6697 79.8772 20.2293C79.1141 19.7888 78.2435 19.5703 77.2654 19.5703C76.2873 19.5703 75.4168 19.7888 74.6537 20.2293C73.8907 20.6697 73.2906 21.2975 72.8606 22.1195C72.4305 22.9416 72.212 23.8954 72.212 24.9845C72.212 26.0736 72.427 27.0343 72.8606 27.8633C73.2906 28.6922 73.8907 29.3269 74.6537 29.7744C75.4168 30.2218 76.2873 30.4438 77.2654 30.4438C78.2435 30.4438 79.1141 30.2218 79.8772 29.7744Z" fill="#0837B6"/>
<path d="M92.1269 32.0252C91.3327 31.6783 90.7118 31.1858 90.2574 30.5511C89.8031 29.9129 89.5776 29.1707 89.5776 28.3209H92.1685C92.224 28.9591 92.4772 29.4828 92.9212 29.8921C93.3686 30.3048 93.9929 30.5095 94.8011 30.5095C95.6092 30.5095 96.289 30.3083 96.7538 29.906C97.222 29.5036 97.4544 28.9834 97.4544 28.3452C97.4544 27.8492 97.3087 27.4469 97.0209 27.1347C96.7295 26.8226 96.3688 26.5832 95.9387 26.4133C95.5052 26.2433 94.9086 26.0595 94.1455 25.8618C93.1813 25.6051 92.4009 25.3485 91.8009 25.0883C91.2009 24.8282 90.6875 24.4189 90.2609 23.8674C89.8378 23.316 89.6227 22.5807 89.6227 21.6581C89.6227 20.8083 89.8343 20.0661 90.2609 19.4279C90.6875 18.7897 91.2806 18.3041 92.0437 17.9642C92.8067 17.6243 93.6912 17.4543 94.697 17.4543C96.126 17.4543 97.2983 17.8116 98.2105 18.5261C99.1227 19.2406 99.6291 20.2221 99.7297 21.4673H97.0555C97.0139 20.9297 96.7573 20.4684 96.2925 20.0869C95.8243 19.7054 95.2103 19.5146 94.4438 19.5146C93.7501 19.5146 93.1848 19.6915 92.7443 20.0453C92.3038 20.399 92.0853 20.9089 92.0853 21.5748C92.0853 22.0292 92.224 22.4003 92.498 22.6882C92.7755 22.9795 93.1258 23.2085 93.549 23.3784C93.9756 23.5484 94.5548 23.7322 95.2901 23.9299C96.2682 24.2004 97.0625 24.4675 97.6799 24.738C98.2938 25.0086 98.8175 25.4213 99.2511 25.9797C99.6811 26.5381 99.8996 27.2838 99.8996 28.2203C99.8996 28.9695 99.6985 29.6771 99.2961 30.343C98.8938 31.0089 98.3042 31.5431 97.5342 31.9454C96.7642 32.3477 95.852 32.5489 94.8045 32.5489C93.8126 32.5489 92.9212 32.3755 92.1304 32.0287L92.1269 32.0252Z" fill="#0837B6"/>
<path d="M117.31 17.6384V32.3965H114.889V25.9418H107.945V32.3965H105.524V17.6384H107.945V23.9648H114.889V17.6384H117.31Z" fill="#0837B6"/>
<path d="M125.674 19.5942V23.9262H130.769V25.8998H125.674V30.4226H131.408V32.3961H123.253V17.6172H131.408V19.5907H125.674V19.5942Z" fill="#0837B6"/>
<path d="M144.803 32.3965L141.404 26.4933H139.555V32.3965H137.134V17.6384H142.229C143.364 17.6384 144.321 17.8361 145.108 18.235C145.892 18.6304 146.482 19.1611 146.87 19.827C147.259 20.4929 147.453 21.2352 147.453 22.0572C147.453 23.0214 147.172 23.8955 146.613 24.6793C146.055 25.4666 145.195 26.0008 144.033 26.2817L147.685 32.3965H144.796H144.803ZM139.559 24.5614H142.233C143.138 24.5614 143.821 24.3359 144.283 23.8816C144.744 23.4272 144.973 22.8202 144.973 22.0537C144.973 21.2872 144.747 20.6906 144.293 20.2606C143.839 19.8305 143.152 19.612 142.233 19.612H139.559V24.5579V24.5614Z" fill="#0837B6"/>
<path d="M152.703 29.171V27.3466L159.837 17.4581H162.768V27.0691H164.742V29.171H162.768V32.4001H160.389V29.171H152.703ZM160.496 19.9207L155.484 27.0691H160.496V19.9207Z" fill="#0837B6"/>
<path d="M174.286 32.4416C173.7 32.3445 173.145 32.1746 172.628 31.9283C171.758 31.5156 171.067 30.8947 170.558 30.0588C170.048 29.2264 169.791 28.2032 169.791 26.9997V17.6384H172.215V27.0448C172.215 28.1616 172.51 29.0044 173.096 29.5698C173.422 29.8854 173.821 30.1143 174.286 30.2531C174.661 30.3675 175.084 30.423 175.549 30.423C175.975 30.423 176.36 30.3779 176.707 30.2843C177.231 30.1455 177.668 29.9097 178.022 29.5698C178.608 29.0079 178.903 28.1651 178.903 27.0448V17.6384H181.327V26.9997C181.327 28.2032 181.06 29.2264 180.54 30.0588C180.016 30.8913 179.315 31.5156 178.438 31.9283C177.897 32.1815 177.321 32.3549 176.711 32.452C176.357 32.4763 175.982 32.4902 175.59 32.4902C175.129 32.4902 174.695 32.4729 174.29 32.4416H174.286Z" fill="#0837B6"/>
</svg>
