<svg width="24" height="24" viewBox="0 0 24 24" fill="none" xmlns="http://www.w3.org/2000/svg">
<rect x="9" width="15" height="15" rx="7.5" fill="#0837B6"/>
<rect x="9" width="15" height="15" rx="7.5" fill="white" fill-opacity="0.9"/>
<g clip-path="url(#clip0_801_23584)">
<mask id="mask0_801_23584" style="mask-type:luminance" maskUnits="userSpaceOnUse" x="2" y="2" width="20" height="20">
<path d="M21.75 2.25H2.25V21.75H21.75V2.25Z" fill="white"/>
</mask>
<g mask="url(#mask0_801_23584)">
<path d="M19.176 2.34033C19.0364 2.40381 18.8333 2.58154 18.5667 2.87353C18.3001 3.16553 18.5984 3.73047 19.4617 4.56836C19.8933 4.9873 20.3249 5.40625 20.7566 5.82519C20.9026 5.67285 21.0486 5.52051 21.1946 5.36816C21.4866 5.06348 21.6516 4.86035 21.6897 4.75879C21.7278 4.65723 21.7405 4.49854 21.7278 4.28271C21.7151 4.0669 21.677 3.90185 21.6135 3.7876C21.55 3.67334 21.3279 3.42578 20.947 3.04492C20.5662 2.66406 20.2932 2.43555 20.1282 2.35938C19.9631 2.2832 19.7981 2.24512 19.6331 2.24512C19.468 2.24512 19.3157 2.27686 19.176 2.34033ZM16.2244 5.19678C15.488 5.9458 14.6311 6.43458 13.6536 6.6631C12.676 6.89161 12.0603 7.05028 11.8064 7.13917C11.5525 7.22802 11.2478 7.37401 10.8923 7.57716C10.5369 7.78027 10.2195 8.00879 9.9402 8.26271C9.80054 8.38965 9.66088 8.51659 9.52125 8.64357C10.4861 9.61476 11.4509 10.5859 12.4158 11.5571C13.3806 12.5283 14.3454 13.4995 15.3103 14.4707C15.4436 14.3311 15.5769 14.1914 15.7102 14.0518C15.9768 13.7724 16.2117 13.4551 16.4148 13.0996C16.6179 12.7441 16.7576 12.4648 16.8338 12.2617C16.9099 12.0586 17.0686 11.4429 17.3098 10.4146C17.551 9.38624 18.0461 8.5039 18.7952 7.76759C19.1697 7.39941 19.5442 7.03124 19.9187 6.6631C19.487 6.23143 19.0554 5.79981 18.6238 5.36816C18.1921 4.93652 17.7605 4.50488 17.3289 4.07324C16.9607 4.44776 16.5925 4.82227 16.2244 5.19678ZM6.85524 11.3477C6.24586 11.9697 5.63647 12.5918 5.0271 13.2139C5.99829 14.1723 6.9695 15.1309 7.94069 16.0894C8.91188 17.0478 9.88307 18.0063 10.8543 18.9649C11.4636 18.3555 12.073 17.7461 12.6824 17.1367C13.9011 15.918 14.5105 15.2896 14.5105 15.2515C14.5105 15.2134 13.5393 14.2422 11.5969 12.3379C10.6257 11.3858 9.65455 10.4336 8.68336 9.48146C8.07399 10.1035 7.46461 10.7256 6.85524 11.3477ZM8.74049 12.5664C8.90552 12.5918 9.38795 13.0044 10.1878 13.8042C10.9876 14.604 11.4001 15.0864 11.4256 15.2515C11.4509 15.4165 11.4319 15.5498 11.3684 15.6514C11.3049 15.7529 11.197 15.8228 11.0447 15.8609C10.8923 15.8989 10.7717 15.8989 10.6829 15.8609C10.594 15.8228 10.156 15.4101 9.36891 14.6231C8.58179 13.8359 8.1692 13.3979 8.13112 13.3091C8.09303 13.2202 8.08031 13.125 8.09303 13.0234C8.10571 12.9219 8.13744 12.833 8.18825 12.7568C8.23902 12.6807 8.3025 12.6235 8.37868 12.5855C8.45485 12.5474 8.57543 12.541 8.74049 12.5664ZM3.40845 14.7564C2.88794 15.2768 2.58325 15.6133 2.49438 15.7656C2.40552 15.918 2.34204 16.064 2.30396 16.2036C2.26587 16.3432 2.24683 16.521 2.24683 16.7368C2.24683 16.9526 2.28491 17.1685 2.36108 17.3843C2.43726 17.6001 3.11011 18.3428 4.37964 19.6123C5.64917 20.8818 6.39185 21.5547 6.60768 21.6309C6.82347 21.707 7.03931 21.7451 7.25514 21.7451C7.47094 21.7451 7.68677 21.707 7.9026 21.6309C8.1184 21.5547 8.52466 21.2182 9.12135 20.6216C9.41968 20.3232 9.71801 20.0249 10.0164 19.7266C9.04518 18.7681 8.07399 17.8096 7.1028 16.8511C6.13161 15.8926 5.1604 14.9341 4.18921 13.9756C3.92896 14.2358 3.6687 14.4961 3.40845 14.7564Z" fill="#BE0E0B"/>
</g>
</g>
<defs>
<clipPath id="clip0_801_23584">
<rect width="19.5" height="19.5" fill="white" transform="translate(2.25 2.25)"/>
</clipPath>
</defs>
</svg>
