<svg width="24" height="24" viewBox="0 0 24 24" fill="none" xmlns="http://www.w3.org/2000/svg">
<rect x="9" width="15" height="15" rx="7.5" fill="#0837B6"/>
<rect x="9" width="15" height="15" rx="7.5" fill="white" fill-opacity="0.9"/>
<g clip-path="url(#clip0_801_23533)">
<path d="M8.01123 3.00586C7.87157 3.05664 7.81444 3.17725 7.83984 3.36768C7.85252 3.46289 7.86524 3.55811 7.87793 3.65332C8.00487 3.62793 8.13184 3.60254 8.25879 3.57715C8.38573 3.55176 8.5127 3.52637 8.63965 3.50098C8.6206 3.41846 8.60156 3.33594 8.58252 3.25342C8.54443 3.08838 8.47462 2.99317 8.37304 2.96777C8.27147 2.94238 8.15089 2.95508 8.01123 3.00586ZM8.354 4.20557C8.16357 4.24365 8.03027 4.29443 7.9541 4.35791C7.87793 4.42139 7.83348 4.51025 7.8208 4.62451C7.80811 4.73877 7.8208 4.91016 7.85888 5.13867C7.89697 5.36719 7.96678 5.729 8.06836 6.22411C8.16993 6.71922 8.32227 7.03027 8.52539 7.15721C8.7285 7.28419 8.89356 7.41113 9.0205 7.53807C9.14744 7.66505 9.31251 7.89356 9.51562 8.22362C9.71873 8.55371 9.8584 8.8584 9.93457 9.13768C10.0107 9.417 10.0488 9.72801 10.0488 10.0708C10.0488 10.4136 10.0298 10.6675 9.9917 10.8325C9.97265 10.915 9.95361 10.9976 9.93457 11.0801C10.6646 11.0801 11.3945 11.0801 12.1245 11.0801C13.5845 11.0801 14.3843 11.0039 14.5239 10.8515C14.5937 10.7754 14.6636 10.6992 14.7334 10.623C14.4414 10.4326 14.1494 10.2422 13.8574 10.0517C13.2734 9.67088 12.772 9.29002 12.353 8.90916C11.9341 8.52831 11.5913 8.18553 11.3247 7.88084C11.0581 7.57616 10.7851 7.22706 10.5059 6.83348C10.2266 6.43994 9.92188 5.91308 9.59179 5.25293C9.2617 4.59277 9.06495 4.24365 9.00146 4.20557C8.93797 4.16748 8.8618 4.14844 8.77295 4.14844C8.68409 4.14844 8.54443 4.16748 8.354 4.20557ZM13.5718 5.63379C13.2798 5.70996 13.0195 5.81787 12.791 5.95752C12.5625 6.09717 12.3594 6.26219 12.1816 6.45262C12.0039 6.64305 11.8706 6.83348 11.7817 7.02391C11.6929 7.21434 11.8325 7.49998 12.2007 7.88084C12.5689 8.2617 12.8735 8.55371 13.1147 8.75682C13.3559 8.95997 13.6289 9.16944 13.9336 9.38524C14.2383 9.60107 14.5303 9.78514 14.8096 9.93748C15.0889 10.0898 15.5586 9.83595 16.2187 9.17577C16.8789 8.51562 17.1963 8.09032 17.1709 7.89989C17.1455 7.70946 17.0757 7.4873 16.9614 7.23338C16.8472 6.9795 16.6631 6.71922 16.4092 6.45262C16.1553 6.18602 15.8887 5.98291 15.6094 5.84326C15.3301 5.70361 15.0952 5.61475 14.9048 5.57666C14.7144 5.53857 14.5176 5.51953 14.3145 5.51953C14.1113 5.51953 13.8638 5.55762 13.5718 5.63379ZM19.5132 6.75731C19.3735 6.92237 19.3735 7.10008 19.5132 7.29051C19.6528 7.48094 19.7671 7.69041 19.856 7.91893C19.9448 8.14745 20.0083 8.35692 20.0464 8.54735C20.0845 8.73778 20.1035 8.96629 20.1035 9.23289C20.1035 9.4995 20.0654 9.78514 19.9893 10.0898C19.9131 10.3945 19.8306 10.6358 19.7417 10.8135C19.6973 10.9024 19.6528 10.9912 19.6084 11.0801C19.7353 11.0801 19.8623 11.0801 19.9893 11.0801C20.2432 11.0801 20.4336 10.896 20.5605 10.5278C20.6875 10.1597 20.7637 9.87403 20.7891 9.67088C20.8145 9.46777 20.8208 9.23289 20.8081 8.96629C20.7954 8.69969 20.751 8.42041 20.6748 8.1284C20.5986 7.83644 20.5161 7.5952 20.4272 7.40477C20.3384 7.21434 20.2432 7.04295 20.1416 6.89061C20.04 6.73827 19.9448 6.63673 19.856 6.58592C19.7671 6.53515 19.6528 6.59228 19.5132 6.75731ZM5.7832 7.23338C5.58008 7.28419 5.37696 7.36036 5.17383 7.4619C4.9707 7.56347 4.77393 7.69677 4.5835 7.8618C4.39307 8.02687 4.23438 8.19825 4.10742 8.37596C3.98047 8.55371 3.85986 8.82031 3.74561 9.17577C3.63135 9.53126 3.57422 9.82959 3.57422 10.0708C3.57422 10.312 3.59961 10.5342 3.65039 10.7373C3.70117 10.9404 4.64697 11.0483 6.48779 11.061C8.3286 11.0737 9.28075 10.9658 9.34423 10.7373C9.40772 10.5088 9.43945 10.2866 9.43945 10.0708C9.43945 9.85499 9.40772 9.62011 9.34423 9.3662C9.28075 9.11231 9.18553 8.87108 9.05859 8.64256C8.93165 8.41405 8.77295 8.20457 8.58252 8.01414C8.39209 7.82372 8.20166 7.67137 8.01123 7.55711C7.8208 7.44286 7.59228 7.34764 7.32568 7.27147C7.05908 7.1953 6.78612 7.15721 6.50683 7.15721C6.22755 7.15721 5.98633 7.18261 5.7832 7.23338ZM18.0659 8.20457C17.8184 8.46485 17.5708 8.7251 17.3232 8.98534C17.6851 9.02342 18.0469 9.06151 18.4087 9.09959C18.7705 9.13768 19.1323 9.17577 19.4941 9.21385C19.4624 9.04247 19.4306 8.87108 19.3989 8.69969C19.3354 8.35692 19.2593 8.09668 19.1704 7.91893C19.0816 7.74122 18.999 7.61424 18.9228 7.53807C18.8848 7.49998 18.8467 7.4619 18.8086 7.42381C18.561 7.68409 18.3135 7.94433 18.0659 8.20457ZM6.56396 7.82372C6.62745 7.83644 6.68458 7.86816 6.73535 7.91893C6.78612 7.96974 6.81152 8.09032 6.81152 8.28075C6.81152 8.47118 6.78612 8.59815 6.73535 8.66161C6.68458 8.7251 6.60841 8.75682 6.50683 8.75682C6.40526 8.75682 6.32909 8.73146 6.27832 8.68065C6.22755 8.62988 6.20215 8.50294 6.20215 8.29979C6.20215 8.09668 6.24659 7.96338 6.33545 7.89989C6.4243 7.83644 6.50047 7.81103 6.56396 7.82372ZM5.17383 8.395C5.25 8.40772 5.34522 8.47118 5.45947 8.58543C5.57373 8.69969 5.63721 8.80763 5.6499 8.90916C5.6626 9.01074 5.6499 9.08691 5.61182 9.13768C5.57373 9.18849 5.50391 9.22021 5.40234 9.23289C5.30078 9.24562 5.18018 9.18849 5.04053 9.06151C4.90088 8.93457 4.83106 8.82031 4.83106 8.71873C4.83106 8.6172 4.86914 8.53467 4.94531 8.47118C5.02148 8.40772 5.09766 8.38232 5.17383 8.395ZM7.87793 8.41405C7.9795 8.41405 8.05567 8.43945 8.10644 8.49022C8.15721 8.54103 8.18261 8.61084 8.18261 8.69969C8.18261 8.78858 8.12548 8.89648 8.01123 9.02342C7.89697 9.1504 7.79539 9.22021 7.70654 9.23289C7.61768 9.24562 7.54784 9.23925 7.49707 9.21385C7.4463 9.18849 7.40821 9.11864 7.38281 9.00438C7.35741 8.89012 7.40821 8.76318 7.53515 8.62352C7.66209 8.4839 7.77635 8.41405 7.87793 8.41405ZM17.0376 10.3374C17.1011 10.8325 17.4121 11.0801 17.9707 11.0801C18.5293 11.0801 18.8594 11.0103 18.9609 10.8706C19.0625 10.731 19.164 10.5342 19.2656 10.2803C19.3672 10.0264 19.4053 9.88672 19.3799 9.86131C19.3545 9.83595 18.9419 9.78514 18.1421 9.70897C17.7422 9.67088 17.3423 9.6328 16.9424 9.59471C16.9741 9.84227 17.0059 10.0898 17.0376 10.3374ZM4.75488 9.80418C4.9834 9.8169 5.11035 9.89308 5.13574 10.0327C5.16113 10.1724 5.14209 10.2676 5.07861 10.3183C5.01514 10.3692 4.88184 10.3882 4.67871 10.3755C4.47559 10.3628 4.35498 10.3374 4.31689 10.2993C4.27881 10.2612 4.25977 10.1914 4.25977 10.0898C4.25977 9.98829 4.28516 9.91212 4.33594 9.86131C4.38672 9.81054 4.52637 9.7915 4.75488 9.80418ZM8.29687 9.78514C8.49998 9.78514 8.62696 9.81054 8.67773 9.86131C8.7285 9.91212 8.74754 9.99461 8.73486 10.1089C8.72218 10.2231 8.69041 10.2993 8.63965 10.3374C8.58888 10.3755 8.4619 10.3882 8.25879 10.3755C8.05567 10.3628 7.93505 10.3374 7.89697 10.2993C7.85888 10.2612 7.83348 10.2041 7.8208 10.1279C7.80811 10.0517 7.83348 9.97557 7.89697 9.8994C7.96046 9.82323 8.09376 9.78514 8.29687 9.78514ZM15.7617 10.5088C15.584 10.6992 15.4063 10.8896 15.2285 11.0801C15.438 11.0801 15.6475 11.0801 15.8569 11.0801C16.0664 11.0801 16.2759 11.0801 16.4853 11.0801C16.4663 10.8896 16.4473 10.6992 16.4282 10.5088C16.3901 10.1279 16.3584 9.93748 16.333 9.93748C16.3076 9.93748 16.1172 10.1279 15.7617 10.5088ZM3.04102 11.8037C2.96484 11.8799 2.9458 12.1973 2.98389 12.7558C3.02197 13.3144 3.11084 13.8477 3.25049 14.3555C3.39014 14.8633 3.56152 15.333 3.76465 15.7646C3.96778 16.1963 4.21533 16.6216 4.50732 17.0405C4.79932 17.4595 5.09131 17.8213 5.3833 18.126C5.67529 18.4306 5.94825 18.6846 6.20215 18.8877C6.45606 19.0908 6.83692 19.3447 7.34472 19.6494C7.85252 19.9541 8.10644 20.2334 8.10644 20.4873C8.10644 20.7412 8.14453 20.9126 8.2207 21.0014C8.29687 21.0903 9.57911 21.1284 12.0674 21.1157C14.5556 21.103 15.8252 21.0586 15.876 20.9824C15.9267 20.9062 15.9521 20.7412 15.9521 20.4873C15.9521 20.2334 15.9775 20.0811 16.0283 20.0303C16.0791 19.9795 16.2695 19.8716 16.5996 19.7065C16.9297 19.5415 17.2725 19.3257 17.6279 19.0591C17.9834 18.7925 18.3325 18.4815 18.6753 18.126C19.0181 17.7705 19.2973 17.4404 19.5132 17.1357C19.729 16.831 19.9258 16.5137 20.1035 16.1836C20.2813 15.8535 20.4272 15.5425 20.5415 15.2505C20.6558 14.9585 20.751 14.6729 20.8271 14.3935C20.9033 14.1143 20.9731 13.7651 21.0366 13.3462C21.1001 12.9272 21.1318 12.5845 21.1318 12.3179C21.1318 12.0513 21.0937 11.8799 21.0176 11.8037C20.9414 11.7275 17.9453 11.6894 12.0293 11.6894C6.11329 11.6894 3.11719 11.7275 3.04102 11.8037Z" fill="#BE0E0B"/>
</g>
<defs>
<clipPath id="clip0_801_23533">
<rect width="19.5" height="19.5" fill="white" transform="translate(2.25 2.25)"/>
</clipPath>
</defs>
</svg>
