<svg width="24" height="24" viewBox="0 0 24 24" fill="none" xmlns="http://www.w3.org/2000/svg">
<rect x="9" width="15" height="15" rx="7.5" fill="#0837B6"/>
<rect x="9" width="15" height="15" rx="7.5" fill="white" fill-opacity="0.9"/>
<path d="M6.72726 6.63359C7.18394 6.36443 7.88846 6.04985 8.27215 5.94041C8.68873 5.82159 9.21965 5.77118 9.54895 5.80353C9.92876 5.84673 10.2299 5.98813 10.5062 6.25026C10.7329 6.46338 11.1206 6.90839 11.3731 7.25309C11.7446 7.76586 11.9193 8.1706 12.3128 9.3842C12.5855 10.2156 12.8377 11.1412 12.8847 11.4308C12.9465 11.8552 12.913 12.0289 12.738 12.205C12.5335 12.4023 12.4534 12.4125 12.1523 12.2711C11.9732 12.1833 11.6497 11.922 11.4415 11.6909C11.2443 11.4567 10.6841 10.9473 10.2154 10.5507C9.74994 10.1657 8.70848 9.4652 7.91139 8.99805C7.05713 8.4967 6.23285 8.10045 5.8826 8.03619C5.5576 7.97736 5.29936 7.86161 5.3013 7.7853C5.31753 7.71753 5.4563 7.53905 5.60173 7.38393C5.76144 7.23736 6.26725 6.89106 6.72726 6.63359Z" fill="#BE0E0B"/>
<path d="M11.4544 5.62625C11.3529 5.47841 11.3977 5.42774 11.6937 5.34332C11.8944 5.29871 12.2366 5.25162 12.4615 5.2506C12.7194 5.2402 13.0753 5.36596 13.3855 5.58055C13.7278 5.8112 14.0946 6.2243 14.4858 6.81986C14.8067 7.32179 15.2582 8.11481 15.4814 8.60672C15.7157 9.0955 16.0313 9.95253 16.1625 10.4959C16.3681 11.2581 16.4055 11.6388 16.3257 12.0657C16.2708 12.3717 16.1043 12.7854 15.9469 12.9818C15.7404 13.2554 15.3615 13.4645 14.4925 13.826C13.8581 14.0953 13.1426 14.413 12.9147 14.5285C12.6869 14.644 11.9041 15.183 11.1609 15.7359C10.4176 16.2888 9.69825 16.7592 9.5667 16.7967C9.41322 16.8405 9.02537 16.6859 8.52178 16.375C8.08632 16.0951 7.21832 15.4209 6.60857 14.8624C5.99119 14.3188 5.21283 13.5432 4.87465 13.1472C4.41643 12.6213 4.20453 12.2524 4.00844 11.6896C3.82901 11.1852 3.76961 10.8107 3.80694 10.4844C3.85189 10.1433 3.9883 9.91496 4.40072 9.53216C4.70156 9.25695 5.0124 9.01676 5.08913 8.99488C5.16587 8.97299 5.44466 8.99449 5.72247 9.05415C6.00029 9.11381 6.6926 9.42144 7.24337 9.73155C7.79415 10.0417 8.68268 10.6216 9.22388 11.0229C9.75411 11.4272 10.3858 11.9794 10.6149 12.2424C10.855 12.5022 11.2556 12.8678 11.5162 13.0334C11.7801 13.2106 12.1637 13.3916 12.3657 13.435C12.7193 13.511 12.7927 13.4774 13.2218 13.153C13.4845 12.9518 13.7305 12.6922 13.7773 12.5652C13.8274 12.4499 13.8757 12.1205 13.8901 11.8386C13.8988 11.4951 13.7528 10.817 13.4055 9.64077C12.9616 8.12587 12.8344 7.84644 12.2387 6.87992C11.8692 6.29083 11.5206 5.73365 11.4544 5.62625Z" fill="#BE0E0B"/>
<path d="M14.7842 5.49727C14.7809 5.4856 14.8653 5.4489 14.9749 5.41764C15.0879 5.39805 15.248 5.37763 15.349 5.39932C15.4577 5.40621 15.7541 5.44794 16.0286 5.49592C16.303 5.54391 16.6414 5.64945 16.7733 5.73808C16.9053 5.82671 17.0825 5.99083 17.1849 6.10052C17.2873 6.2102 17.5239 6.74882 17.721 7.27346C17.9214 7.80978 18.2246 8.58195 18.3741 8.98127C18.5378 9.38914 18.7319 10.0283 18.8056 10.4113C18.9017 10.9143 18.8839 11.1845 18.7389 11.4658C18.6082 11.7556 18.4342 11.8936 18.0538 12.0147C17.7721 12.1077 17.5057 12.1711 17.4628 12.1454C17.4123 12.1346 17.3752 11.88 17.3787 11.6012C17.3822 11.3224 17.2338 10.5945 17.044 9.92885C16.8232 9.19632 16.5024 8.40393 16.17 7.77898C15.8862 7.24119 15.4514 6.50655 15.2209 6.1556C14.9795 5.80777 14.7876 5.50895 14.7842 5.49727Z" fill="#BE0E0B"/>
<path d="M18.9419 7.48084C18.8404 7.33299 18.7576 7.16721 18.7586 7.12906C18.7595 7.0909 19.2102 7.34116 19.782 7.68317C20.3394 8.01664 20.9797 8.51588 21.2088 8.77884C21.4689 9.10874 21.6731 9.49242 21.8097 9.97119C21.9462 10.45 21.978 10.7692 21.905 10.9289C21.8506 11.0707 21.6766 11.2087 21.5198 11.2408C21.374 11.2698 20.9746 11.2827 20.6486 11.262L20.0548 11.2167C19.3284 8.54493 19.0357 7.64349 18.9419 7.48084Z" fill="#BE0E0B"/>
<path d="M2.85502 12.9656L3.10549 12.3891L3.28214 12.7176C3.38261 12.9036 3.82557 13.4591 4.27379 13.95C4.72535 14.4525 5.54326 15.242 6.07918 15.7079C6.61844 16.1855 7.32588 16.7539 7.63603 16.9685L8.20248 17.3752C7.44871 18.0574 7.10401 18.3451 6.95622 18.4504C6.76935 18.571 6.57489 18.6097 6.37284 18.5663C6.19606 18.5283 5.6024 18.1925 5.05357 17.8061C4.50807 17.4314 3.82158 16.8948 3.52434 16.6008C3.13467 16.2321 2.91084 15.9045 2.72045 15.4032C2.50577 14.8583 2.46871 14.6037 2.52421 14.1333C2.57583 13.8155 2.70904 13.2851 2.85502 12.9656Z" fill="#BE0E0B"/>
<path d="M2.25642 17.1013L2.30901 16.7454L2.84966 17.3109C3.15023 17.6166 3.84672 18.1882 4.4208 18.5801C5.35458 19.2355 5.43936 19.325 5.29727 19.4918C5.21096 19.6048 4.94397 19.8325 4.71084 20.0126C4.46675 20.1959 4.10637 20.387 3.90905 20.4433C3.71172 20.4996 3.43293 20.4781 3.29 20.3926C3.12181 20.3017 2.92657 19.9912 2.72854 19.5047C2.56812 19.1085 2.38827 18.4779 2.31791 18.1066C2.26185 17.7437 2.23728 17.2835 2.25642 17.1013Z" fill="#BE0E0B"/>
</svg>
