<svg width="24" height="24" viewBox="0 0 24 24" fill="none" xmlns="http://www.w3.org/2000/svg">
<rect x="9" width="15" height="15" rx="7.5" fill="#0837B6"/>
<rect x="9" width="15" height="15" rx="7.5" fill="white" fill-opacity="0.9"/>
<g clip-path="url(#clip0_801_23569)">
<mask id="mask0_801_23569" style="mask-type:luminance" maskUnits="userSpaceOnUse" x="2" y="2" width="20" height="20">
<path d="M21.75 2.25H2.25V21.75H21.75V2.25Z" fill="white"/>
</mask>
<g mask="url(#mask0_801_23569)">
<path d="M14.5881 5.55765C14.1565 5.63382 13.7756 5.73539 13.4456 5.86234C13.1155 5.98929 12.7854 6.15433 12.4553 6.35744C12.1252 6.56059 11.8205 6.78911 11.5413 7.04299C11.262 7.29691 10.9954 7.59523 10.7415 7.93801C10.4875 8.28078 10.2844 8.61087 10.1321 8.92824C9.97973 9.24565 9.85279 9.59475 9.75122 9.97561C9.64964 10.3565 9.58619 10.7818 9.56079 11.2515C9.53539 11.7212 9.56079 12.1783 9.63696 12.6226C9.71313 13.0669 9.80835 13.4414 9.92261 13.7461C10.0369 14.0508 10.1828 14.3555 10.3606 14.6602C10.5383 14.9649 10.7859 15.295 11.1033 15.6504C11.4206 16.0059 11.7571 16.3106 12.1125 16.5645C12.468 16.8184 12.8552 17.0342 13.2742 17.2119C13.6931 17.3897 14.0994 17.5166 14.4929 17.5928C14.8865 17.669 15.2737 17.7071 15.6545 17.7071C16.0354 17.7071 16.4289 17.669 16.8352 17.5928C17.2415 17.5166 17.5652 17.4341 17.8064 17.3452C18.0476 17.2564 18.346 17.1104 18.7014 16.9072C19.0569 16.7041 19.3933 16.4629 19.7107 16.1836C20.0281 15.9043 20.2947 15.625 20.5105 15.3457C20.7263 15.0664 20.9231 14.7554 21.1008 14.4126C21.2786 14.0698 21.4246 13.6953 21.5388 13.2891C21.6531 12.8829 21.7229 12.5083 21.7483 12.1655C21.7737 11.8228 21.7546 11.607 21.6912 11.5181C21.6277 11.4292 21.5198 11.3531 21.3674 11.2896C21.2151 11.2261 21.0881 11.1436 20.9866 11.042C20.885 10.9405 20.8088 10.8389 20.7581 10.7373C20.7073 10.6358 20.6755 10.4707 20.6628 10.2422C20.6502 10.0137 20.6946 9.7979 20.7961 9.59475C20.8977 9.39163 20.9358 9.23293 20.9104 9.11867C20.885 9.00441 20.8279 8.91556 20.739 8.85207C20.6502 8.78862 20.5359 8.73781 20.3962 8.69973C20.2566 8.66164 20.1296 8.59183 20.0154 8.49025C19.9011 8.38872 19.8123 8.28078 19.7488 8.16652C19.6853 8.05227 19.6472 7.94437 19.6345 7.84279C19.6218 7.74126 19.5838 7.64604 19.5203 7.55715C19.4568 7.46829 19.3616 7.41116 19.2346 7.38576C19.1077 7.3604 18.9553 7.38576 18.7776 7.46193C18.5998 7.53811 18.4031 7.56351 18.1873 7.53811C17.9714 7.51274 17.7937 7.45561 17.6541 7.36672C17.5144 7.27786 17.4001 7.16361 17.3113 7.02395C17.2224 6.88432 17.1653 6.77006 17.1399 6.68117C17.1145 6.59232 17.1082 6.43997 17.1208 6.22414C17.1335 6.00833 17.1145 5.85599 17.0637 5.76712C17.0129 5.67826 16.905 5.60843 16.74 5.55765C16.575 5.50687 16.283 5.47513 15.864 5.46244C15.4451 5.44974 15.0198 5.48148 14.5881 5.55765ZM7.31372 6.45266C6.95826 6.51615 6.60913 6.61136 6.26636 6.7383C5.92358 6.86528 5.56811 7.04299 5.19995 7.2715C4.83179 7.50002 4.48901 7.76662 4.17163 8.07131C3.85425 8.376 3.60034 8.66164 3.40991 8.92824C3.21948 9.19484 3.02905 9.53762 2.83862 9.95656C2.64819 10.3755 2.50854 10.8008 2.41968 11.2324C2.33081 11.6641 2.28638 12.0831 2.28638 12.4893C2.28638 12.8955 2.32446 13.2891 2.40063 13.6699C2.47681 14.0508 2.60376 14.4507 2.78149 14.8696C2.95923 15.2886 3.17505 15.6758 3.42895 16.0313C3.68286 16.3868 3.93677 16.6851 4.19067 16.9263C4.44458 17.1675 4.72388 17.3897 5.02856 17.5928C5.33325 17.7959 5.68872 17.98 6.09497 18.145C6.50123 18.3101 6.92018 18.4307 7.3518 18.5069C7.78343 18.583 8.20238 18.6148 8.60864 18.6021C9.0149 18.5894 9.34496 18.5577 9.59888 18.5069C9.85279 18.4561 10.1257 18.3799 10.4177 18.2783C10.7097 18.1768 11.0461 18.0181 11.427 17.8023C11.8079 17.5865 12.0427 17.4278 12.1316 17.3262C12.176 17.2754 12.2204 17.2247 12.2649 17.1738C12.1125 17.0723 11.9602 16.9707 11.8079 16.8692C11.5032 16.666 11.1858 16.3868 10.8557 16.0313C10.5256 15.6758 10.2337 15.2759 9.97973 14.8316C9.72582 14.3873 9.5227 13.8921 9.37036 13.3462C9.21802 12.8003 9.13548 12.2671 9.1228 11.7466C9.11012 11.2261 9.14184 10.7627 9.21802 10.3565C9.29419 9.95024 9.43385 9.50589 9.63696 9.02346C9.84007 8.54106 10.0115 8.19193 10.1511 7.97609C10.2908 7.7603 10.4685 7.53178 10.6843 7.29055C10.7922 7.16997 10.9002 7.04935 11.0081 6.92873C10.9446 6.897 10.8811 6.86528 10.8176 6.83352C10.6907 6.77006 10.4431 6.68753 10.0749 6.58596C9.70677 6.48442 9.24342 6.42093 8.68481 6.39553C8.12621 6.37016 7.66918 6.3892 7.31372 6.45266ZM15.0452 7.42385C15.1721 7.42385 15.3054 7.45561 15.4451 7.51906C15.5847 7.58255 15.6926 7.65872 15.7688 7.74758C15.845 7.83647 15.9021 7.93169 15.9402 8.03322C15.9783 8.1348 15.9973 8.2427 15.9973 8.35695C15.9973 8.47121 15.9656 8.60451 15.9021 8.75686C15.8386 8.9092 15.7624 9.02346 15.6736 9.09963C15.5847 9.1758 15.4895 9.23293 15.3879 9.27102C15.2864 9.3091 15.1721 9.32814 15.0452 9.32814C14.9182 9.32814 14.804 9.3091 14.7024 9.27102C14.6008 9.23293 14.4993 9.16948 14.3977 9.08059C14.2961 8.99173 14.22 8.89016 14.1692 8.7759C14.1184 8.66164 14.093 8.52834 14.093 8.376C14.093 8.22365 14.1184 8.09035 14.1692 7.97609C14.22 7.86184 14.2961 7.7603 14.3977 7.67141C14.4993 7.58255 14.6008 7.51906 14.7024 7.48098C14.804 7.44289 14.9182 7.42385 15.0452 7.42385ZM14.8166 7.93801C14.6897 8.0015 14.6072 8.10307 14.5691 8.2427C14.531 8.38236 14.5437 8.5093 14.6072 8.62355C14.6707 8.73781 14.7722 8.81398 14.9119 8.85207C15.0515 8.89016 15.1848 8.86479 15.3118 8.7759C15.4387 8.68704 15.5086 8.56643 15.5212 8.41408C15.5339 8.26174 15.5022 8.14116 15.426 8.05227C15.3499 7.96341 15.261 7.90628 15.1594 7.88088C15.0578 7.85551 14.9436 7.87456 14.8166 7.93801ZM7.37085 8.33791C7.53587 8.33791 7.66285 8.35695 7.75171 8.39504C7.84056 8.43312 7.93578 8.50297 8.03735 8.60451C8.13893 8.70609 8.20874 8.8013 8.24682 8.89016C8.28491 8.97905 8.30395 9.10599 8.30395 9.27102C8.30395 9.43608 8.28491 9.56302 8.24682 9.65187C8.20874 9.74077 8.15797 9.82326 8.09448 9.89943C8.03099 9.97561 7.93578 10.0455 7.80884 10.1089C7.6819 10.1724 7.49779 10.1914 7.25659 10.166C7.01539 10.1407 6.83764 10.0772 6.72339 9.97561C6.60913 9.87407 6.53296 9.77885 6.49487 9.68996C6.45679 9.60111 6.43138 9.48685 6.4187 9.34719C6.40602 9.20756 6.4187 9.08059 6.45679 8.96633C6.49487 8.85207 6.552 8.75053 6.62817 8.66164C6.70434 8.57279 6.80592 8.49661 6.93286 8.43312C7.0598 8.36967 7.20582 8.33791 7.37085 8.33791ZM7.06616 8.89016C6.9519 8.97905 6.88841 9.09331 6.87573 9.23293C6.86305 9.37259 6.88841 9.48685 6.9519 9.5757C7.01539 9.6646 7.12329 9.72172 7.27563 9.74709C7.42798 9.77249 7.56128 9.74077 7.67554 9.65187C7.78979 9.56302 7.85328 9.45512 7.86597 9.32814C7.87865 9.2012 7.84692 9.08695 7.77075 8.98537C7.69458 8.88383 7.58668 8.82034 7.44702 8.79494C7.30736 8.76958 7.18042 8.8013 7.06616 8.89016ZM18.4729 9.13771C18.7014 9.16312 18.8728 9.22661 18.9871 9.32814C19.1013 9.42972 19.1838 9.53762 19.2346 9.65187C19.2854 9.76613 19.3108 9.89943 19.3108 10.0518C19.3108 10.2041 19.2917 10.3247 19.2537 10.4136C19.2156 10.5025 19.1648 10.585 19.1013 10.6612C19.0378 10.7373 18.9426 10.8072 18.8157 10.8706C18.6887 10.9341 18.5745 10.9722 18.4729 10.9849C18.3713 10.9976 18.238 10.9786 18.073 10.9278C17.908 10.877 17.7619 10.7691 17.635 10.604C17.5081 10.439 17.4382 10.274 17.4255 10.1089C17.4129 9.94388 17.4255 9.81058 17.4636 9.709C17.5017 9.60747 17.5652 9.50589 17.6541 9.40432C17.7429 9.30278 17.8445 9.22661 17.9587 9.1758C18.073 9.12503 18.2444 9.11235 18.4729 9.13771ZM18.092 9.61379C17.9905 9.67728 17.927 9.79154 17.9016 9.95656C17.8762 10.1216 17.8952 10.2486 17.9587 10.3374C18.0222 10.4263 18.1301 10.4834 18.2825 10.5088C18.4348 10.5342 18.5618 10.5088 18.6633 10.4326C18.7649 10.3565 18.8284 10.2549 18.8538 10.1279C18.8792 10.001 18.8538 9.88039 18.7776 9.76613C18.7014 9.65187 18.5935 9.58206 18.4539 9.55666C18.3142 9.53129 18.1936 9.55034 18.092 9.61379ZM15.864 10.5659C15.9783 10.5787 16.0862 10.6104 16.1877 10.6612C16.2893 10.712 16.3972 10.8199 16.5115 10.9849C16.6257 11.1499 16.6892 11.2832 16.7019 11.3848C16.7146 11.4864 16.6955 11.6197 16.6448 11.7847C16.594 11.9498 16.5178 12.0831 16.4163 12.1846C16.3147 12.2862 16.2195 12.356 16.1306 12.3941C16.0418 12.4321 15.9211 12.4512 15.7688 12.4512C15.6165 12.4512 15.4895 12.4321 15.3879 12.3941C15.2864 12.356 15.1848 12.2862 15.0832 12.1846C14.9817 12.0831 14.9055 11.9561 14.8547 11.8037C14.804 11.6514 14.7849 11.5181 14.7976 11.4038C14.8103 11.2896 14.8421 11.1817 14.8928 11.0801C14.9436 10.9786 15.0198 10.8833 15.1213 10.7945C15.2229 10.7056 15.3435 10.6421 15.4832 10.604C15.6228 10.5659 15.7498 10.5533 15.864 10.5659ZM12.6838 10.8135C12.8108 10.8135 12.9441 10.8453 13.0837 10.9087C13.2234 10.9722 13.3313 11.0484 13.4075 11.1372C13.4836 11.2261 13.5408 11.3277 13.5789 11.4419C13.6169 11.5562 13.6169 11.7212 13.5789 11.937C13.5408 12.1529 13.4773 12.3116 13.3884 12.4131C13.2996 12.5147 13.198 12.5909 13.0837 12.6416C12.9695 12.6924 12.8362 12.7178 12.6838 12.7178C12.5315 12.7178 12.4109 12.6987 12.322 12.6607C12.2332 12.6226 12.1443 12.5654 12.0554 12.4893C11.9666 12.4131 11.8904 12.3052 11.8269 12.1655C11.7634 12.0259 11.7317 11.8926 11.7317 11.7656C11.7317 11.6387 11.7634 11.5054 11.8269 11.3657C11.8904 11.2261 11.9666 11.1182 12.0554 11.042C12.1443 10.9658 12.2395 10.9087 12.3411 10.8706C12.4426 10.8325 12.5569 10.8135 12.6838 10.8135ZM15.4641 11.0991C15.3625 11.1626 15.2991 11.2705 15.2737 11.4229C15.2483 11.5752 15.2737 11.7022 15.3499 11.8037C15.426 11.9053 15.5276 11.9688 15.6545 11.9942C15.7815 12.0196 15.9021 11.9942 16.0164 11.918C16.1306 11.8418 16.2004 11.7339 16.2258 11.5943C16.2512 11.4546 16.2322 11.334 16.1687 11.2324C16.1052 11.1309 15.9973 11.0674 15.845 11.042C15.6926 11.0166 15.5657 11.0357 15.4641 11.0991ZM12.3411 11.4229C12.2395 11.5244 12.1887 11.6387 12.1887 11.7656C12.1887 11.8926 12.2395 12.0069 12.3411 12.1084C12.4426 12.21 12.5632 12.2608 12.7029 12.2608C12.8425 12.2608 12.9568 12.21 13.0457 12.1084C13.1345 12.0069 13.179 11.8926 13.179 11.7656C13.179 11.6387 13.1282 11.5244 13.0266 11.4229C12.925 11.3213 12.8108 11.2705 12.6838 11.2705C12.5569 11.2705 12.4426 11.3213 12.3411 11.4229ZM4.47632 11.499C4.64136 11.499 4.76831 11.5181 4.85718 11.5562C4.94605 11.5943 5.04126 11.6641 5.14282 11.7656C5.24438 11.8672 5.31421 11.9624 5.35229 12.0513C5.39038 12.1402 5.39673 12.3052 5.37134 12.5464C5.34595 12.7876 5.28882 12.959 5.19995 13.0606C5.11108 13.1621 5.01587 13.2383 4.9143 13.2891C4.81274 13.3399 4.70483 13.3716 4.59057 13.3843C4.47632 13.397 4.34936 13.3843 4.20971 13.3462C4.07007 13.3081 3.94946 13.2447 3.8479 13.1558C3.74634 13.0669 3.67017 12.9717 3.61938 12.8701C3.5686 12.7686 3.53687 12.6543 3.52417 12.5274C3.51147 12.4004 3.53052 12.2671 3.5813 12.1275C3.63208 11.9878 3.68921 11.8799 3.75268 11.8037C3.81616 11.7276 3.91138 11.6577 4.03833 11.5943C4.16528 11.5308 4.31128 11.499 4.47632 11.499ZM7.73266 11.6514C7.96118 11.6768 8.13257 11.7403 8.24682 11.8418C8.36108 11.9434 8.44361 12.0513 8.49438 12.1655C8.54515 12.2798 8.57055 12.4131 8.57055 12.5654C8.57055 12.7178 8.54515 12.8511 8.49438 12.9654C8.44361 13.0796 8.36744 13.1812 8.26587 13.27C8.16429 13.3589 8.05639 13.4224 7.94214 13.4605C7.82788 13.4986 7.71998 13.5176 7.61841 13.5176C7.51683 13.5176 7.40257 13.4922 7.27563 13.4414C7.14869 13.3907 7.04076 13.3208 6.9519 13.232C6.86305 13.1431 6.7932 13.0352 6.74243 12.9082C6.69166 12.7813 6.6853 12.6099 6.72339 12.3941C6.76147 12.1783 6.8186 12.0259 6.89477 11.937C6.97095 11.8482 7.07252 11.772 7.19946 11.7085C7.3264 11.6451 7.50415 11.626 7.73266 11.6514ZM4.19067 12.0513C4.06372 12.1402 3.9939 12.2544 3.9812 12.3941C3.96851 12.5337 3.9939 12.648 4.05737 12.7368C4.12085 12.8257 4.22876 12.8829 4.3811 12.9082C4.53345 12.9336 4.66675 12.9019 4.781 12.813C4.89526 12.7242 4.95874 12.6163 4.97143 12.4893C4.98413 12.3623 4.95239 12.2481 4.87622 12.1465C4.80005 12.045 4.69849 11.9815 4.57153 11.9561C4.44458 11.9307 4.31763 11.9624 4.19067 12.0513ZM7.33276 12.1655C7.2185 12.2544 7.15501 12.375 7.14233 12.5274C7.12965 12.6797 7.17406 12.8067 7.27563 12.9082C7.37721 13.0098 7.49147 13.0606 7.61841 13.0606C7.74535 13.0606 7.8596 13.0162 7.96118 12.9273C8.06276 12.8384 8.11988 12.7368 8.13257 12.6226C8.14525 12.5083 8.11352 12.3941 8.03735 12.2798C7.96118 12.1655 7.85328 12.0957 7.71362 12.0703C7.57396 12.045 7.44702 12.0767 7.33276 12.1655ZM18.092 12.6797C18.2952 12.7305 18.4412 12.8003 18.53 12.8892C18.6189 12.9781 18.6887 13.086 18.7395 13.2129C18.7903 13.3399 18.8157 13.4668 18.8157 13.5938C18.8157 13.7207 18.7903 13.8413 18.7395 13.9556C18.6887 14.0698 18.6189 14.1714 18.53 14.2603C18.4412 14.3492 18.3142 14.419 18.1492 14.4697C17.9841 14.5206 17.8064 14.5206 17.616 14.4697C17.4255 14.419 17.2859 14.3492 17.197 14.2603C17.1082 14.1714 17.0383 14.0698 16.9875 13.9556C16.9368 13.8413 16.9114 13.7144 16.9114 13.5747C16.9114 13.4351 16.9368 13.3081 16.9875 13.1939C17.0383 13.0796 17.1082 12.9781 17.197 12.8892C17.2859 12.8003 17.4065 12.7305 17.5588 12.6797C17.7112 12.6289 17.8889 12.6289 18.092 12.6797ZM17.5398 13.2129C17.4255 13.3145 17.3684 13.4351 17.3684 13.5747C17.3684 13.7144 17.4255 13.835 17.5398 13.9365C17.6541 14.0381 17.7619 14.0889 17.8635 14.0889C17.9651 14.0889 18.073 14.0381 18.1873 13.9365C18.3015 13.835 18.3586 13.7144 18.3586 13.5747C18.3586 13.4351 18.3015 13.3145 18.1873 13.2129C18.073 13.1114 17.9651 13.0606 17.8635 13.0606C17.7619 13.0606 17.6541 13.1114 17.5398 13.2129ZM14.8166 13.8223C14.9436 13.8223 15.0769 13.854 15.2166 13.9175C15.3562 13.981 15.4641 14.0572 15.5403 14.146C15.6165 14.2349 15.6736 14.3301 15.7117 14.4317C15.7498 14.5332 15.7688 14.6411 15.7688 14.7554C15.7688 14.8696 15.7371 15.0029 15.6736 15.1553C15.6101 15.3076 15.5339 15.4219 15.4451 15.4981C15.3562 15.5742 15.261 15.6314 15.1594 15.6695C15.0578 15.7075 14.9436 15.7266 14.8166 15.7266C14.6897 15.7266 14.5754 15.7075 14.4739 15.6695C14.3723 15.6314 14.2708 15.5679 14.1692 15.479C14.0676 15.3902 13.9914 15.2886 13.9407 15.1743C13.8899 15.0601 13.8645 14.9268 13.8645 14.7744C13.8645 14.6221 13.8899 14.4888 13.9407 14.3745C13.9914 14.2603 14.0549 14.1651 14.1311 14.0889C14.2073 14.0127 14.3088 13.9493 14.4358 13.8985C14.5627 13.8477 14.6897 13.8223 14.8166 13.8223ZM14.5691 14.3364C14.4548 14.3999 14.3787 14.5015 14.3406 14.6411C14.3025 14.7808 14.3152 14.9077 14.3787 15.022C14.4421 15.1362 14.5374 15.2124 14.6643 15.2505C14.7912 15.2886 14.8928 15.295 14.969 15.2696C15.0452 15.2442 15.115 15.1997 15.1785 15.1362C15.242 15.0728 15.28 14.9649 15.2927 14.8125C15.3054 14.6602 15.2737 14.5396 15.1975 14.4507C15.1213 14.3618 15.0261 14.3047 14.9119 14.2793C14.7976 14.254 14.6833 14.273 14.5691 14.3364ZM7.14233 14.7363C7.30736 14.7363 7.43434 14.7554 7.52319 14.7935C7.61205 14.8316 7.70726 14.9014 7.80884 15.0029C7.91041 15.1045 7.98022 15.1997 8.01831 15.2886C8.05639 15.3775 8.07544 15.5044 8.07544 15.6695C8.07544 15.8345 8.05639 15.9615 8.01831 16.0503C7.98022 16.1392 7.92945 16.2217 7.86597 16.2979C7.80248 16.374 7.70726 16.4439 7.58032 16.5073C7.45338 16.5708 7.26927 16.5899 7.02807 16.5645C6.78688 16.5391 6.61549 16.482 6.51391 16.3931C6.41234 16.3042 6.33617 16.209 6.2854 16.1074C6.23463 16.0059 6.20287 15.8853 6.19018 15.7456C6.1775 15.606 6.19018 15.479 6.22827 15.3648C6.26636 15.2505 6.32984 15.1426 6.4187 15.041C6.50755 14.9395 6.60913 14.8633 6.72339 14.8125C6.83764 14.7617 6.97731 14.7363 7.14233 14.7363ZM6.83764 15.2886C6.72339 15.3775 6.6599 15.4917 6.64722 15.6314C6.63453 15.771 6.6599 15.8853 6.72339 15.9741C6.78688 16.063 6.89477 16.1202 7.04712 16.1455C7.19946 16.1709 7.3264 16.1455 7.42798 16.0694C7.52955 15.9932 7.593 15.8853 7.61841 15.7456C7.64381 15.606 7.61841 15.4854 7.54223 15.3838C7.46606 15.2823 7.35817 15.2188 7.2185 15.1934C7.07884 15.168 6.9519 15.1997 6.83764 15.2886Z" fill="#BE0E0B"/>
</g>
</g>
<defs>
<clipPath id="clip0_801_23569">
<rect width="19.5" height="19.5" fill="white" transform="translate(2.25 2.25)"/>
</clipPath>
</defs>
</svg>
