<svg width="24" height="24" viewBox="0 0 24 24" fill="none" xmlns="http://www.w3.org/2000/svg">
<rect x="9" width="15" height="15" rx="7.5" fill="#0837B6"/>
<rect x="9" width="15" height="15" rx="7.5" fill="white" fill-opacity="0.9"/>
<g clip-path="url(#clip0_801_23611)">
<mask id="mask0_801_23611" style="mask-type:luminance" maskUnits="userSpaceOnUse" x="2" y="2" width="20" height="20">
<path d="M21.75 2.25H2.25V21.75H21.75V2.25Z" fill="white"/>
</mask>
<g mask="url(#mask0_801_23611)">
<path d="M4.43994 2.32611C4.37646 2.3515 4.30664 2.42133 4.23047 2.53558C4.1543 2.64984 4.11621 2.85931 4.11621 3.164C4.11621 3.46869 4.1543 3.67816 4.23047 3.79242C4.30664 3.90668 4.43359 3.9765 4.61133 4.00189C4.78906 4.02728 4.94141 3.9765 5.06836 3.84955C5.19531 3.7226 5.25879 3.49408 5.25879 3.164C5.25879 2.83392 5.2207 2.6181 5.14453 2.51654C5.06836 2.41498 4.94775 2.3515 4.78271 2.32611C4.61768 2.30072 4.50342 2.30072 4.43994 2.32611ZM6.83936 2.3642C6.7505 2.41498 6.68065 2.49115 6.62988 2.59271C6.57911 2.69428 6.55371 2.88471 6.55371 3.164C6.55371 3.4433 6.60448 3.65277 6.70605 3.79242C6.80763 3.93207 6.93457 4.00824 7.08691 4.02094C7.23926 4.03363 7.35988 4.01459 7.44873 3.96381C7.53759 3.91303 7.60743 3.83685 7.6582 3.73529C7.70897 3.63373 7.73438 3.4433 7.73438 3.164C7.73438 2.88471 7.68993 2.68158 7.60107 2.55463C7.51222 2.42767 7.38524 2.3515 7.22021 2.32611C7.05519 2.30072 6.92821 2.31342 6.83936 2.3642ZM9.21973 2.47845C9.09279 2.60541 9.0293 2.84027 9.0293 3.18304C9.0293 3.52582 9.09279 3.75433 9.21973 3.86859C9.34667 3.98285 9.47365 4.03998 9.60059 4.03998C9.72753 4.03998 9.83546 4.00824 9.92432 3.94476C10.0132 3.88129 10.0767 3.81146 10.1147 3.73529C10.1528 3.65912 10.1719 3.46869 10.1719 3.164C10.1719 2.85931 10.1211 2.64349 10.0195 2.51654C9.91796 2.38959 9.79102 2.31976 9.63867 2.30707C9.48633 2.29437 9.34667 2.3515 9.21973 2.47845ZM11.6572 2.47845C11.5303 2.60541 11.4668 2.83392 11.4668 3.164C11.4668 3.49408 11.5049 3.7099 11.5811 3.81146C11.6572 3.91303 11.7842 3.9765 11.9619 4.00189C12.1397 4.02728 12.292 3.9765 12.4189 3.84955C12.5459 3.7226 12.6094 3.49408 12.6094 3.164C12.6094 2.83392 12.5713 2.6181 12.4951 2.51654C12.4189 2.41498 12.292 2.3515 12.1143 2.32611C11.9365 2.30072 11.7842 2.3515 11.6572 2.47845ZM14.209 2.34515C14.1328 2.38324 14.063 2.45306 13.9995 2.55463C13.936 2.65619 13.9043 2.85931 13.9043 3.164C13.9043 3.46869 13.9424 3.67816 14.0186 3.79242C14.0947 3.90668 14.2217 3.9765 14.3994 4.00189C14.5772 4.02728 14.7231 3.99554 14.8374 3.90668C14.9517 3.81781 15.0215 3.61468 15.0469 3.2973C15.0723 2.97992 15.0405 2.74506 14.9517 2.59271C14.8628 2.44037 14.7358 2.3515 14.5708 2.32611C14.4058 2.30072 14.2852 2.30707 14.209 2.34515ZM16.5894 2.42133C16.4751 2.51019 16.4053 2.58636 16.3799 2.64984C16.3545 2.71332 16.3418 2.88471 16.3418 3.164C16.3418 3.4433 16.3926 3.65277 16.4941 3.79242C16.5957 3.93207 16.7227 4.00824 16.875 4.02094C17.0273 4.03363 17.148 4.01459 17.2368 3.96381C17.3257 3.91303 17.3955 3.83685 17.4463 3.73529C17.4971 3.63373 17.5225 3.4433 17.5225 3.164C17.5225 2.88471 17.4717 2.67523 17.3701 2.53558C17.2685 2.39593 17.1416 2.31976 16.9893 2.30707C16.8369 2.29437 16.7036 2.33246 16.5894 2.42133ZM19.0078 2.47845C18.8809 2.60541 18.8174 2.83392 18.8174 3.164C18.8174 3.49408 18.8555 3.7099 18.9316 3.81146C19.0078 3.91303 19.1348 3.9765 19.3125 4.00189C19.4902 4.02728 19.6235 4.00824 19.7124 3.94476C19.8013 3.88129 19.8647 3.81146 19.9028 3.73529C19.9409 3.65912 19.96 3.46869 19.96 3.164C19.96 2.85931 19.9092 2.64349 19.8076 2.51654C19.706 2.38959 19.5791 2.31976 19.4268 2.30707C19.2744 2.29437 19.1348 2.3515 19.0078 2.47845ZM4.4209 5.41107C4.31933 5.46185 4.24316 5.53168 4.19238 5.62054C4.1416 5.70941 4.11621 5.87445 4.11621 6.11566C4.11621 6.35686 4.1416 6.66155 4.19238 7.02972C4.24316 7.3979 4.34473 7.82317 4.49707 8.3056C4.64941 8.78804 4.79541 9.1689 4.93506 9.44818C5.07471 9.72747 5.2461 10.0195 5.44922 10.3242C5.65234 10.6288 5.95703 10.9907 6.36328 11.4096C6.76954 11.8286 7.18849 12.184 7.62012 12.476C8.05175 12.768 8.53418 13.0219 9.06738 13.2377C9.60059 13.4536 10.1338 13.6059 10.667 13.6948C11.2002 13.7836 11.4668 14.3803 11.4668 15.4848C11.4668 16.5893 11.4414 17.2431 11.3906 17.4462C11.3399 17.6493 11.2764 17.8144 11.2002 17.9413C11.124 18.0683 11.0224 18.1953 10.8955 18.3222C10.7686 18.4491 10.4956 18.6777 10.0767 19.0078C9.86719 19.1728 9.65771 19.3378 9.44824 19.5029C10.3115 19.5029 11.1748 19.5029 12.0381 19.5029C12.9014 19.5029 13.7646 19.5029 14.6279 19.5029C14.4185 19.3378 14.209 19.1728 13.9995 19.0078C13.5806 18.6777 13.3076 18.4491 13.1807 18.3222C13.0537 18.1953 12.9521 18.0683 12.876 17.9413C12.7998 17.8144 12.7363 17.6493 12.6855 17.4462C12.6348 17.2431 12.6094 16.5893 12.6094 15.4848C12.6094 14.3803 12.7998 13.8027 13.1807 13.7519C13.5615 13.7011 14.0186 13.5869 14.5518 13.4091C15.085 13.2314 15.5864 13.0029 16.0562 12.7236C16.5259 12.4443 16.9512 12.1332 17.332 11.7905C17.7129 11.4477 18.0747 11.0414 18.4175 10.5717C18.7603 10.102 19.0459 9.60689 19.2744 9.08636C19.5029 8.56584 19.6743 8.00092 19.7886 7.39154C19.9028 6.78217 19.96 6.35686 19.96 6.11566C19.96 5.87445 19.9346 5.70941 19.8838 5.62054C19.833 5.53168 19.7568 5.46185 19.6553 5.41107C19.5537 5.36029 19.4585 5.3349 19.3696 5.3349C19.2808 5.3349 19.1792 5.37299 19.0649 5.44916C18.9507 5.52533 18.8745 5.62689 18.8364 5.75385C18.7983 5.8808 18.7603 6.17915 18.7222 6.64886C18.6841 7.11858 18.5952 7.56929 18.4556 8.00092C18.3159 8.43254 18.1255 8.85785 17.8843 9.27679C17.6431 9.69574 17.3701 10.0766 17.0654 10.4194C16.7607 10.7621 16.4497 11.0542 16.1323 11.2953C15.815 11.5365 15.4849 11.746 15.1421 11.9238C14.7993 12.1015 14.4439 12.2475 14.0757 12.3618C13.7075 12.476 13.3711 12.5522 13.0664 12.5903C12.9141 12.6093 12.7617 12.6284 12.6094 12.6474C12.6094 12.4316 12.6094 12.2158 12.6094 11.9999C12.6094 11.5683 12.7681 11.3271 13.0854 11.2763C13.4028 11.2255 13.7583 11.1176 14.1519 10.9526C14.5454 10.7875 14.8945 10.5971 15.1992 10.3813C15.5039 10.1655 15.8086 9.88617 16.1133 9.5434C16.418 9.20062 16.6465 8.89594 16.7988 8.62933C16.9512 8.36273 17.0781 8.08977 17.1797 7.81049C17.2813 7.5312 17.3638 7.20111 17.4272 6.82025C17.4907 6.43939 17.5098 6.14106 17.4844 5.92523C17.459 5.70941 17.3828 5.55707 17.2559 5.4682C17.1289 5.37933 17.0019 5.34125 16.875 5.35394C16.7481 5.36664 16.6465 5.40472 16.5703 5.4682C16.4941 5.53168 16.437 5.60785 16.3989 5.69672C16.3608 5.78558 16.3354 5.96967 16.3228 6.24896C16.3101 6.52825 16.2656 6.80757 16.1895 7.08685C16.1133 7.36614 15.9927 7.65814 15.8276 7.96283C15.6626 8.26752 15.4658 8.5468 15.2373 8.80072C15.0088 9.05464 14.7168 9.29584 14.3613 9.52435C14.0059 9.75287 13.625 9.92426 13.2188 10.0385C13.0156 10.0956 12.8125 10.1528 12.6094 10.2099C12.6094 9.98774 12.6094 9.76555 12.6094 9.5434C12.6094 9.09905 12.6982 8.85785 12.876 8.81976C13.0537 8.78168 13.2188 8.72455 13.3711 8.64838C13.5234 8.5722 13.6631 8.48967 13.79 8.40082C13.917 8.31196 14.0693 8.1723 14.2471 7.98187C14.4248 7.79144 14.5708 7.59465 14.6851 7.39154C14.7993 7.18843 14.8818 7.00432 14.9326 6.83929C14.9834 6.67427 15.0215 6.47112 15.0469 6.22992C15.0723 5.98871 15.0659 5.81732 15.0278 5.71576C14.9897 5.6142 14.9136 5.52533 14.7993 5.44916C14.6851 5.37299 14.5518 5.34759 14.3994 5.37299C14.2471 5.39838 14.1328 5.45551 14.0566 5.54437C13.9805 5.63324 13.9233 5.81732 13.8853 6.09662C13.8472 6.3759 13.7774 6.61078 13.6758 6.80121C13.5742 6.99164 13.4727 7.13762 13.3711 7.2392C13.2695 7.34077 13.1172 7.44231 12.9141 7.54388C12.8125 7.59465 12.7109 7.64546 12.6094 7.69623C12.603 7.35345 12.5967 7.01068 12.5903 6.66791C12.5776 5.98236 12.5078 5.58881 12.3809 5.48724C12.2539 5.38568 12.1397 5.3349 12.0381 5.3349C11.9365 5.3349 11.8477 5.35394 11.7715 5.39203C11.6953 5.43011 11.6255 5.49994 11.562 5.6015C11.4985 5.70307 11.4604 6.07758 11.4478 6.72504C11.4414 7.04877 11.4351 7.3725 11.4287 7.69623C11.3335 7.64546 11.2383 7.59465 11.1431 7.54388C10.9526 7.44231 10.7812 7.30269 10.6289 7.12494C10.4766 6.94719 10.3687 6.7758 10.3052 6.61078C10.2417 6.44575 10.1909 6.23628 10.1528 5.98236C10.1147 5.72845 10.0322 5.55707 9.90527 5.4682C9.77833 5.37933 9.6704 5.3349 9.58154 5.3349C9.49269 5.3349 9.41016 5.35394 9.33398 5.39203C9.25781 5.43011 9.18164 5.51898 9.10547 5.65863C9.0293 5.79828 8.99757 5.95697 9.01025 6.1347C9.02294 6.31245 9.06102 6.51556 9.12451 6.74408C9.188 6.9726 9.27686 7.18843 9.39111 7.39154C9.50537 7.59465 9.65135 7.79144 9.8291 7.98187C10.0068 8.1723 10.2354 8.35005 10.5146 8.51508C10.7939 8.6801 11.0224 8.78168 11.2002 8.81976C11.3779 8.85785 11.4604 9.09905 11.4478 9.5434C11.4414 9.76555 11.4351 9.98774 11.4287 10.2099C11.3399 10.1909 11.251 10.1718 11.1621 10.1528C10.9844 10.1147 10.7368 10.0322 10.4194 9.90521C10.1021 9.77827 9.81642 9.62593 9.5625 9.44818C9.30858 9.27043 9.11183 9.11177 8.97217 8.97211C8.83251 8.83245 8.69288 8.66742 8.55322 8.47699C8.41356 8.28656 8.28662 8.07709 8.17236 7.84857C8.05811 7.62006 7.96289 7.36614 7.88672 7.08685C7.81055 6.80757 7.75342 6.49016 7.71533 6.1347C7.67725 5.77924 7.59471 5.55707 7.46777 5.4682C7.34083 5.37933 7.20117 5.34759 7.04883 5.37299C6.89648 5.39838 6.77587 5.47455 6.68701 5.6015C6.59816 5.72845 6.56007 5.93793 6.57275 6.22992C6.58544 6.52192 6.62988 6.83293 6.70605 7.16302C6.78223 7.49312 6.90917 7.84857 7.08691 8.22943C7.26466 8.61029 7.44237 8.92134 7.62012 9.16254C7.79786 9.40373 7.97557 9.61321 8.15332 9.79095C8.33107 9.9687 8.54054 10.1464 8.78174 10.3242C9.02294 10.5019 9.37207 10.6923 9.8291 10.8954C10.2861 11.0986 10.6734 11.2255 10.9907 11.2763C11.3081 11.3271 11.4668 11.5683 11.4668 11.9999C11.4668 12.2158 11.4668 12.4316 11.4668 12.6474C11.4287 12.6474 11.3906 12.6474 11.3525 12.6474C11.2764 12.6474 11.0288 12.603 10.6099 12.5141C10.1909 12.4252 9.82274 12.3173 9.50537 12.1904C9.188 12.0634 8.84523 11.8857 8.47705 11.6572C8.10887 11.4286 7.77882 11.1811 7.48682 10.9145C7.19481 10.6479 6.91553 10.3368 6.64893 9.98138C6.38232 9.62593 6.16017 9.27043 5.98242 8.91498C5.80469 8.55952 5.65869 8.17866 5.54443 7.7724C5.43018 7.36614 5.354 6.92183 5.31592 6.43939C5.27783 5.95697 5.20801 5.65863 5.10645 5.54437C5.00488 5.43011 4.89062 5.36664 4.76367 5.35394C4.63672 5.34125 4.52246 5.36029 4.4209 5.41107ZM8.02002 20.7787C7.90576 20.8676 7.83595 20.9501 7.81055 21.0263C7.78514 21.1025 7.78514 21.2041 7.81055 21.331C7.83595 21.4579 7.90576 21.5659 8.02002 21.6547C8.13428 21.7436 9.47365 21.788 12.0381 21.788C14.6025 21.788 15.9419 21.7436 16.0562 21.6547C16.1704 21.5659 16.2402 21.4833 16.2656 21.4072C16.291 21.331 16.291 21.2294 16.2656 21.1025C16.2402 20.9755 16.1704 20.8676 16.0562 20.7787C15.9419 20.6899 14.6025 20.6454 12.0381 20.6454C9.47365 20.6454 8.13428 20.6899 8.02002 20.7787Z" fill="#BE0E0B"/>
</g>
</g>
<defs>
<clipPath id="clip0_801_23611">
<rect width="19.5" height="19.5" fill="white" transform="translate(2.25 2.25)"/>
</clipPath>
</defs>
</svg>
