<svg width="24" height="24" viewBox="0 0 24 24" fill="none" xmlns="http://www.w3.org/2000/svg">
<rect x="9" width="15" height="15" rx="7.5" fill="#0837B6"/>
<rect x="9" width="15" height="15" rx="7.5" fill="white" fill-opacity="0.9"/>
<path d="M5.17944 3.56909C5.10327 3.60718 5.01441 3.68969 4.91284 3.81665C4.81128 3.9436 4.72241 4.12134 4.64624 4.34985C4.57007 4.57837 4.51294 4.81958 4.47485 5.07349C4.43677 5.32739 4.42407 5.80346 4.43677 6.50171C4.44947 7.19994 4.4939 7.82203 4.57007 8.36792C4.64624 8.91381 4.73511 9.42164 4.83667 9.89136C4.93823 10.3611 5.04614 10.634 5.1604 10.7102C5.27466 10.7864 5.40796 10.907 5.5603 11.072C5.71265 11.237 5.82056 11.3259 5.88403 11.3386C5.94751 11.3513 6.08083 11.2625 6.28394 11.072C6.48706 10.8816 6.65212 10.7547 6.77906 10.6912C6.906 10.6277 7.07739 10.5833 7.29322 10.5579C7.50905 10.5325 7.69312 10.5388 7.84547 10.5769C7.92164 10.5959 7.99781 10.615 8.07398 10.634C8.07398 10.342 8.07398 10.0501 8.07398 9.75806C8.07398 9.17409 8.09939 8.74878 8.15015 8.48218C8.20092 8.21558 8.26441 7.9807 8.34058 7.77759C8.41676 7.57448 8.31518 7.16821 8.0359 6.55884C7.75661 5.94946 7.49633 5.45435 7.25513 5.07349C7.01394 4.69263 6.74097 4.3562 6.43629 4.06421C6.1316 3.77222 5.93482 3.60718 5.84595 3.56909C5.75708 3.53101 5.64282 3.51196 5.50317 3.51196C5.36353 3.51196 5.25562 3.53101 5.17944 3.56909ZM10.2068 4.57837C10.2068 4.73071 10.2068 4.88306 10.2068 5.0354C10.6131 5.0354 11.0193 5.0354 11.4255 5.0354C11.8318 5.0354 12.238 5.0354 12.6443 5.0354C12.6443 4.88306 12.6443 4.73071 12.6443 4.57837C12.6443 4.42603 12.6443 4.27368 12.6443 4.12134C12.238 4.12134 11.8318 4.12134 11.4255 4.12134C11.0193 4.12134 10.6131 4.12134 10.2068 4.12134C10.2068 4.27368 10.2068 4.42603 10.2068 4.57837ZM6.55054 5.34009C6.67748 5.36548 6.74733 5.4353 6.76002 5.54956C6.7727 5.66382 6.6648 6.06372 6.43629 6.74927C6.20777 7.43481 6.07447 7.80299 6.03638 7.85376C5.99829 7.90453 5.93482 7.93629 5.84595 7.94897C5.75708 7.96166 5.68091 7.94261 5.61743 7.89185C5.55396 7.84108 5.52222 7.76491 5.52222 7.66333C5.52222 7.56175 5.63647 7.17457 5.86499 6.50171C6.09351 5.82886 6.23317 5.46069 6.28394 5.39722C6.33471 5.33374 6.4236 5.3147 6.55054 5.34009ZM10.5115 6.10181C10.5115 6.40649 10.4163 6.59692 10.2258 6.6731C10.0354 6.74927 9.82594 6.88893 9.59742 7.09204C9.3689 7.29515 9.20388 7.4729 9.1023 7.62524C9.00073 7.77759 8.91823 7.93629 8.85474 8.10132C8.79125 8.26634 8.74685 8.40601 8.72144 8.52026C8.69604 8.63452 8.68336 9.10424 8.68336 9.92944C8.68336 10.7547 8.7278 11.199 8.81666 11.2625C8.90551 11.3259 8.98168 11.3513 9.04517 11.3386C9.10866 11.3259 9.24196 11.218 9.44508 11.0149C9.64819 10.8118 9.85134 10.6785 10.0545 10.615C10.2576 10.5515 10.4861 10.5388 10.74 10.5769C10.9939 10.615 11.197 10.6848 11.3494 10.7864C11.5017 10.888 11.6287 11.0022 11.7302 11.1292C11.8318 11.2561 11.908 11.3259 11.9587 11.3386C11.9842 11.345 12.0095 11.3513 12.0349 11.3577C12.0286 11.1418 12.0222 10.926 12.0159 10.7102C12.0032 10.2786 12.0413 9.87867 12.1301 9.5105C12.219 9.14232 12.3587 8.78687 12.5491 8.44409C12.7395 8.10132 12.9426 7.82836 13.1585 7.62524C13.2664 7.52367 13.3743 7.42213 13.4822 7.32056C13.4124 7.25075 13.3425 7.1809 13.2727 7.11108C13.1331 6.97142 12.9426 6.84448 12.7014 6.73022C12.4602 6.61597 12.3396 6.40649 12.3396 6.10181C12.3396 5.94946 12.3396 5.79712 12.3396 5.64478C12.0349 5.64478 11.7302 5.64478 11.4255 5.64478C11.1209 5.64478 10.8162 5.64478 10.5115 5.64478C10.5115 5.79712 10.5115 5.94946 10.5115 6.10181ZM17.0051 6.6731C16.8147 6.74927 16.6687 6.8318 16.5671 6.92065C16.4656 7.00951 16.3513 7.16185 16.2244 7.37769C16.0974 7.59352 16.0276 7.74586 16.0149 7.83472C16.0085 7.87916 16.0022 7.92357 15.9959 7.96802C15.9197 7.89821 15.8435 7.82836 15.7673 7.75854C15.615 7.61888 15.4436 7.51735 15.2532 7.45386C15.0628 7.39037 14.8723 7.37133 14.6819 7.39673C14.4915 7.42213 14.2884 7.4983 14.0725 7.62524C13.8567 7.75218 13.6472 7.93629 13.4441 8.17749C13.241 8.41869 13.0759 8.67261 12.949 8.93921C12.822 9.20581 12.7268 9.48509 12.6633 9.7771C12.5998 10.0691 12.5681 10.3293 12.5681 10.5579C12.5681 10.6721 12.5681 10.7864 12.5681 10.9006C12.6697 10.8435 12.7712 10.7864 12.8728 10.7292C13.0759 10.615 13.2981 10.5579 13.5393 10.5579C13.7805 10.5579 13.9773 10.5896 14.1296 10.6531C14.282 10.7166 14.4534 10.8435 14.6438 11.0339C14.8342 11.2244 14.9612 11.3259 15.0247 11.3386C15.0882 11.3513 15.2405 11.2498 15.4817 11.0339C15.7229 10.8181 15.907 10.6848 16.0339 10.634C16.1609 10.5833 16.3132 10.5515 16.491 10.5388C16.6687 10.5261 16.8782 10.5642 17.1194 10.6531C17.3606 10.7419 17.5637 10.8752 17.7288 11.053C17.8938 11.2307 18.0271 11.3196 18.1287 11.3196C18.2302 11.3196 18.3445 11.2561 18.4714 11.1292C18.5984 11.0022 18.6746 10.888 18.7 10.7864C18.7254 10.6848 18.7317 10.4436 18.719 10.0627C18.7063 9.68188 18.6492 9.35815 18.5476 9.09155C18.446 8.82495 18.3255 8.61548 18.1858 8.46313C18.0461 8.31079 17.9128 8.20289 17.7859 8.1394C17.659 8.07591 17.5003 8.03783 17.3098 8.02515C17.1194 8.01246 16.9544 8.03151 16.8147 8.08228C16.7449 8.10768 16.675 8.13304 16.6052 8.15845C16.6116 8.114 16.6179 8.06959 16.6243 8.02515C16.637 7.93629 16.7004 7.80299 16.8147 7.62524C16.929 7.4475 17.0623 7.32692 17.2146 7.26343C17.367 7.19994 17.5257 7.17457 17.6907 7.18726C17.8557 7.19994 17.9763 7.17457 18.0525 7.11108C18.1287 7.04759 18.1541 6.95238 18.1287 6.82544C18.1033 6.6985 18.0652 6.62233 18.0144 6.59692C17.9636 6.57152 17.8303 6.55884 17.6145 6.55884C17.3987 6.55884 17.1956 6.59692 17.0051 6.6731ZM7.29322 7.68237C7.40748 7.72046 7.47097 7.79027 7.48365 7.89185C7.49633 7.99342 7.38207 8.39965 7.14088 9.1106C6.89968 9.82155 6.75366 10.196 6.70289 10.2341C6.65212 10.2722 6.58227 10.2913 6.49342 10.2913C6.40456 10.2913 6.33471 10.2595 6.28394 10.196C6.23317 10.1326 6.20777 10.0691 6.20777 10.0056C6.20777 9.94213 6.32839 9.55494 6.56959 8.84399C6.81079 8.13304 6.96313 7.75218 7.02662 7.70142C7.09011 7.65065 7.17896 7.64429 7.29322 7.68237ZM4.41772 15.8518C4.41772 17.426 4.41772 19.0003 4.41772 20.5745C6.3982 20.5745 8.37867 20.5745 10.3591 20.5745C12.3396 20.5745 14.3201 20.5745 16.3005 20.5745C16.3005 19.0066 16.3005 17.4387 16.3005 15.8708C16.3005 14.303 16.3005 12.7351 16.3005 11.1672C16.2688 11.1799 16.2371 11.1926 16.2053 11.2053C16.1418 11.2307 16.0339 11.3259 15.8816 11.491C15.7293 11.656 15.5896 11.7703 15.4627 11.8337C15.3357 11.8972 15.2087 11.929 15.0818 11.929C14.9549 11.929 14.8342 11.9036 14.72 11.8528C14.6057 11.802 14.4724 11.6941 14.3201 11.5291C14.1677 11.364 14.0408 11.2561 13.9392 11.2053C13.8376 11.1546 13.7107 11.1292 13.5584 11.1292C13.406 11.1292 13.2854 11.1482 13.1965 11.1863C13.1077 11.2244 12.9871 11.3259 12.8347 11.491C12.6824 11.656 12.5427 11.7703 12.4158 11.8337C12.2888 11.8972 12.1619 11.929 12.0349 11.929C11.908 11.929 11.7874 11.9036 11.6731 11.8528C11.5588 11.802 11.3938 11.675 11.178 11.4719C10.9622 11.2688 10.759 11.1609 10.5686 11.1482C10.3782 11.1355 10.2385 11.1482 10.1497 11.1863C10.0608 11.2244 9.93383 11.3323 9.76881 11.51C9.60378 11.6878 9.46412 11.802 9.34986 11.8528C9.2356 11.9036 9.11498 11.929 8.98804 11.929C8.8611 11.929 8.74049 11.9036 8.62623 11.8528C8.51197 11.802 8.37231 11.6878 8.20728 11.51C8.04226 11.3323 7.91528 11.2244 7.82642 11.1863C7.73757 11.1482 7.61695 11.1292 7.46461 11.1292C7.31226 11.1292 7.19165 11.1482 7.10279 11.1863C7.01394 11.2244 6.87428 11.3386 6.68385 11.5291C6.49342 11.7195 6.35375 11.8337 6.2649 11.8718C6.17605 11.9099 6.06811 11.929 5.94116 11.929C5.81421 11.929 5.6936 11.9036 5.57935 11.8528C5.46509 11.802 5.31274 11.6814 5.12231 11.491C4.93188 11.3005 4.76685 11.1926 4.6272 11.1672C4.55737 11.1546 4.48755 11.1418 4.41772 11.1292C4.41772 12.7034 4.41772 14.2776 4.41772 15.8518ZM19.2903 11.1863C19.2014 11.2244 19.0808 11.3259 18.9285 11.491C18.7761 11.656 18.6365 11.7703 18.5095 11.8337C18.3826 11.8972 18.2175 11.9163 18.0144 11.8909C17.8113 11.8655 17.6145 11.7576 17.4241 11.5671C17.2336 11.3767 17.1003 11.2625 17.0242 11.2244C16.9861 11.2053 16.948 11.1863 16.9099 11.1672C16.9099 12.7351 16.9099 14.303 16.9099 15.8708C16.9099 17.4387 16.9099 19.0066 16.9099 20.5745C17.367 20.5745 17.824 20.5745 18.281 20.5745C18.738 20.5745 19.1951 20.5745 19.6521 20.5745C19.6521 19.0003 19.6521 17.426 19.6521 15.8518C19.6521 14.2776 19.6521 12.7034 19.6521 11.1292C19.614 11.1292 19.5759 11.1292 19.5378 11.1292C19.4617 11.1292 19.3791 11.1482 19.2903 11.1863Z" fill="#BE0E0B"/>
</svg>
