<svg width="24" height="24" viewBox="0 0 24 24" fill="none" xmlns="http://www.w3.org/2000/svg">
<rect x="9" width="15" height="15" rx="7.5" fill="#0837B6"/>
<rect x="9" width="15" height="15" rx="7.5" fill="white" fill-opacity="0.9"/>
<g clip-path="url(#clip0_801_23599)">
<path d="M13.0256 3.14233C12.7844 3.22485 12.5432 3.30737 12.302 3.38989C12.3528 3.54224 12.4035 3.69458 12.4544 3.84692C12.5559 4.15161 12.6511 4.56421 12.74 5.08472C12.8289 5.60522 12.8733 6.15113 12.8733 6.72242C12.8733 7.29371 12.8415 7.74438 12.7781 8.07447C12.7146 8.40452 12.6511 8.64576 12.5877 8.7981C12.5242 8.95045 12.4924 9.04566 12.4924 9.08375C12.4924 9.12183 12.5305 9.15992 12.6067 9.19801C12.6829 9.23609 12.74 9.25514 12.7781 9.25514C12.8162 9.25514 12.8987 9.10911 13.0256 8.81715C13.1526 8.52514 13.3113 7.9983 13.5017 7.23658C13.6921 6.47486 13.8064 5.91626 13.8445 5.56079C13.8826 5.20532 13.9016 4.74194 13.9016 4.17065C13.9016 3.59937 13.8953 3.24389 13.8826 3.10425C13.8699 2.9646 13.8445 2.89478 13.8064 2.89478C13.7683 2.89478 13.508 2.97729 13.0256 3.14233ZM16.2439 6.20826C15.9519 6.28443 15.717 6.37329 15.5393 6.47486C15.3616 6.5764 15.1521 6.74146 14.9109 6.96998C14.6697 7.19849 14.4665 7.43333 14.3015 7.67457C14.219 7.79515 14.1365 7.91577 14.054 8.03639C14.1936 8.1062 14.3332 8.17601 14.4729 8.24586C14.7522 8.38548 15.0632 8.46801 15.406 8.49342C15.7488 8.51878 16.0344 8.49974 16.2629 8.43629C16.4915 8.3728 16.72 8.27758 16.9485 8.15064C17.177 8.02366 17.5261 7.72534 17.9959 7.25562C18.2307 7.02075 18.4656 6.78587 18.7004 6.55103C18.5417 6.48118 18.383 6.41137 18.2244 6.34156C17.907 6.2019 17.5706 6.12573 17.2151 6.11304C16.8596 6.10032 16.5359 6.13209 16.2439 6.20826ZM8.30299 6.3606C7.89672 6.41137 7.48414 6.51295 7.06519 6.66529C6.64625 6.81763 6.3098 6.98266 6.05591 7.16041C5.802 7.33812 5.54175 7.59204 5.27515 7.92213C5.00855 8.25218 4.79907 8.58863 4.64673 8.9314C4.49438 9.27418 4.36743 9.70581 4.26587 10.2263C4.16431 10.7468 4.11353 11.2991 4.11353 11.8831C4.11353 12.467 4.15161 13.0256 4.22778 13.5588C4.30396 14.0921 4.42456 14.657 4.5896 15.2537C4.75464 15.8503 4.95142 16.4089 5.17993 16.9295C5.40845 17.4499 5.63696 17.8879 5.86548 18.2434C6.094 18.5989 6.34788 18.9226 6.6272 19.2146C6.90649 19.5066 7.1096 19.697 7.23658 19.7859C7.36352 19.8748 7.48414 19.9382 7.5984 19.9763C7.71265 20.0144 7.96021 20.0017 8.34107 19.9382C8.72193 19.8748 8.99486 19.8493 9.15992 19.8621C9.32495 19.8748 9.50269 19.9255 9.69312 20.0144C9.88355 20.1033 10.093 20.2683 10.3215 20.5095C10.5501 20.7507 10.7341 20.9158 10.8738 21.0046C11.0134 21.0935 11.2419 21.1379 11.5593 21.1379C11.8767 21.1379 12.2702 21.0618 12.74 20.9094C13.2097 20.7571 13.6477 20.5793 14.054 20.3762C14.4602 20.1731 15.0124 19.8176 15.7107 19.3098C16.4089 18.802 17.0056 18.3069 17.5007 17.8245C17.9959 17.342 18.3958 16.8723 18.7004 16.4153C19.0051 15.9583 19.2527 15.4885 19.4431 15.0061C19.6336 14.5237 19.7669 14.1047 19.843 13.7493C19.9192 13.3938 19.9446 12.9495 19.9192 12.4163C19.8938 11.8831 19.8493 11.5149 19.7859 11.3118C19.7224 11.1086 19.5827 10.8293 19.367 10.4739C19.1511 10.1184 18.9036 9.8137 18.6243 9.55982C18.345 9.3059 18.053 9.09643 17.7483 8.9314C17.4436 8.76634 17.1135 8.75366 16.7581 8.89332C16.4026 9.03294 16.0408 9.10911 15.6726 9.12183C15.3044 9.13452 14.9743 9.09643 14.6824 9.00758C14.3904 8.91868 14.1555 8.82347 13.9778 8.72193C13.8889 8.67113 13.8 8.62036 13.7112 8.56959C13.6541 8.71557 13.5969 8.86156 13.5398 9.00758C13.4827 9.15356 13.4255 9.29954 13.3684 9.44556C13.4636 9.46461 13.5588 9.48365 13.6541 9.50269C13.8445 9.54078 14.1619 9.55346 14.6062 9.54078C15.0505 9.52806 15.2981 9.5471 15.3489 9.59791C15.3997 9.64868 15.4251 9.71849 15.4251 9.80738C15.4251 9.89624 15.406 9.96605 15.3679 10.0169C15.3298 10.0676 15.26 10.1057 15.1585 10.1311C15.0569 10.1565 14.7395 10.1565 14.2063 10.1311C13.6731 10.1057 13.2986 10.0676 13.0828 10.0169C12.8669 9.96605 12.5623 9.86451 12.1687 9.71217C11.7751 9.55982 11.3625 9.34399 10.9309 9.06471C10.4992 8.78538 10.2263 8.58863 10.1121 8.47437C9.99781 8.36012 9.93432 8.25854 9.92164 8.16969C9.90892 8.08079 9.92796 8.00462 9.97877 7.94117C10.0295 7.87768 10.1057 7.84596 10.2073 7.84596C10.3088 7.84596 10.4739 7.94749 10.7024 8.15064C10.9309 8.35375 11.1975 8.53782 11.5022 8.70289C11.6545 8.78538 11.8069 8.86792 11.9592 8.95045C12.01 8.81715 12.0608 8.68385 12.1116 8.55055C12.2131 8.28394 12.2893 8.02366 12.3401 7.76978C12.3909 7.51586 12.3337 7.3318 12.1687 7.21754C12.0036 7.10328 11.699 6.95094 11.2546 6.76051C10.8103 6.57008 10.4675 6.44946 10.2263 6.39869C9.98509 6.34788 9.70581 6.31616 9.38844 6.30347C9.07103 6.29075 8.70921 6.3098 8.30299 6.3606Z" fill="#BE0E0B"/>
</g>
<defs>
<clipPath id="clip0_801_23599">
<rect width="19.5" height="19.5" fill="white" transform="translate(2.25 2.25)"/>
</clipPath>
</defs>
</svg>
