<svg width="32" height="32" viewBox="0 0 32 32" fill="none" xmlns="http://www.w3.org/2000/svg">
<rect x="12" width="20" height="20" rx="10" fill="#0837B6"/>
<rect x="12" width="20" height="20" rx="10" fill="white" fill-opacity="0.9"/>
<path d="M8.96968 8.84478C9.57859 8.48591 10.5179 8.06646 11.0295 7.92055C11.585 7.76212 12.2929 7.69491 12.7319 7.73804C13.2383 7.79564 13.6398 7.98417 14.0082 8.33367C14.3106 8.61784 14.8275 9.21118 15.1641 9.67078C15.6594 10.3545 15.8924 10.8941 16.4171 12.5123C16.7807 13.6208 17.1169 14.8549 17.1796 15.2411C17.262 15.8069 17.2174 16.0385 16.9841 16.2734C16.7113 16.5364 16.6046 16.55 16.2031 16.3614C15.9642 16.2444 15.5329 15.896 15.2554 15.5879C14.9925 15.2757 14.2455 14.5964 13.6205 14.0675C12.9999 13.5543 11.6113 12.6203 10.5485 11.9974C9.40951 11.3289 8.31046 10.8006 7.84346 10.7149C7.41014 10.6365 7.06581 10.4822 7.0684 10.3804C7.09004 10.29 7.27506 10.0521 7.46897 9.84524C7.68192 9.64981 8.35633 9.18808 8.96968 8.84478Z" fill="#BE0E0B"/>
<path d="M15.2725 7.50167C15.1372 7.30454 15.197 7.23699 15.5916 7.12443C15.8592 7.06495 16.3155 7.00216 16.6154 7.0008C16.9592 6.98693 17.4337 7.15462 17.8473 7.44074C18.3038 7.74827 18.7928 8.29907 19.3143 9.09315C19.7423 9.76238 20.3442 10.8198 20.6419 11.4756C20.9542 12.1273 21.375 13.27 21.55 13.9946C21.8241 15.0108 21.874 15.5184 21.7677 16.0875C21.6944 16.4957 21.4724 17.0472 21.2626 17.3091C20.9872 17.6739 20.4819 17.9527 19.3233 18.4346C18.4774 18.7938 17.5234 19.2174 17.2196 19.3714C16.9158 19.5254 15.8721 20.244 14.8811 20.9812C13.8902 21.7184 12.931 22.3456 12.7556 22.3956C12.551 22.4539 12.0338 22.2479 11.3624 21.8333C10.7818 21.4601 9.62443 20.5612 8.81142 19.8166C7.98825 19.0917 6.95044 18.0577 6.49953 17.5297C5.88857 16.8284 5.60604 16.3366 5.34459 15.5862C5.10535 14.9136 5.02615 14.4143 5.07592 13.9792C5.13586 13.5244 5.31774 13.2199 5.86762 12.7095C6.26875 12.3426 6.68319 12.0224 6.78551 11.9932C6.88783 11.964 7.25954 11.9927 7.62996 12.0722C8.00038 12.1518 8.92347 12.5619 9.65783 12.9754C10.3922 13.3889 11.5769 14.1622 12.2985 14.6971C13.0055 15.2363 13.8477 15.9726 14.1532 16.3232C14.4733 16.6696 15.0075 17.157 15.3549 17.3778C15.7069 17.6142 16.2183 17.8555 16.4877 17.9134C16.9591 18.0146 17.057 17.9699 17.6291 17.5373C17.9793 17.2691 18.3074 16.923 18.3697 16.7537C18.4365 16.5999 18.5009 16.1606 18.5201 15.7848C18.5318 15.3269 18.3371 14.4227 17.874 12.8544C17.2821 10.8345 17.1126 10.4619 16.3183 9.17323C15.8255 8.38777 15.3607 7.64486 15.2725 7.50167Z" fill="#BE0E0B"/>
<path d="M19.7123 7.3297C19.7079 7.31413 19.8204 7.26521 19.9665 7.22352C20.1171 7.19739 20.3307 7.17017 20.4654 7.1991C20.6102 7.20828 21.0054 7.26392 21.3714 7.3279C21.7374 7.39188 22.1885 7.5326 22.3644 7.65077C22.5404 7.76895 22.7767 7.98777 22.9132 8.13402C23.0498 8.28027 23.3653 8.99843 23.628 9.69795C23.8952 10.413 24.2995 11.4426 24.4987 11.975C24.7171 12.5188 24.9759 13.371 25.0742 13.8817C25.2022 14.5523 25.1785 14.9127 24.9852 15.2877C24.8109 15.6741 24.5789 15.8581 24.0718 16.0196C23.6962 16.1436 23.3409 16.2281 23.2837 16.1939C23.2164 16.1794 23.167 15.8399 23.1716 15.4682C23.1762 15.0965 22.9784 14.1259 22.7253 13.2385C22.4309 12.2618 22.0031 11.2052 21.56 10.372C21.1816 9.65492 20.6019 8.6754 20.2946 8.20746C19.9726 7.74369 19.7168 7.34527 19.7123 7.3297Z" fill="#BE0E0B"/>
<path d="M25.2558 9.97445C25.1206 9.77732 25.0101 9.55629 25.0114 9.50541C25.0127 9.45453 25.6137 9.78821 26.376 10.2442C27.1192 10.6889 27.9729 11.3545 28.2784 11.7051C28.6251 12.145 28.8975 12.6566 29.0796 13.2949C29.2616 13.9333 29.304 14.3589 29.2067 14.5719C29.1342 14.7609 28.9021 14.945 28.6931 14.9878C28.4986 15.0264 27.9661 15.0436 27.5315 15.016L26.7398 14.9556C25.7711 11.3932 25.3809 10.1913 25.2558 9.97445Z" fill="#BE0E0B"/>
<path d="M3.8067 17.2875L4.14065 16.5188L4.37619 16.9567C4.51015 17.2047 5.10076 17.9454 5.69839 18.6C6.30047 19.27 7.39101 20.3227 8.10558 20.9439C8.82458 21.5806 9.76784 22.3386 10.1814 22.6247L10.9366 23.1669C9.93161 24.0765 9.47201 24.4601 9.27496 24.6005C9.0258 24.7614 8.76652 24.8129 8.49713 24.755C8.26141 24.7044 7.46987 24.2567 6.7381 23.7415C6.01076 23.2418 5.09544 22.5264 4.69912 22.1343C4.17957 21.6428 3.88112 21.206 3.62726 20.5376C3.34102 19.8111 3.29161 19.4716 3.36562 18.8444C3.43444 18.4207 3.61206 17.7134 3.8067 17.2875Z" fill="#BE0E0B"/>
<path d="M3.00857 22.8017L3.07868 22.3272L3.79955 23.0812C4.20031 23.4888 5.12895 24.251 5.8944 24.7734C7.13944 25.6474 7.25248 25.7666 7.06302 25.989C6.94794 26.1397 6.59196 26.4433 6.28112 26.6835C5.95567 26.9278 5.47516 27.1827 5.21206 27.2578C4.94896 27.3328 4.57725 27.3041 4.38667 27.1901C4.16242 27.0689 3.90209 26.6549 3.63806 26.0063C3.42416 25.478 3.18436 24.6372 3.09055 24.1421C3.0158 23.6583 2.98304 23.0447 3.00857 22.8017Z" fill="#BE0E0B"/>
</svg>
