<svg width="32" height="32" viewBox="0 0 32 32" fill="none" xmlns="http://www.w3.org/2000/svg">
<rect x="12" width="20" height="20" rx="10" fill="#0837B6"/>
<rect x="12" width="20" height="20" rx="10" fill="white" fill-opacity="0.9"/>
<g clip-path="url(#clip0_136_9672)">
<path d="M10.6816 4.00789C10.4954 4.0756 10.4192 4.23641 10.4531 4.49032C10.47 4.61727 10.487 4.74422 10.5039 4.87118C10.6732 4.83732 10.8425 4.80347 11.0117 4.76961C11.181 4.73576 11.3503 4.70191 11.5195 4.66805C11.4941 4.55802 11.4687 4.448 11.4434 4.33797C11.3926 4.11792 11.2995 3.99097 11.1641 3.95711C11.0286 3.92326 10.8678 3.94019 10.6816 4.00789ZM11.1387 5.6075C10.8848 5.65828 10.707 5.72599 10.6055 5.81063C10.5039 5.89527 10.4446 6.01375 10.4277 6.1661C10.4108 6.31844 10.4277 6.54696 10.4785 6.85164C10.5293 7.15633 10.6224 7.63875 10.7578 8.29889C10.8932 8.95905 11.0964 9.37378 11.3672 9.54303C11.638 9.71233 11.8581 9.88159 12.0273 10.0508C12.1966 10.2201 12.4167 10.5248 12.6875 10.9649C12.9583 11.405 13.1445 11.8113 13.2461 12.1837C13.3477 12.5561 13.3984 12.9708 13.3984 13.4278C13.3984 13.8848 13.373 14.2234 13.3223 14.4434C13.2969 14.5535 13.2715 14.6635 13.2461 14.7735C14.2194 14.7735 15.1927 14.7735 16.166 14.7735C18.1126 14.7735 19.179 14.6719 19.3652 14.4688C19.4583 14.3672 19.5514 14.2657 19.6445 14.1641C19.2552 13.9102 18.8659 13.6563 18.4766 13.4024C17.6979 12.8946 17.0293 12.3868 16.4707 11.879C15.9121 11.3712 15.4551 10.9141 15.0996 10.5079C14.7441 10.1016 14.3802 9.63616 14.0078 9.11139C13.6354 8.58667 13.2292 7.88419 12.7891 7.00399C12.3489 6.12378 12.0866 5.65828 12.0019 5.6075C11.9173 5.55672 11.8157 5.53133 11.6973 5.53133C11.5788 5.53133 11.3926 5.55672 11.1387 5.6075ZM18.0957 7.5118C17.7064 7.61336 17.3594 7.75724 17.0547 7.94344C16.75 8.12964 16.4792 8.34967 16.2422 8.60358C16.0052 8.85748 15.8275 9.11139 15.709 9.3653C15.5905 9.6192 15.7767 10.0001 16.2676 10.5079C16.7585 11.0157 17.1647 11.405 17.4863 11.6758C17.8079 11.9467 18.1719 12.226 18.5781 12.5137C18.9844 12.8015 19.3737 13.0469 19.7461 13.2501C20.1185 13.4532 20.7448 13.1147 21.625 12.2344C22.5052 11.3542 22.9284 10.7872 22.8945 10.5333C22.8607 10.2794 22.7676 9.98315 22.6152 9.64459C22.4629 9.30608 22.2175 8.95905 21.8789 8.60358C21.5403 8.24811 21.1849 7.9773 20.8125 7.7911C20.4401 7.6049 20.1269 7.48641 19.873 7.43563C19.6191 7.38485 19.3567 7.35946 19.0859 7.35946C18.8151 7.35946 18.485 7.41024 18.0957 7.5118ZM26.0176 9.00983C25.8314 9.22991 25.8314 9.46686 26.0176 9.72076C26.2038 9.97467 26.3561 10.254 26.4746 10.5587C26.5931 10.8633 26.6777 11.1426 26.7285 11.3965C26.7793 11.6505 26.8047 11.9551 26.8047 12.3106C26.8047 12.6661 26.7539 13.0469 26.6523 13.4532C26.5508 13.8594 26.4407 14.1811 26.3223 14.418C26.263 14.5366 26.2038 14.655 26.1445 14.7735C26.3138 14.7735 26.4831 14.7735 26.6523 14.7735C26.9909 14.7735 27.2448 14.5281 27.4141 14.0372C27.5833 13.5463 27.6849 13.1655 27.7187 12.8946C27.7526 12.6238 27.761 12.3106 27.7441 11.9551C27.7272 11.5997 27.668 11.2273 27.5664 10.838C27.4648 10.4487 27.3548 10.127 27.2363 9.87311C27.1179 9.6192 26.9909 9.39069 26.8555 9.18756C26.72 8.98444 26.5931 8.84905 26.4746 8.78131C26.3561 8.71362 26.2038 8.78979 26.0176 9.00983ZM7.71094 9.64459C7.44011 9.71233 7.16927 9.8139 6.89844 9.94928C6.62761 10.0847 6.36523 10.2624 6.11133 10.4825C5.85742 10.7026 5.64584 10.9311 5.47656 11.168C5.30729 11.405 5.14648 11.7605 4.99414 12.2344C4.8418 12.7084 4.76562 13.1062 4.76562 13.4278C4.76562 13.7494 4.79948 14.0457 4.86719 14.3165C4.9349 14.5873 6.19597 14.7312 8.65039 14.7481C11.1048 14.7651 12.3743 14.6212 12.459 14.3165C12.5436 14.0118 12.5859 13.7156 12.5859 13.4278C12.5859 13.1401 12.5436 12.8269 12.459 12.4883C12.3743 12.1498 12.2474 11.8282 12.0781 11.5235C11.9089 11.2188 11.6973 10.9395 11.4434 10.6856C11.1894 10.4317 10.9355 10.2286 10.6816 10.0762C10.4277 9.92389 10.123 9.79694 9.76757 9.69537C9.4121 9.59381 9.04816 9.54303 8.67578 9.54303C8.3034 9.54303 7.98177 9.5769 7.71094 9.64459ZM24.0879 10.9395C23.7578 11.2866 23.4277 11.6335 23.0977 11.9805C23.5801 12.0313 24.0625 12.0821 24.5449 12.1329C25.0273 12.1837 25.5098 12.2344 25.9922 12.2852C25.9499 12.0567 25.9075 11.8282 25.8652 11.5997C25.7806 11.1426 25.679 10.7957 25.5605 10.5587C25.4421 10.3217 25.332 10.1524 25.2305 10.0508C25.1797 10.0001 25.1289 9.94928 25.0781 9.8985C24.748 10.2455 24.418 10.5925 24.0879 10.9395ZM8.75195 10.4317C8.8366 10.4487 8.91277 10.491 8.98046 10.5587C9.04816 10.6264 9.08203 10.7872 9.08203 11.0411C9.08203 11.295 9.04816 11.4643 8.98046 11.5489C8.91277 11.6335 8.81121 11.6758 8.67578 11.6758C8.54034 11.6758 8.43878 11.642 8.37109 11.5743C8.3034 11.5066 8.26953 11.3373 8.26953 11.0665C8.26953 10.7957 8.32879 10.6179 8.44726 10.5333C8.56573 10.4487 8.6673 10.4148 8.75195 10.4317ZM6.89844 11.1934C7 11.2104 7.12695 11.295 7.2793 11.4473C7.43164 11.5997 7.51628 11.7436 7.5332 11.879C7.55013 12.0144 7.5332 12.116 7.48242 12.1837C7.43164 12.2514 7.33854 12.2937 7.20312 12.3106C7.06771 12.3276 6.9069 12.2514 6.7207 12.0821C6.53451 11.9128 6.44141 11.7605 6.44141 11.6251C6.44141 11.4897 6.49219 11.3796 6.59375 11.295C6.69531 11.2104 6.79688 11.1765 6.89844 11.1934ZM10.5039 11.2188C10.6393 11.2188 10.7409 11.2527 10.8086 11.3204C10.8763 11.3881 10.9102 11.4812 10.9102 11.5997C10.9102 11.7182 10.834 11.8621 10.6816 12.0313C10.5293 12.2006 10.3939 12.2937 10.2754 12.3106C10.1569 12.3276 10.0638 12.3191 9.99609 12.2852C9.9284 12.2514 9.87762 12.1583 9.84374 12.0059C9.80987 11.8536 9.87762 11.6843 10.0469 11.4981C10.2161 11.3119 10.3685 11.2188 10.5039 11.2188ZM22.7168 13.7833C22.8014 14.4434 23.2161 14.7735 23.9609 14.7735C24.7057 14.7735 25.1458 14.6804 25.2812 14.4942C25.4167 14.308 25.5521 14.0457 25.6875 13.7071C25.8229 13.3686 25.8737 13.1824 25.8398 13.1485C25.806 13.1147 25.2559 13.0469 24.1894 12.9454C23.6562 12.8946 23.123 12.8438 22.5898 12.793C22.6321 13.1231 22.6745 13.4532 22.7168 13.7833ZM6.33984 13.0723C6.64453 13.0893 6.81381 13.1909 6.84766 13.377C6.88151 13.5632 6.85612 13.6902 6.77148 13.7579C6.68685 13.8256 6.50912 13.851 6.23828 13.834C5.96745 13.8171 5.80664 13.7833 5.75586 13.7325C5.70508 13.6817 5.67969 13.5886 5.67969 13.4532C5.67969 13.3178 5.71354 13.2162 5.78125 13.1485C5.84896 13.0808 6.03516 13.0554 6.33984 13.0723ZM11.0625 13.0469C11.3333 13.0469 11.5026 13.0808 11.5703 13.1485C11.638 13.2162 11.6634 13.3262 11.6465 13.4786C11.6296 13.6309 11.5872 13.7325 11.5195 13.7833C11.4518 13.834 11.2825 13.851 11.0117 13.834C10.7409 13.8171 10.5801 13.7833 10.5293 13.7325C10.4785 13.6817 10.4446 13.6055 10.4277 13.504C10.4108 13.4024 10.4446 13.3008 10.5293 13.1993C10.6139 13.0977 10.7917 13.0469 11.0625 13.0469ZM21.0156 14.0118C20.7786 14.2657 20.5417 14.5196 20.3047 14.7735C20.584 14.7735 20.8633 14.7735 21.1426 14.7735C21.4219 14.7735 21.7012 14.7735 21.9805 14.7735C21.9551 14.5196 21.9297 14.2657 21.9043 14.0118C21.8535 13.504 21.8112 13.2501 21.7773 13.2501C21.7435 13.2501 21.4896 13.504 21.0156 14.0118ZM4.05469 15.7383C3.95312 15.8399 3.92773 16.2631 3.97852 17.0079C4.0293 17.7527 4.14779 18.4636 4.33398 19.1407C4.52018 19.8178 4.7487 20.4441 5.01953 21.0196C5.29037 21.5951 5.62045 22.1622 6.00977 22.7208C6.39909 23.2794 6.78841 23.7618 7.17773 24.168C7.56706 24.5743 7.93099 24.9128 8.26953 25.1837C8.60809 25.4545 9.1159 25.793 9.79296 26.1993C10.47 26.6055 10.8086 26.978 10.8086 27.3165C10.8086 27.655 10.8594 27.8835 10.9609 28.002C11.0625 28.1205 12.7721 28.1713 16.0898 28.1544C19.4075 28.1374 21.1003 28.0782 21.168 27.9766C21.2357 27.8751 21.2695 27.655 21.2695 27.3165C21.2695 26.978 21.3034 26.7748 21.3711 26.7071C21.4388 26.6394 21.6927 26.4955 22.1328 26.2755C22.5729 26.0554 23.03 25.7676 23.5039 25.4122C23.9778 25.0567 24.4434 24.642 24.9004 24.168C25.3574 23.6941 25.7298 23.254 26.0176 22.8477C26.3054 22.4415 26.5677 22.0183 26.8047 21.5782C27.0417 21.1381 27.2363 20.7234 27.3887 20.334C27.541 19.9448 27.668 19.5639 27.7695 19.1915C27.8711 18.8191 27.9642 18.3536 28.0488 17.795C28.1335 17.2364 28.1758 16.7794 28.1758 16.4239C28.1758 16.0684 28.125 15.8399 28.0234 15.7383C27.9219 15.6368 23.9271 15.586 16.0391 15.586C8.15105 15.586 4.15625 15.6368 4.05469 15.7383Z" fill="#BE0E0B"/>
</g>
<defs>
<clipPath id="clip0_136_9672">
<rect width="26" height="26" fill="white" transform="translate(3 3)"/>
</clipPath>
</defs>
</svg>
