<svg width="32" height="32" viewBox="0 0 32 32" fill="none" xmlns="http://www.w3.org/2000/svg">
<rect x="12" width="20" height="20" rx="10" fill="#0837B6"/>
<rect x="12" width="20" height="20" rx="10" fill="white" fill-opacity="0.9"/>
<path d="M6.90576 4.75879C6.8042 4.80957 6.68571 4.91959 6.55029 5.08887C6.41488 5.25814 6.29639 5.49512 6.19482 5.7998C6.09326 6.10449 6.01709 6.42611 5.96631 6.76465C5.91553 7.10319 5.8986 7.73795 5.91553 8.66895C5.93246 9.59992 5.9917 10.4294 6.09326 11.1572C6.19482 11.8851 6.31332 12.5622 6.44873 13.1885C6.58415 13.8148 6.72803 14.1787 6.88037 14.2803C7.03271 14.3818 7.21045 14.5427 7.41357 14.7627C7.6167 14.9827 7.76058 15.1013 7.84521 15.1182C7.92985 15.1351 8.10761 15.0166 8.37843 14.7627C8.64924 14.5088 8.86933 14.3395 9.03858 14.2549C9.20784 14.1702 9.43635 14.111 9.72413 14.0771C10.0119 14.0433 10.2573 14.0518 10.4605 14.1025C10.562 14.1279 10.6636 14.1533 10.7651 14.1787C10.7651 13.7894 10.7651 13.4001 10.7651 13.0107C10.7651 12.2321 10.799 11.665 10.8667 11.3096C10.9344 10.9541 11.0191 10.6409 11.1206 10.3701C11.2222 10.0993 11.0867 9.55762 10.7144 8.74512C10.342 7.93262 9.99495 7.27246 9.67335 6.76465C9.35175 6.25684 8.9878 5.80826 8.58155 5.41895C8.1753 5.02962 7.91293 4.80957 7.79443 4.75879C7.67595 4.70801 7.5236 4.68262 7.3374 4.68262C7.15121 4.68262 7.00732 4.70801 6.90576 4.75879ZM13.6089 6.10449C13.6089 6.30762 13.6089 6.51074 13.6089 6.71387C14.1506 6.71387 14.6922 6.71387 15.2339 6.71387C15.7756 6.71387 16.3172 6.71387 16.8589 6.71387C16.8589 6.51074 16.8589 6.30762 16.8589 6.10449C16.8589 5.90137 16.8589 5.69824 16.8589 5.49512C16.3172 5.49512 15.7756 5.49512 15.2339 5.49512C14.6922 5.49512 14.1506 5.49512 13.6089 5.49512C13.6089 5.69824 13.6089 5.90137 13.6089 6.10449ZM8.7339 7.12012C8.90315 7.15397 8.99628 7.24707 9.01319 7.39941C9.0301 7.55176 8.88624 8.08496 8.58155 8.99902C8.27687 9.91309 8.09913 10.404 8.04834 10.4717C7.99756 10.5394 7.91293 10.5817 7.79443 10.5986C7.67595 10.6155 7.57438 10.5902 7.48975 10.5225C7.40511 10.4548 7.36279 10.3532 7.36279 10.2178C7.36279 10.0823 7.51514 9.5661 7.81982 8.66895C8.12452 7.77181 8.31074 7.28092 8.37843 7.19629C8.44612 7.11165 8.56464 7.08626 8.7339 7.12012ZM14.0151 8.13574C14.0151 8.54199 13.8882 8.7959 13.6343 8.89746C13.3804 8.99902 13.1011 9.18524 12.7964 9.45605C12.4917 9.72687 12.2717 9.96387 12.1362 10.167C12.0008 10.3701 11.8908 10.5817 11.8062 10.8018C11.7215 11.0218 11.6623 11.208 11.6284 11.3604C11.5946 11.5127 11.5776 12.139 11.5776 13.2393C11.5776 14.3395 11.6369 14.9319 11.7554 15.0166C11.8739 15.1013 11.9754 15.1351 12.0601 15.1182C12.1447 15.1013 12.3225 14.9573 12.5933 14.6865C12.8641 14.4157 13.135 14.238 13.4058 14.1533C13.6766 14.0687 13.9813 14.0518 14.3198 14.1025C14.6584 14.1533 14.9292 14.2464 15.1323 14.3818C15.3355 14.5173 15.5047 14.6696 15.6401 14.8389C15.7756 15.0081 15.8771 15.1013 15.9448 15.1182C15.9787 15.1266 16.0125 15.1351 16.0464 15.1436C16.0379 14.8558 16.0295 14.5681 16.021 14.2803C16.0041 13.7048 16.0549 13.1716 16.1734 12.6807C16.2918 12.1898 16.478 11.7158 16.7319 11.2588C16.9859 10.8018 17.2567 10.4378 17.5444 10.167C17.6883 10.0316 17.8322 9.89618 17.9761 9.76074C17.883 9.66766 17.7899 9.57453 17.6968 9.48145C17.5106 9.29523 17.2567 9.12598 16.9351 8.97363C16.6135 8.82129 16.4526 8.54199 16.4526 8.13574C16.4526 7.93262 16.4526 7.72949 16.4526 7.52637C16.0464 7.52637 15.6401 7.52637 15.2339 7.52637C14.8276 7.52637 14.4214 7.52637 14.0151 7.52637C14.0151 7.72949 14.0151 7.93262 14.0151 8.13574ZM22.6733 8.89746C22.4194 8.99902 22.2248 9.10907 22.0894 9.22754C21.9539 9.34601 21.8016 9.54914 21.6323 9.83691C21.4631 10.1247 21.3699 10.3278 21.353 10.4463C21.3446 10.5056 21.3361 10.5648 21.3276 10.624C21.2261 10.5309 21.1245 10.4378 21.023 10.3447C20.8198 10.1585 20.5913 10.0231 20.3374 9.93848C20.0835 9.85382 19.8296 9.82843 19.5757 9.8623C19.3218 9.89618 19.051 9.99774 18.7632 10.167C18.4754 10.3362 18.1961 10.5817 17.9253 10.9033C17.6545 11.2249 17.4344 11.5635 17.2651 11.9189C17.0959 12.2744 16.9689 12.6468 16.8843 13.0361C16.7996 13.4255 16.7573 13.7725 16.7573 14.0771C16.7573 14.2295 16.7573 14.3818 16.7573 14.5342C16.8928 14.458 17.0282 14.3818 17.1636 14.3057C17.4344 14.1533 17.7307 14.0771 18.0523 14.0771C18.3739 14.0771 18.6362 14.1194 18.8394 14.2041C19.0425 14.2888 19.271 14.458 19.5249 14.7119C19.7788 14.9658 19.9481 15.1013 20.0327 15.1182C20.1174 15.1351 20.3205 14.9997 20.6421 14.7119C20.9637 14.4241 21.2092 14.2464 21.3784 14.1787C21.5477 14.111 21.7508 14.0687 21.9878 14.0518C22.2248 14.0348 22.5041 14.0856 22.8257 14.2041C23.1473 14.3226 23.4182 14.5003 23.6382 14.7373C23.8582 14.9743 24.036 15.0928 24.1714 15.0928C24.3068 15.0928 24.4592 15.0081 24.6284 14.8389C24.7977 14.6696 24.8992 14.5173 24.9331 14.3818C24.967 14.2464 24.9754 13.9248 24.9585 13.417C24.9416 12.9092 24.8654 12.4775 24.73 12.1221C24.5946 11.7666 24.4338 11.4873 24.2476 11.2842C24.0614 11.0811 23.8836 10.9372 23.7144 10.8525C23.5451 10.7679 23.3335 10.7171 23.0796 10.7002C22.8257 10.6833 22.6057 10.7087 22.4194 10.7764C22.3264 10.8102 22.2332 10.8441 22.1401 10.8779C22.1486 10.8187 22.1571 10.7595 22.1655 10.7002C22.1824 10.5817 22.2671 10.404 22.4194 10.167C22.5718 9.93 22.7495 9.76922 22.9526 9.68457C23.1558 9.59992 23.3674 9.5661 23.5874 9.58301C23.8074 9.59992 23.9683 9.5661 24.0698 9.48145C24.1714 9.39679 24.2053 9.26984 24.1714 9.10059C24.1375 8.93133 24.0867 8.82977 24.0191 8.7959C23.9514 8.76203 23.7736 8.74512 23.4858 8.74512C23.1981 8.74512 22.9273 8.7959 22.6733 8.89746ZM9.72413 10.2432C9.87647 10.2939 9.96113 10.387 9.97804 10.5225C9.99495 10.6579 9.8426 11.1995 9.52101 12.1475C9.19941 13.0954 9.00471 13.5947 8.93702 13.6455C8.86933 13.6963 8.7762 13.7217 8.65772 13.7217C8.53925 13.7217 8.44612 13.6794 8.37843 13.5947C8.31074 13.5101 8.27687 13.4255 8.27687 13.3408C8.27687 13.2562 8.43769 12.7399 8.75929 11.792C9.08089 10.8441 9.28401 10.3362 9.36866 10.2686C9.45331 10.2009 9.57179 10.1924 9.72413 10.2432ZM5.89014 21.1357C5.89014 23.2347 5.89014 25.3337 5.89014 27.4326C8.53077 27.4326 11.1714 27.4326 13.812 27.4326C16.4526 27.4326 19.0933 27.4326 21.7339 27.4326C21.7339 25.3421 21.7339 23.2516 21.7339 21.1611C21.7339 19.0706 21.7339 16.9802 21.7339 14.8896C21.6916 14.9066 21.6492 14.9235 21.6069 14.9404C21.5223 14.9743 21.3784 15.1013 21.1753 15.3213C20.9722 15.5413 20.786 15.6937 20.6167 15.7783C20.4475 15.863 20.2781 15.9053 20.1089 15.9053C19.9396 15.9053 19.7788 15.8714 19.6265 15.8037C19.4741 15.736 19.2964 15.5921 19.0933 15.3721C18.8901 15.152 18.7209 15.0081 18.5855 14.9404C18.45 14.8727 18.2808 14.8389 18.0776 14.8389C17.8745 14.8389 17.7137 14.8643 17.5952 14.915C17.4768 14.9658 17.3159 15.1013 17.1128 15.3213C16.9097 15.5413 16.7235 15.6937 16.5542 15.7783C16.385 15.863 16.2157 15.9053 16.0464 15.9053C15.8771 15.9053 15.7163 15.8714 15.564 15.8037C15.4116 15.736 15.1916 15.5667 14.9038 15.2959C14.616 15.0251 14.3452 14.8812 14.0913 14.8643C13.8374 14.8473 13.6512 14.8643 13.5327 14.915C13.4143 14.9658 13.2449 15.1097 13.0249 15.3467C12.8049 15.5837 12.6187 15.736 12.4663 15.8037C12.314 15.8714 12.1532 15.9053 11.9839 15.9053C11.8146 15.9053 11.6538 15.8714 11.5015 15.8037C11.3491 15.736 11.1629 15.5837 10.9429 15.3467C10.7228 15.1097 10.5535 14.9658 10.4351 14.915C10.3166 14.8643 10.1558 14.8389 9.95265 14.8389C9.74952 14.8389 9.5887 14.8643 9.47022 14.915C9.35175 14.9658 9.16554 15.1182 8.91163 15.3721C8.65772 15.626 8.47151 15.7783 8.35304 15.8291C8.23456 15.8799 8.09065 15.9053 7.92139 15.9053C7.75212 15.9053 7.59131 15.8714 7.43896 15.8037C7.28662 15.736 7.0835 15.5752 6.82959 15.3213C6.57568 15.0674 6.35563 14.9235 6.16943 14.8896C6.07634 14.8727 5.98324 14.8558 5.89014 14.8389C5.89014 16.9378 5.89014 19.0368 5.89014 21.1357ZM25.7202 14.915C25.6018 14.9658 25.4409 15.1013 25.2378 15.3213C25.0347 15.5413 24.8485 15.6937 24.6792 15.7783C24.51 15.863 24.2899 15.8884 24.0191 15.8545C23.7482 15.8206 23.4858 15.6768 23.2319 15.4229C22.978 15.1689 22.8003 15.0166 22.6987 14.9658C22.648 14.9404 22.5972 14.915 22.5464 14.8896C22.5464 16.9802 22.5464 19.0706 22.5464 21.1611C22.5464 23.2516 22.5464 25.3421 22.5464 27.4326C23.1558 27.4326 23.7651 27.4326 24.3745 27.4326C24.9839 27.4326 25.5933 27.4326 26.2026 27.4326C26.2026 25.3337 26.2026 23.2347 26.2026 21.1357C26.2026 19.0368 26.2026 16.9378 26.2026 14.8389C26.1519 14.8389 26.1011 14.8389 26.0503 14.8389C25.9487 14.8389 25.8387 14.8643 25.7202 14.915Z" fill="#BE0E0B"/>
</svg>
