<svg width="32" height="32" viewBox="0 0 32 32" fill="none" xmlns="http://www.w3.org/2000/svg">
<rect x="12" width="20" height="20" rx="10" fill="#0837B6"/>
<rect x="12" width="20" height="20" rx="10" fill="white" fill-opacity="0.9"/>
<path d="M17.3672 4.18964C17.0456 4.29966 16.724 4.40969 16.4024 4.51971C16.47 4.72284 16.5377 4.92596 16.6055 5.12909C16.7409 5.53534 16.8678 6.08547 16.9863 6.77948C17.1048 7.47349 17.1641 8.20136 17.1641 8.96308C17.1641 9.7248 17.1217 10.3257 17.0371 10.7658C16.9525 11.2059 16.8678 11.5275 16.7832 11.7307C16.6986 11.9338 16.6563 12.0607 16.6563 12.1115C16.6563 12.1623 16.707 12.2131 16.8086 12.2639C16.9102 12.3146 16.9863 12.34 17.0371 12.34C17.0879 12.34 17.1979 12.1453 17.3672 11.7561C17.5365 11.3667 17.7481 10.6643 18.002 9.64863C18.2559 8.63301 18.4082 7.8882 18.459 7.41425C18.5098 6.94028 18.5352 6.32245 18.5352 5.56073C18.5352 4.79901 18.5267 4.32505 18.5098 4.13885C18.4928 3.95266 18.459 3.85956 18.4082 3.85956C18.3574 3.85956 18.0104 3.96958 17.3672 4.18964ZM21.6582 8.27754C21.2689 8.3791 20.9557 8.49757 20.7188 8.63301C20.4818 8.76839 20.2025 8.98847 19.8809 9.29316C19.5592 9.59785 19.2884 9.91097 19.0684 10.2326C18.9583 10.3934 18.8483 10.5542 18.7383 10.715C18.9245 10.8081 19.1107 10.9012 19.2969 10.9943C19.6693 11.1805 20.084 11.2905 20.541 11.3244C20.9981 11.3582 21.3789 11.3328 21.6836 11.2482C21.9883 11.1636 22.293 11.0366 22.5977 10.8674C22.9024 10.6981 23.3678 10.3003 23.9942 9.67402C24.3073 9.36085 24.6204 9.04769 24.9336 8.73457C24.722 8.64144 24.5104 8.54835 24.2988 8.45527C23.8756 8.26906 23.4271 8.16749 22.9531 8.15058C22.4791 8.13362 22.0475 8.17597 21.6582 8.27754ZM11.0703 8.48066C10.5286 8.54835 9.97853 8.68379 9.41993 8.88691C8.86134 9.09004 8.41274 9.31007 8.07422 9.54707C7.73568 9.78401 7.38867 10.1226 7.0332 10.5627C6.67773 11.0028 6.39844 11.4514 6.19531 11.9084C5.99219 12.3654 5.82291 12.9409 5.6875 13.635C5.55208 14.3289 5.48438 15.0653 5.48438 15.8439C5.48438 16.6226 5.53516 17.3674 5.63672 18.0783C5.73828 18.7893 5.89909 19.5425 6.11914 20.3381C6.33919 21.1336 6.60156 21.8784 6.90625 22.5725C7.21094 23.2664 7.51563 23.8504 7.82031 24.3244C8.12501 24.7984 8.46352 25.23 8.83595 25.6193C9.20833 26.0086 9.47914 26.2625 9.64845 26.3811C9.8177 26.4995 9.97853 26.5842 10.1309 26.635C10.2832 26.6857 10.6133 26.6688 11.1211 26.5842C11.6289 26.4995 11.9928 26.4657 12.2129 26.4826C12.4329 26.4995 12.6699 26.5672 12.9238 26.6857C13.1777 26.8042 13.457 27.0242 13.7617 27.3459C14.0664 27.6675 14.3118 27.8875 14.4981 28.0061C14.6842 28.1245 14.9889 28.1838 15.4121 28.1838C15.8353 28.1838 16.36 28.0822 16.9863 27.8791C17.6126 27.676 18.1966 27.439 18.7383 27.1682C19.2799 26.8973 20.0163 26.4234 20.9473 25.7463C21.8783 25.0692 22.6738 24.409 23.334 23.7658C23.9942 23.1226 24.5274 22.4963 24.9336 21.8869C25.3399 21.2775 25.6699 20.6512 25.9238 20.008C26.1777 19.3648 26.3555 18.8062 26.457 18.3322C26.5586 17.8582 26.5924 17.2658 26.5586 16.5549C26.5247 15.8439 26.4655 15.353 26.3809 15.0822C26.2962 14.8114 26.11 14.439 25.8223 13.965C25.5345 13.491 25.2044 13.0848 24.832 12.7463C24.4596 12.4077 24.0703 12.1284 23.6641 11.9084C23.2578 11.6883 22.8177 11.6714 22.3438 11.8576C21.8698 12.0438 21.3873 12.1453 20.8965 12.1623C20.4056 12.1792 19.9655 12.1284 19.5762 12.01C19.1868 11.8914 18.8737 11.7645 18.6367 11.6291C18.5182 11.5614 18.3997 11.4937 18.2813 11.426C18.2051 11.6206 18.1289 11.8153 18.0527 12.01C17.9766 12.2046 17.9004 12.3992 17.8242 12.5939C17.9512 12.6193 18.0781 12.6447 18.2051 12.6701C18.459 12.7209 18.8822 12.7378 19.4746 12.7209C20.067 12.7039 20.3971 12.7293 20.4649 12.7971C20.5325 12.8648 20.5664 12.9578 20.5664 13.0764C20.5664 13.1948 20.541 13.2879 20.4902 13.3557C20.4395 13.4234 20.3463 13.4741 20.2109 13.508C20.0755 13.5418 19.6524 13.5418 18.9414 13.508C18.2305 13.4741 17.7311 13.4234 17.4434 13.3557C17.1556 13.2879 16.7493 13.1525 16.2246 12.9494C15.6998 12.7463 15.1497 12.4585 14.5742 12.0861C13.9987 11.7137 13.6348 11.4514 13.4824 11.299C13.3301 11.1467 13.2454 11.0112 13.2285 10.8928C13.2116 10.7742 13.237 10.6727 13.3047 10.5881C13.3724 10.5034 13.474 10.4611 13.6094 10.4611C13.7448 10.4611 13.9649 10.5965 14.2695 10.8674C14.5742 11.1382 14.9297 11.3836 15.3359 11.6037C15.5391 11.7137 15.7422 11.8237 15.9453 11.9338C16.013 11.7561 16.0807 11.5783 16.1484 11.4006C16.2838 11.0451 16.3854 10.6981 16.4531 10.3596C16.5208 10.021 16.4447 9.77558 16.2246 9.62324C16.0045 9.4709 15.5983 9.26777 15.0059 9.01386C14.4134 8.75996 13.9564 8.59913 13.6348 8.53144C13.3131 8.4637 12.9407 8.4214 12.5176 8.40449C12.0944 8.38753 11.612 8.41292 11.0703 8.48066Z" fill="#BE0E0B"/>
</svg>
