<svg width="32" height="32" viewBox="0 0 32 32" fill="none" xmlns="http://www.w3.org/2000/svg">
<rect x="12" width="20" height="20" rx="10" fill="#0837B6"/>
<rect x="12" width="20" height="20" rx="10" fill="white" fill-opacity="0.9"/>
<path d="M16.0508 5.08203C16.0508 5.35286 16.0508 5.6237 16.0508 5.89453C16.457 5.89453 16.8633 5.89453 17.2695 5.89453C17.6758 5.89453 18.082 5.89453 18.4883 5.89453C18.4883 5.6237 18.4883 5.35286 18.4883 5.08203C18.4883 4.8112 18.4883 4.54036 18.4883 4.26953C18.082 4.26953 17.6758 4.26953 17.2695 4.26953C16.8633 4.26953 16.457 4.26953 16.0508 4.26953C16.0508 4.54036 16.0508 4.8112 16.0508 5.08203ZM15.2891 7.0625C15.0182 7.29948 14.8236 7.50261 14.7051 7.67188C14.5866 7.84114 14.4681 8.05273 14.3496 8.30664C14.2311 8.56055 14.1465 8.79754 14.0957 9.01758C14.0449 9.23761 14.0195 11.1419 14.0195 14.7305C14.0195 16.5247 14.0195 18.319 14.0195 20.1133C16.3216 20.1133 18.6237 20.1133 20.9258 20.1133C23.2278 20.1133 25.53 20.1133 27.832 20.1133C27.832 19.3262 27.832 18.5391 27.832 17.752C27.832 16.1777 27.8151 15.2722 27.7812 15.0352C27.7474 14.7982 27.6543 14.4427 27.502 13.9688C27.3496 13.4948 27.1042 12.987 26.7656 12.4453C26.4271 11.9036 26.1139 11.4889 25.8262 11.2012C25.5384 10.9134 25.2507 10.668 24.9629 10.4648C24.6751 10.2617 23.5833 9.58465 21.6875 8.43359C19.7917 7.28255 18.319 6.70703 17.2695 6.70703C16.22 6.70703 15.5599 6.82552 15.2891 7.0625ZM17.4727 8.78906C17.7097 8.82293 17.972 8.94989 18.2598 9.16992C18.5475 9.38996 18.7507 9.61004 18.8691 9.83008C18.9876 10.0501 19.0892 10.3464 19.1738 10.7188C19.2585 11.0911 19.2923 11.4466 19.2754 11.7852C19.2585 12.1237 19.1738 12.4961 19.0215 12.9023C18.8691 13.3086 18.6829 13.6218 18.4629 13.8418C18.2429 14.0618 18.0143 14.2142 17.7773 14.2988C17.5403 14.3835 17.3034 14.4089 17.0664 14.375C16.8294 14.3411 16.5671 14.2142 16.2793 13.9941C15.9915 13.7741 15.7884 13.554 15.6699 13.334C15.5514 13.1139 15.4499 12.8177 15.3652 12.4453C15.2806 12.0729 15.2552 11.6751 15.2891 11.252C15.3229 10.8288 15.4075 10.4564 15.543 10.1348C15.6784 9.81317 15.8392 9.55078 16.0254 9.34766C16.2116 9.14453 16.4401 8.99219 16.7109 8.89062C16.9818 8.78906 17.2357 8.75519 17.4727 8.78906ZM16.7363 9.7793C16.5501 9.93164 16.4147 10.084 16.3301 10.2363C16.2454 10.3887 16.1777 10.5664 16.127 10.7695C16.0762 10.9727 16.0508 11.2435 16.0508 11.582C16.0508 11.9206 16.1185 12.2676 16.2539 12.623C16.3893 12.9785 16.5501 13.2324 16.7363 13.3848C16.9225 13.5371 17.1003 13.6133 17.2695 13.6133C17.4388 13.6133 17.6165 13.5371 17.8027 13.3848C17.9889 13.2324 18.1328 13.0547 18.2344 12.8516C18.3359 12.6484 18.4036 12.3014 18.4375 11.8105C18.4714 11.3196 18.4206 10.8965 18.2852 10.541C18.1497 10.1855 17.9889 9.93164 17.8027 9.7793C17.6165 9.62695 17.4388 9.55078 17.2695 9.55078C17.1003 9.55078 16.9225 9.62695 16.7363 9.7793ZM5.48828 10.3633C5.48828 10.4987 5.48828 10.6341 5.48828 10.7695C5.84375 10.7695 6.19922 10.7695 6.55469 10.7695C7.26562 10.7695 7.66341 10.8034 7.74805 10.8711C7.83268 10.9388 8.0612 11.4128 8.43359 12.293C8.80597 13.1732 9.28839 13.6133 9.88086 13.6133C10.1771 13.6133 10.4733 13.6133 10.7695 13.6133C10.7695 13.4609 10.7695 13.3086 10.7695 13.1562C10.7695 12.8516 10.8034 12.6569 10.8711 12.5723C10.9388 12.4876 11.2689 12.3522 11.8613 12.166C12.1575 12.0729 12.4538 11.9798 12.75 11.8867C12.3353 11.5651 11.9206 11.2435 11.5059 10.9219C10.6764 10.2786 9.46613 9.95703 7.875 9.95703C7.07943 9.95703 6.28386 9.95703 5.48828 9.95703C5.48828 10.0925 5.48828 10.2278 5.48828 10.3633ZM22.043 10.0332C22.3477 10.084 22.8216 10.3125 23.4648 10.7188C24.1081 11.125 24.5905 11.472 24.9121 11.7598C25.2337 12.0475 25.53 12.3776 25.8008 12.75C26.0716 13.1224 26.3001 13.5286 26.4863 13.9688C26.6725 14.4089 26.7995 14.7897 26.8672 15.1113C26.9349 15.4329 26.9772 16.1608 26.9941 17.2949C27.0111 18.429 26.9857 19.0384 26.918 19.123C26.8503 19.2077 26.4778 19.2585 25.8008 19.2754C25.1237 19.2923 24.6074 19.2415 24.252 19.123C23.8965 19.0046 23.1771 18.4036 22.0938 17.3203C21.0104 16.237 20.4095 15.5176 20.291 15.1621C20.1725 14.8066 20.1133 14.0957 20.1133 13.0293C20.1133 11.9629 20.1556 11.3112 20.2402 11.0742C20.3249 10.8372 20.4264 10.6511 20.5449 10.5156C20.6634 10.3802 20.8665 10.2532 21.1543 10.1348C21.4421 10.0163 21.7383 9.98242 22.043 10.0332ZM5.74219 12.0645C5.67448 12.3861 5.54753 12.6992 5.36133 13.0039C5.26823 13.1562 5.17513 13.3086 5.08203 13.4609C5.1582 13.4355 5.23438 13.4102 5.31055 13.3848C5.46289 13.334 5.60677 13.2578 5.74219 13.1562C5.87761 13.0547 6.04688 12.86 6.25 12.5723C6.45312 12.2845 6.57161 12.0475 6.60547 11.8613C6.62239 11.7682 6.63932 11.6751 6.65625 11.582C6.52083 11.582 6.38542 11.582 6.25 11.582C5.97917 11.582 5.80989 11.7429 5.74219 12.0645ZM8.33203 14.832C8.33203 14.9675 8.33203 15.1028 8.33203 15.2383C8.87371 15.2383 9.41535 15.2383 9.95703 15.2383C10.4987 15.2383 11.0403 15.2383 11.582 15.2383C11.582 15.1028 11.582 14.9675 11.582 14.832C11.582 14.6966 11.582 14.5612 11.582 14.4258C11.0403 14.4258 10.4987 14.4258 9.95703 14.4258C9.41535 14.4258 8.87371 14.4258 8.33203 14.4258C8.33203 14.5612 8.33203 14.6966 8.33203 14.832ZM9.09375 16.5332C9.05988 16.8548 8.94989 17.0833 8.76367 17.2188C8.57746 17.3542 8.45898 17.4642 8.4082 17.5488C8.35742 17.6335 8.34051 17.7604 8.35742 17.9297C8.37433 18.0989 8.49286 18.2767 8.71289 18.4629C8.93293 18.6491 9.05988 18.793 9.09375 18.8945C9.12762 18.9961 9.12762 19.1569 9.09375 19.377C9.05988 19.597 8.98371 19.7917 8.86523 19.9609C8.74676 20.1302 8.56055 20.2825 8.30664 20.418C8.05273 20.5534 7.84961 20.6888 7.69727 20.8242C7.54492 20.9597 7.41797 21.1458 7.31641 21.3828C7.26562 21.5013 7.21484 21.6198 7.16406 21.7383C8.17121 21.7383 9.1784 21.7383 10.1855 21.7383C11.1927 21.7383 12.1999 21.7383 13.207 21.7383C13.207 21.569 13.207 21.3997 13.207 21.2305C13.207 20.8919 13.1562 20.4688 13.0547 19.9609C12.9531 19.4531 12.86 19.0807 12.7754 18.8438C12.6907 18.6068 12.4961 18.2175 12.1914 17.6758C11.8867 17.1341 11.6159 16.7278 11.3789 16.457C11.1419 16.1862 10.7103 16.0508 10.084 16.0508C9.4577 16.0508 9.12762 16.2116 9.09375 16.5332ZM14.0195 23.3633C14.0195 24.1758 14.0195 24.9883 14.0195 25.8008C16.3216 25.8008 18.6237 25.8008 20.9258 25.8008C23.2278 25.8008 25.53 25.8008 27.832 25.8008C27.832 24.9883 27.832 24.1758 27.832 23.3633C27.832 22.5508 27.832 21.7383 27.832 20.9258C25.53 20.9258 23.2278 20.9258 20.9258 20.9258C18.6237 20.9258 16.3216 20.9258 14.0195 20.9258C14.0195 21.7383 14.0195 22.5508 14.0195 23.3633ZM7.11328 24.3789C7.11328 24.9883 7.11328 25.5977 7.11328 26.207C8.12891 26.207 9.14453 26.207 10.1602 26.207C11.1758 26.207 12.1914 26.207 13.207 26.207C13.207 25.5977 13.207 24.9883 13.207 24.3789C13.207 23.7695 13.207 23.1602 13.207 22.5508C12.1914 22.5508 11.1758 22.5508 10.1602 22.5508C9.14453 22.5508 8.12891 22.5508 7.11328 22.5508C7.11328 23.1602 7.11328 23.7695 7.11328 24.3789ZM14.0195 26.7656C14.0195 26.8672 14.0618 27.0026 14.1465 27.1719C14.2311 27.3411 14.3835 27.4935 14.6035 27.6289C14.8236 27.7643 16.931 27.832 20.9258 27.832C24.9206 27.832 27.0026 27.7897 27.1719 27.7051C27.3411 27.6204 27.4935 27.4681 27.6289 27.248C27.7643 27.028 27.832 26.8672 27.832 26.7656C27.832 26.7148 27.832 26.6641 27.832 26.6133C25.53 26.6133 23.2278 26.6133 20.9258 26.6133C18.6237 26.6133 16.3216 26.6133 14.0195 26.6133C14.0195 26.6641 14.0195 26.7148 14.0195 26.7656ZM7.11328 27.4258C7.11328 27.5612 7.11328 27.6966 7.11328 27.832C8.12891 27.832 9.14453 27.832 10.1602 27.832C11.1758 27.832 12.1914 27.832 13.207 27.832C13.207 27.6966 13.207 27.5612 13.207 27.4258C13.207 27.2903 13.207 27.155 13.207 27.0195C12.1914 27.0195 11.1758 27.0195 10.1602 27.0195C9.14453 27.0195 8.12891 27.0195 7.11328 27.0195C7.11328 27.155 7.11328 27.2903 7.11328 27.4258Z" fill="#BE0E0B"/>
</svg>
