<svg width="32" height="32" viewBox="0 0 32 32" fill="none" xmlns="http://www.w3.org/2000/svg">
<rect x="12" width="20" height="20" rx="10" fill="#0837B6"/>
<rect x="12" width="20" height="20" rx="10" fill="white" fill-opacity="0.9"/>
<g clip-path="url(#clip0_138_10008)">
<mask id="mask0_138_10008" style="mask-type:luminance" maskUnits="userSpaceOnUse" x="3" y="3" width="26" height="26">
<path d="M29 3H3V29H29V3Z" fill="white"/>
</mask>
<g mask="url(#mask0_138_10008)">
<path d="M5.91992 3.10156C5.83528 3.13542 5.74219 3.22852 5.64062 3.38086C5.53906 3.5332 5.48828 3.8125 5.48828 4.21875C5.48828 4.625 5.53906 4.9043 5.64062 5.05664C5.74219 5.20898 5.91146 5.30208 6.14844 5.33594C6.38542 5.36979 6.58854 5.30208 6.75781 5.13281C6.92708 4.96354 7.01172 4.65886 7.01172 4.21875C7.01172 3.77864 6.96094 3.49089 6.85938 3.35547C6.75781 3.22005 6.597 3.13542 6.37695 3.10156C6.1569 3.06771 6.00456 3.06771 5.91992 3.10156ZM9.11914 3.15234C9.00067 3.22005 8.90754 3.32161 8.83984 3.45703C8.77215 3.59245 8.73828 3.84636 8.73828 4.21875C8.73828 4.59114 8.80597 4.87044 8.94141 5.05664C9.07684 5.24284 9.24609 5.3444 9.44922 5.36133C9.65234 5.37825 9.81317 5.35286 9.93164 5.28516C10.0501 5.21745 10.1432 5.11589 10.2109 4.98047C10.2786 4.84505 10.3125 4.59114 10.3125 4.21875C10.3125 3.84636 10.2532 3.57552 10.1348 3.40625C10.0163 3.23698 9.84699 3.13542 9.62695 3.10156C9.40692 3.06771 9.23761 3.08464 9.11914 3.15234ZM12.293 3.30469C12.1237 3.47396 12.0391 3.78711 12.0391 4.24414C12.0391 4.70117 12.1237 5.00586 12.293 5.1582C12.4622 5.31055 12.6315 5.38672 12.8008 5.38672C12.97 5.38672 13.1139 5.3444 13.2324 5.25977C13.3509 5.17513 13.4355 5.08203 13.4863 4.98047C13.5371 4.87891 13.5625 4.625 13.5625 4.21875C13.5625 3.8125 13.4948 3.52474 13.3594 3.35547C13.2239 3.1862 13.0547 3.0931 12.8516 3.07617C12.6484 3.05924 12.4622 3.13542 12.293 3.30469ZM15.543 3.30469C15.3737 3.47396 15.2891 3.77864 15.2891 4.21875C15.2891 4.65886 15.3398 4.94661 15.4414 5.08203C15.543 5.21745 15.7122 5.30208 15.9492 5.33594C16.1862 5.36979 16.3893 5.30208 16.5586 5.13281C16.7278 4.96354 16.8125 4.65886 16.8125 4.21875C16.8125 3.77864 16.7617 3.49089 16.6602 3.35547C16.5586 3.22005 16.3893 3.13542 16.1523 3.10156C15.9153 3.06771 15.7122 3.13542 15.543 3.30469ZM18.9453 3.12695C18.8438 3.17773 18.7507 3.27083 18.666 3.40625C18.5814 3.54167 18.5391 3.8125 18.5391 4.21875C18.5391 4.625 18.5898 4.9043 18.6914 5.05664C18.793 5.20898 18.9622 5.30208 19.1992 5.33594C19.4362 5.36979 19.6309 5.32747 19.7832 5.20898C19.9355 5.0905 20.0286 4.81966 20.0625 4.39648C20.0964 3.97331 20.054 3.66016 19.9355 3.45703C19.8171 3.25391 19.6478 3.13542 19.4277 3.10156C19.2077 3.06771 19.0469 3.07617 18.9453 3.12695ZM22.1191 3.22852C21.9668 3.347 21.8737 3.44857 21.8398 3.5332C21.806 3.61784 21.7891 3.84636 21.7891 4.21875C21.7891 4.59114 21.8568 4.87044 21.9922 5.05664C22.1276 5.24284 22.2969 5.3444 22.5 5.36133C22.7031 5.37825 22.8639 5.35286 22.9824 5.28516C23.1009 5.21745 23.194 5.11589 23.2617 4.98047C23.3294 4.84505 23.3633 4.59114 23.3633 4.21875C23.3633 3.84636 23.2956 3.56706 23.1602 3.38086C23.0247 3.19466 22.8555 3.0931 22.6523 3.07617C22.4492 3.05924 22.2715 3.11003 22.1191 3.22852ZM25.3438 3.30469C25.1745 3.47396 25.0898 3.77864 25.0898 4.21875C25.0898 4.65886 25.1406 4.94661 25.2422 5.08203C25.3438 5.21745 25.513 5.30208 25.75 5.33594C25.987 5.36979 26.1647 5.3444 26.2832 5.25977C26.4017 5.17513 26.4863 5.08203 26.5371 4.98047C26.5879 4.87891 26.6133 4.625 26.6133 4.21875C26.6133 3.8125 26.5456 3.52474 26.4102 3.35547C26.2747 3.1862 26.1055 3.0931 25.9023 3.07617C25.6992 3.05924 25.513 3.13542 25.3438 3.30469ZM5.89453 7.21484C5.75911 7.28255 5.65755 7.37565 5.58984 7.49414C5.52214 7.61263 5.48828 7.83268 5.48828 8.1543C5.48828 8.47589 5.52214 8.88214 5.58984 9.37305C5.65755 9.86395 5.79297 10.431 5.99609 11.0742C6.19922 11.7175 6.39388 12.2253 6.58008 12.5977C6.76628 12.97 6.99479 13.3594 7.26562 13.7656C7.53646 14.1719 7.94271 14.6543 8.48438 15.2129C9.02606 15.7715 9.58465 16.2454 10.1602 16.6348C10.7357 17.0241 11.3789 17.3626 12.0898 17.6504C12.8008 17.9382 13.5117 18.1413 14.2227 18.2598C14.9336 18.3782 15.2891 19.1738 15.2891 20.6465C15.2891 22.1191 15.2552 22.9909 15.1875 23.2617C15.1198 23.5325 15.0352 23.7526 14.9336 23.9219C14.832 24.0911 14.6966 24.2604 14.5273 24.4297C14.3581 24.5989 13.9941 24.9036 13.4355 25.3438C13.1562 25.5638 12.877 25.7839 12.5977 26.0039C13.7487 26.0039 14.8997 26.0039 16.0508 26.0039C17.2018 26.0039 18.3528 26.0039 19.5039 26.0039C19.2246 25.7839 18.9453 25.5638 18.666 25.3438C18.1074 24.9036 17.7435 24.5989 17.5742 24.4297C17.405 24.2604 17.2695 24.0911 17.168 23.9219C17.0664 23.7526 16.9818 23.5325 16.9141 23.2617C16.8464 22.9909 16.8125 22.1191 16.8125 20.6465C16.8125 19.1738 17.0664 18.4036 17.5742 18.3359C18.082 18.2682 18.6914 18.1159 19.4023 17.8789C20.1133 17.6419 20.7819 17.3372 21.4082 16.9648C22.0345 16.5925 22.6016 16.1777 23.1094 15.7207C23.6172 15.2637 24.0996 14.722 24.5566 14.0957C25.0137 13.4694 25.3945 12.8093 25.6992 12.1152C26.0039 11.4212 26.2324 10.668 26.3848 9.85547C26.5371 9.04297 26.6133 8.47589 26.6133 8.1543C26.6133 7.83268 26.5794 7.61263 26.5117 7.49414C26.444 7.37565 26.3425 7.28255 26.207 7.21484C26.0716 7.14714 25.9446 7.11328 25.8262 7.11328C25.7077 7.11328 25.5723 7.16406 25.4199 7.26562C25.2676 7.36719 25.166 7.50261 25.1152 7.67188C25.0645 7.84114 25.0137 8.23895 24.9629 8.86523C24.9121 9.49152 24.7936 10.0925 24.6074 10.668C24.4212 11.2435 24.1673 11.8105 23.8457 12.3691C23.5241 12.9277 23.1602 13.4355 22.7539 13.8926C22.3477 14.3496 21.9329 14.7389 21.5098 15.0605C21.0866 15.3821 20.6465 15.6614 20.1895 15.8984C19.7324 16.1354 19.2585 16.3301 18.7676 16.4824C18.2767 16.6348 17.8281 16.7363 17.4219 16.7871C17.2188 16.8125 17.0156 16.8379 16.8125 16.8633C16.8125 16.5755 16.8125 16.2878 16.8125 16C16.8125 15.4245 17.0241 15.1028 17.4473 15.0352C17.8704 14.9675 18.3444 14.8236 18.8691 14.6035C19.3939 14.3835 19.8594 14.1296 20.2656 13.8418C20.6719 13.554 21.0781 13.1816 21.4844 12.7246C21.8906 12.2676 22.1953 11.8613 22.3984 11.5059C22.6016 11.1504 22.7708 10.7864 22.9062 10.4141C23.0417 10.0417 23.1517 9.60156 23.2363 9.09375C23.321 8.58594 23.3464 8.18817 23.3125 7.90039C23.2786 7.61263 23.1771 7.4095 23.0078 7.29102C22.8386 7.17253 22.6693 7.12175 22.5 7.13867C22.3307 7.1556 22.1953 7.20638 22.0938 7.29102C21.9922 7.37565 21.916 7.47722 21.8652 7.5957C21.8145 7.71419 21.7806 7.95964 21.7637 8.33203C21.7468 8.70441 21.6875 9.07684 21.5859 9.44922C21.4844 9.8216 21.3236 10.2109 21.1035 10.6172C20.8835 11.0234 20.6211 11.3958 20.3164 11.7344C20.0117 12.0729 19.6224 12.3945 19.1484 12.6992C18.6745 13.0039 18.1667 13.2324 17.625 13.3848C17.3542 13.4609 17.0833 13.5371 16.8125 13.6133C16.8125 13.3171 16.8125 13.0208 16.8125 12.7246C16.8125 12.1321 16.931 11.8105 17.168 11.7598C17.405 11.709 17.625 11.6328 17.8281 11.5312C18.0312 11.4297 18.2175 11.3196 18.3867 11.2012C18.556 11.0827 18.7591 10.8965 18.9961 10.6426C19.2331 10.3887 19.4277 10.1263 19.5801 9.85547C19.7324 9.58465 19.8425 9.33918 19.9102 9.11914C19.9778 8.89911 20.0286 8.62824 20.0625 8.30664C20.0964 7.98503 20.0879 7.75651 20.0371 7.62109C19.9863 7.48568 19.8848 7.36719 19.7324 7.26562C19.5801 7.16406 19.4023 7.13021 19.1992 7.16406C18.9961 7.19792 18.8438 7.27409 18.7422 7.39258C18.6406 7.51107 18.5645 7.75651 18.5137 8.12891C18.4629 8.50129 18.3698 8.81445 18.2344 9.06836C18.0989 9.32227 17.9636 9.51691 17.8281 9.65234C17.6927 9.78778 17.4896 9.92316 17.2188 10.0586C17.0833 10.1263 16.9479 10.194 16.8125 10.2617C16.804 9.80469 16.7956 9.34766 16.7871 8.89062C16.7702 7.97656 16.6771 7.45182 16.5078 7.31641C16.3386 7.18099 16.1862 7.11328 16.0508 7.11328C15.9153 7.11328 15.7969 7.13867 15.6953 7.18945C15.5938 7.24023 15.5007 7.33333 15.416 7.46875C15.3314 7.60417 15.2806 8.10352 15.2637 8.9668C15.2552 9.39844 15.2468 9.83008 15.2383 10.2617C15.1113 10.194 14.9844 10.1263 14.8574 10.0586C14.6035 9.92316 14.375 9.737 14.1719 9.5C13.9688 9.263 13.8249 9.03449 13.7402 8.81445C13.6556 8.59442 13.5879 8.31512 13.5371 7.97656C13.4863 7.63802 13.3763 7.4095 13.207 7.29102C13.0378 7.17253 12.8939 7.11328 12.7754 7.11328C12.6569 7.11328 12.5469 7.13867 12.4453 7.18945C12.3438 7.24023 12.2422 7.35872 12.1406 7.54492C12.0391 7.73112 11.9968 7.94271 12.0137 8.17969C12.0306 8.41668 12.0814 8.6875 12.166 8.99219C12.2507 9.29688 12.3691 9.58465 12.5215 9.85547C12.6738 10.1263 12.8685 10.3887 13.1055 10.6426C13.3425 10.8965 13.6472 11.1335 14.0195 11.3535C14.3919 11.5736 14.6966 11.709 14.9336 11.7598C15.1706 11.8105 15.2806 12.1321 15.2637 12.7246C15.2552 13.0208 15.2468 13.3171 15.2383 13.6133C15.1198 13.5879 15.0013 13.5625 14.8828 13.5371C14.6458 13.4863 14.3157 13.3763 13.8926 13.207C13.4694 13.0378 13.0886 12.8347 12.75 12.5977C12.4114 12.3607 12.1491 12.1491 11.9629 11.9629C11.7767 11.7767 11.5905 11.5566 11.4043 11.3027C11.2181 11.0488 11.0488 10.7695 10.8965 10.4648C10.7441 10.1602 10.6172 9.8216 10.5156 9.44922C10.4141 9.07684 10.3379 8.65363 10.2871 8.17969C10.2363 7.70573 10.1263 7.4095 9.95703 7.29102C9.78778 7.17253 9.60156 7.13021 9.39844 7.16406C9.19531 7.19792 9.03449 7.29948 8.91602 7.46875C8.79754 7.63802 8.74676 7.91732 8.76367 8.30664C8.78058 8.69598 8.83984 9.11066 8.94141 9.55078C9.04297 9.9909 9.21222 10.4648 9.44922 10.9727C9.68621 11.4805 9.92316 11.8952 10.1602 12.2168C10.3972 12.5384 10.6341 12.8177 10.8711 13.0547C11.1081 13.2917 11.3874 13.5286 11.709 13.7656C12.0306 14.0026 12.4961 14.2565 13.1055 14.5273C13.7148 14.7982 14.2311 14.9675 14.6543 15.0352C15.0775 15.1028 15.2891 15.4245 15.2891 16C15.2891 16.2878 15.2891 16.5755 15.2891 16.8633C15.2383 16.8633 15.1875 16.8633 15.1367 16.8633C15.0352 16.8633 14.7051 16.804 14.1465 16.6855C13.5879 16.5671 13.097 16.4232 12.6738 16.2539C12.2507 16.0847 11.7936 15.8477 11.3027 15.543C10.8118 15.2383 10.3718 14.9082 9.98242 14.5527C9.59308 14.1973 9.2207 13.7825 8.86523 13.3086C8.50977 12.8347 8.21356 12.3607 7.97656 11.8867C7.73958 11.4128 7.54492 10.905 7.39258 10.3633C7.24023 9.8216 7.13867 9.22918 7.08789 8.58594C7.03711 7.94271 6.94401 7.54492 6.80859 7.39258C6.67318 7.24023 6.52083 7.1556 6.35156 7.13867C6.18229 7.12175 6.02995 7.14714 5.89453 7.21484ZM10.6934 27.7051C10.541 27.8236 10.4479 27.9336 10.4141 28.0352C10.3802 28.1367 10.3802 28.2722 10.4141 28.4414C10.4479 28.6107 10.541 28.7546 10.6934 28.873C10.8457 28.9915 12.6315 29.0508 16.0508 29.0508C19.47 29.0508 21.2559 28.9915 21.4082 28.873C21.5605 28.7546 21.6536 28.6445 21.6875 28.543C21.7214 28.4414 21.7214 28.306 21.6875 28.1367C21.6536 27.9675 21.5605 27.8236 21.4082 27.7051C21.2559 27.5866 19.47 27.5273 16.0508 27.5273C12.6315 27.5273 10.8457 27.5866 10.6934 27.7051Z" fill="#BE0E0B"/>
</g>
</g>
<defs>
<clipPath id="clip0_138_10008">
<rect width="26" height="26" fill="white" transform="translate(3 3)"/>
</clipPath>
</defs>
</svg>
