<svg width="32" height="32" viewBox="0 0 32 32" fill="none" xmlns="http://www.w3.org/2000/svg">
<rect x="12" width="20" height="20" rx="10" fill="#0837B6"/>
<rect x="12" width="20" height="20" rx="10" fill="white" fill-opacity="0.9"/>
<g clip-path="url(#clip0_137_9999)">
<mask id="mask0_137_9999" style="mask-type:luminance" maskUnits="userSpaceOnUse" x="3" y="3" width="26" height="26">
<path d="M29 3H3V29H29V3Z" fill="white"/>
</mask>
<g mask="url(#mask0_137_9999)">
<path d="M19.4507 7.41024C18.8752 7.51181 18.3674 7.64722 17.9272 7.81649C17.4871 7.98576 17.0471 8.20581 16.6069 8.47663C16.1668 8.7475 15.7606 9.05218 15.3882 9.39069C15.0158 9.72925 14.6603 10.127 14.3218 10.5841C13.9832 11.0411 13.7124 11.4812 13.5093 11.9044C13.3062 12.3276 13.1369 12.793 13.0015 13.3008C12.866 13.8087 12.7814 14.3757 12.7476 15.002C12.7137 15.6284 12.7476 16.2377 12.8491 16.8301C12.9507 17.4226 13.0776 17.9219 13.23 18.3282C13.3823 18.7344 13.577 19.1407 13.814 19.5469C14.051 19.9532 14.381 20.3933 14.8042 20.8673C15.2274 21.3412 15.676 21.7475 16.1499 22.086C16.6238 22.4246 17.1401 22.7123 17.6987 22.9493C18.2573 23.1863 18.799 23.3555 19.3237 23.4571C19.8484 23.5587 20.3647 23.6094 20.8726 23.6094C21.3804 23.6094 21.9051 23.5587 22.4468 23.4571C22.9885 23.3555 23.4201 23.2455 23.7417 23.127C24.0633 23.0085 24.4611 22.8139 24.9351 22.543C25.409 22.2722 25.8576 21.9506 26.2808 21.5782C26.7039 21.2058 27.0594 20.8334 27.3472 20.461C27.6349 20.0886 27.8973 19.6739 28.1343 19.2169C28.3713 18.7598 28.5659 18.2605 28.7183 17.7188C28.8706 17.1772 28.9637 16.6778 28.9976 16.2208C29.0314 15.7637 29.006 15.476 28.9214 15.3575C28.8367 15.239 28.6929 15.1375 28.4897 15.0528C28.2866 14.9682 28.1174 14.8582 27.9819 14.7227C27.8465 14.5873 27.7449 14.4519 27.6772 14.3165C27.6096 14.1811 27.5672 13.961 27.5503 13.6563C27.5334 13.3516 27.5926 13.0639 27.728 12.793C27.8635 12.5222 27.9142 12.3106 27.8804 12.1583C27.8465 12.0059 27.7703 11.8875 27.6519 11.8028C27.5334 11.7182 27.381 11.6505 27.1948 11.5997C27.0086 11.5489 26.8394 11.4558 26.687 11.3204C26.5347 11.185 26.4162 11.0411 26.3315 10.8887C26.2469 10.7364 26.1961 10.5925 26.1792 10.4571C26.1623 10.3217 26.1115 10.1948 26.0269 10.0762C25.9422 9.95777 25.8152 9.88159 25.646 9.84772C25.4767 9.8139 25.2736 9.84772 25.0366 9.94929C24.7996 10.0508 24.5373 10.0847 24.2495 10.0508C23.9617 10.017 23.7248 9.94086 23.5386 9.82233C23.3524 9.70386 23.2 9.55152 23.0815 9.3653C22.9631 9.17914 22.8869 9.02679 22.853 8.90827C22.8192 8.7898 22.8107 8.58667 22.8276 8.29889C22.8445 8.01115 22.8192 7.80803 22.7515 7.68954C22.6838 7.57105 22.5399 7.47795 22.3198 7.41024C22.0998 7.34254 21.7104 7.30022 21.1519 7.28329C20.5933 7.26636 20.0262 7.30868 19.4507 7.41024ZM9.75146 8.60358C9.27752 8.68823 8.81201 8.81519 8.35498 8.98444C7.89795 9.15375 7.42399 9.39069 6.9331 9.69538C6.44222 10.0001 5.98519 10.3555 5.56201 10.7618C5.13883 11.168 4.80029 11.5489 4.54638 11.9044C4.29248 12.2598 4.03857 12.7169 3.78467 13.2755C3.53076 13.8341 3.34456 14.4011 3.22607 14.9766C3.10758 15.5522 3.04834 16.1108 3.04834 16.6524C3.04834 17.1941 3.09912 17.7188 3.20068 18.2266C3.30225 18.7344 3.47152 19.2676 3.70849 19.8262C3.94547 20.3848 4.23324 20.9011 4.57177 21.3751C4.91032 21.8491 5.24886 22.2468 5.5874 22.5684C5.92594 22.8901 6.29834 23.1863 6.70459 23.4571C7.11084 23.728 7.5848 23.9734 8.12646 24.1934C8.66815 24.4135 9.22674 24.5743 9.80224 24.6758C10.3777 24.7774 10.9363 24.8198 11.478 24.8028C12.0197 24.7859 12.4598 24.7436 12.7983 24.6758C13.1369 24.6082 13.5008 24.5066 13.8901 24.3712C14.2795 24.2358 14.728 24.0242 15.2358 23.7364C15.7437 23.4487 16.0568 23.2371 16.1753 23.1016C16.2346 23.0339 16.2938 22.9662 16.353 22.8985C16.1499 22.7631 15.9468 22.6277 15.7437 22.4923C15.3374 22.2214 14.9142 21.8491 14.4741 21.3751C14.034 20.9011 13.6447 20.3679 13.3062 19.7755C12.9676 19.183 12.6968 18.5229 12.4937 17.795C12.2905 17.0671 12.1805 16.3562 12.1636 15.6622C12.1467 14.9682 12.189 14.3503 12.2905 13.8087C12.3921 13.267 12.5783 12.6746 12.8491 12.0313C13.1199 11.3881 13.3485 10.9226 13.5347 10.6348C13.7209 10.3471 13.9578 10.0424 14.2456 9.72077C14.3895 9.56 14.5334 9.39917 14.6772 9.23835C14.5926 9.19605 14.508 9.15375 14.4233 9.11139C14.2541 9.02679 13.924 8.91675 13.4331 8.78132C12.9422 8.64593 12.3244 8.56128 11.5796 8.52741C10.8348 8.49359 10.2254 8.51898 9.75146 8.60358ZM20.0601 9.8985C20.2293 9.8985 20.407 9.94086 20.5933 10.0255C20.7795 10.1101 20.9233 10.2117 21.0249 10.3301C21.1265 10.4487 21.2026 10.5756 21.2534 10.711C21.3042 10.8464 21.3296 10.9903 21.3296 11.1426C21.3296 11.295 21.2873 11.4727 21.2026 11.6758C21.118 11.879 21.0164 12.0313 20.8979 12.1329C20.7795 12.2344 20.6525 12.3106 20.5171 12.3614C20.3817 12.4122 20.2293 12.4376 20.0601 12.4376C19.8908 12.4376 19.7385 12.4122 19.603 12.3614C19.4676 12.3106 19.3322 12.226 19.1968 12.1075C19.0613 11.989 18.9598 11.8536 18.8921 11.7012C18.8244 11.5489 18.7905 11.3712 18.7905 11.168C18.7905 10.9649 18.8244 10.7872 18.8921 10.6348C18.9598 10.4825 19.0613 10.3471 19.1968 10.2286C19.3322 10.1101 19.4676 10.0255 19.603 9.97468C19.7385 9.92389 19.8908 9.8985 20.0601 9.8985ZM19.7554 10.5841C19.5861 10.6687 19.4761 10.8041 19.4253 10.9903C19.3745 11.1765 19.3914 11.3458 19.4761 11.4981C19.5607 11.6505 19.6961 11.752 19.8823 11.8028C20.0685 11.8536 20.2463 11.8198 20.4155 11.7012C20.5848 11.5828 20.6779 11.4219 20.6948 11.2188C20.7117 11.0157 20.6694 10.8549 20.5679 10.7364C20.4663 10.6179 20.3478 10.5418 20.2124 10.5079C20.077 10.4741 19.9246 10.4994 19.7554 10.5841ZM9.82763 11.1173C10.0477 11.1173 10.217 11.1426 10.3354 11.1934C10.4539 11.2442 10.5809 11.3373 10.7163 11.4727C10.8517 11.6082 10.9448 11.7351 10.9956 11.8536C11.0464 11.9721 11.0718 12.1414 11.0718 12.3614C11.0718 12.5815 11.0464 12.7507 10.9956 12.8692C10.9448 12.9877 10.8771 13.0977 10.7925 13.1993C10.7078 13.3008 10.5809 13.394 10.4116 13.4786C10.2424 13.5632 9.99689 13.5886 9.67529 13.5548C9.35369 13.5209 9.1167 13.4363 8.96435 13.3008C8.81201 13.1655 8.71045 13.0385 8.65967 12.92C8.60888 12.8015 8.57501 12.6492 8.5581 12.463C8.54119 12.2768 8.5581 12.1075 8.60888 11.9551C8.65967 11.8028 8.73584 11.6674 8.8374 11.5489C8.93896 11.4304 9.0744 11.3289 9.24365 11.2442C9.4129 11.1596 9.6076 11.1173 9.82763 11.1173ZM9.42138 11.8536C9.26904 11.9721 9.18439 12.1244 9.16748 12.3106C9.15057 12.4968 9.18439 12.6492 9.26904 12.7676C9.35369 12.8862 9.49756 12.9623 9.70068 12.9962C9.90381 13.03 10.0815 12.9877 10.2339 12.8692C10.3862 12.7507 10.4709 12.6069 10.4878 12.4376C10.5047 12.2683 10.4624 12.116 10.3608 11.9805C10.2593 11.8452 10.1154 11.7605 9.9292 11.7266C9.74298 11.6928 9.57373 11.7351 9.42138 11.8536ZM24.6304 12.1837C24.9351 12.2175 25.1636 12.3022 25.3159 12.4376C25.4683 12.573 25.5783 12.7169 25.646 12.8692C25.7137 13.0216 25.7476 13.1993 25.7476 13.4024C25.7476 13.6055 25.7222 13.7664 25.6714 13.8848C25.6206 14.0034 25.5529 14.1133 25.4683 14.2149C25.3836 14.3165 25.2567 14.4096 25.0874 14.4942C24.9181 14.5789 24.7658 14.6296 24.6304 14.6466C24.4949 14.6635 24.3172 14.6381 24.0972 14.5704C23.8771 14.5027 23.6824 14.3588 23.5132 14.1387C23.3439 13.9187 23.2508 13.6987 23.2339 13.4786C23.217 13.2585 23.2339 13.0808 23.2847 12.9454C23.3354 12.81 23.4201 12.6746 23.5386 12.5391C23.657 12.4037 23.7925 12.3022 23.9448 12.2344C24.0972 12.1668 24.3257 12.1498 24.6304 12.1837ZM24.1226 12.8184C23.9871 12.9031 23.9025 13.0554 23.8686 13.2755C23.8348 13.4955 23.8602 13.6648 23.9448 13.7833C24.0295 13.9018 24.1733 13.978 24.3765 14.0118C24.5796 14.0457 24.7488 14.0118 24.8843 13.9102C25.0197 13.8087 25.1043 13.6733 25.1382 13.504C25.1721 13.3347 25.1382 13.1739 25.0366 13.0216C24.9351 12.8692 24.7912 12.7761 24.605 12.7423C24.4188 12.7084 24.258 12.7338 24.1226 12.8184ZM21.1519 14.088C21.3042 14.1049 21.4481 14.1472 21.5835 14.2149C21.7189 14.2827 21.8628 14.4265 22.0151 14.6466C22.1675 14.8666 22.2521 15.0444 22.269 15.1798C22.2859 15.3152 22.2606 15.4929 22.1929 15.713C22.1252 15.933 22.0236 16.1108 21.8882 16.2462C21.7527 16.3816 21.6258 16.4747 21.5073 16.5255C21.3888 16.5762 21.228 16.6016 21.0249 16.6016C20.8218 16.6016 20.6525 16.5762 20.5171 16.5255C20.3817 16.4747 20.2463 16.3816 20.1108 16.2462C19.9754 16.1108 19.8738 15.9415 19.8061 15.7383C19.7385 15.5352 19.7131 15.3575 19.73 15.2051C19.7469 15.0528 19.7892 14.9089 19.8569 14.7735C19.9246 14.6381 20.0262 14.5112 20.1616 14.3926C20.2971 14.2742 20.4578 14.1895 20.644 14.1387C20.8303 14.088 20.9995 14.071 21.1519 14.088ZM16.9116 14.418C17.0809 14.418 17.2586 14.4604 17.4448 14.545C17.631 14.6296 17.7749 14.7312 17.8765 14.8497C17.978 14.9682 18.0542 15.1036 18.105 15.2559C18.1558 15.4083 18.1558 15.6284 18.105 15.9161C18.0542 16.2039 17.9695 16.4155 17.8511 16.5508C17.7326 16.6863 17.5972 16.7878 17.4448 16.8555C17.2925 16.9233 17.1147 16.9571 16.9116 16.9571C16.7085 16.9571 16.5477 16.9317 16.4292 16.8809C16.3107 16.8301 16.1922 16.754 16.0737 16.6524C15.9553 16.5508 15.8537 16.407 15.769 16.2208C15.6844 16.0346 15.6421 15.8569 15.6421 15.6876C15.6421 15.5183 15.6844 15.3406 15.769 15.1544C15.8537 14.9682 15.9553 14.8243 16.0737 14.7227C16.1922 14.6212 16.3192 14.545 16.4546 14.4942C16.59 14.4434 16.7424 14.418 16.9116 14.418ZM20.6186 14.7989C20.4832 14.8835 20.3986 15.0274 20.3647 15.2305C20.3309 15.4337 20.3647 15.603 20.4663 15.7383C20.5679 15.8738 20.7033 15.9584 20.8726 15.9923C21.0418 16.0261 21.2026 15.9923 21.355 15.8907C21.5073 15.7891 21.6004 15.6453 21.6343 15.4591C21.6681 15.2729 21.6428 15.1121 21.5581 14.9766C21.4734 14.8412 21.3296 14.7566 21.1265 14.7227C20.9233 14.6889 20.7541 14.7143 20.6186 14.7989ZM16.4546 15.2305C16.3192 15.366 16.2515 15.5183 16.2515 15.6876C16.2515 15.8569 16.3192 16.0092 16.4546 16.1446C16.59 16.28 16.7508 16.3477 16.937 16.3477C17.1232 16.3477 17.2756 16.28 17.394 16.1446C17.5125 16.0092 17.5718 15.8569 17.5718 15.6876C17.5718 15.5183 17.5041 15.366 17.3686 15.2305C17.2332 15.0952 17.0809 15.0274 16.9116 15.0274C16.7424 15.0274 16.59 15.0952 16.4546 15.2305ZM5.96826 15.3321C6.18831 15.3321 6.35758 15.3575 6.47607 15.4083C6.59456 15.4591 6.72152 15.5522 6.85693 15.6876C6.99235 15.823 7.08545 15.95 7.13623 16.0684C7.18701 16.1869 7.19547 16.407 7.16162 16.7286C7.12777 17.0502 7.0516 17.2787 6.9331 17.4141C6.81462 17.5496 6.68766 17.6511 6.55224 17.7188C6.41683 17.7866 6.27295 17.8289 6.1206 17.8458C5.96826 17.8627 5.79899 17.8458 5.61279 17.795C5.4266 17.7442 5.26579 17.6596 5.13037 17.5411C4.99496 17.4226 4.89339 17.2957 4.82568 17.1602C4.75797 17.0248 4.71566 16.8725 4.69873 16.7032C4.6818 16.5339 4.70719 16.3562 4.7749 16.17C4.84261 15.9838 4.91878 15.8399 5.00342 15.7383C5.08805 15.6368 5.21501 15.5437 5.38427 15.4591C5.55355 15.3744 5.74821 15.3321 5.96826 15.3321ZM10.3101 15.5352C10.6147 15.5691 10.8433 15.6537 10.9956 15.7891C11.1479 15.9246 11.258 16.0684 11.3257 16.2208C11.3934 16.3731 11.4272 16.5508 11.4272 16.754C11.4272 16.9571 11.3934 17.1348 11.3257 17.2872C11.258 17.4395 11.1564 17.575 11.021 17.6934C10.8856 17.8119 10.7417 17.8966 10.5894 17.9473C10.437 17.9981 10.2931 18.0235 10.1577 18.0235C10.0223 18.0235 9.86994 17.9897 9.70068 17.9219C9.53143 17.8542 9.38751 17.7612 9.26904 17.6426C9.15057 17.5242 9.05744 17.3803 8.98974 17.211C8.92205 17.0417 8.91357 16.8132 8.96435 16.5255C9.01513 16.2377 9.09131 16.0346 9.19287 15.9161C9.29443 15.7976 9.42986 15.696 9.59912 15.6114C9.76837 15.5268 10.0054 15.5014 10.3101 15.5352ZM5.5874 16.0684C5.41813 16.1869 5.32503 16.3393 5.3081 16.5255C5.29118 16.7117 5.32503 16.864 5.40967 16.9825C5.4943 17.101 5.63818 17.1772 5.84131 17.211C6.04443 17.2449 6.22217 17.2026 6.37451 17.0841C6.52685 16.9656 6.61149 16.8217 6.62842 16.6524C6.64535 16.4832 6.60302 16.3308 6.50146 16.1954C6.3999 16.06 6.26449 15.9753 6.09521 15.9415C5.92594 15.9077 5.75667 15.95 5.5874 16.0684ZM9.77685 16.2208C9.62451 16.3393 9.53986 16.5001 9.52295 16.7032C9.50604 16.9063 9.56525 17.0756 9.70068 17.211C9.83611 17.3464 9.98846 17.4141 10.1577 17.4141C10.327 17.4141 10.4793 17.3549 10.6147 17.2364C10.7502 17.1179 10.8263 16.9825 10.8433 16.8301C10.8602 16.6778 10.8179 16.5255 10.7163 16.3731C10.6147 16.2208 10.4709 16.1277 10.2847 16.0938C10.0985 16.06 9.9292 16.1023 9.77685 16.2208ZM24.1226 16.9063C24.3934 16.9741 24.5881 17.0671 24.7065 17.1856C24.825 17.3041 24.9181 17.448 24.9858 17.6173C25.0535 17.7866 25.0874 17.9558 25.0874 18.1251C25.0874 18.2944 25.0535 18.4551 24.9858 18.6075C24.9181 18.7598 24.825 18.8953 24.7065 19.0137C24.5881 19.1323 24.4188 19.2253 24.1987 19.293C23.9787 19.3608 23.7417 19.3608 23.4878 19.293C23.2339 19.2253 23.0477 19.1323 22.9292 19.0137C22.8107 18.8953 22.7176 18.7598 22.6499 18.6075C22.5822 18.4551 22.5483 18.2859 22.5483 18.0997C22.5483 17.9135 22.5822 17.7442 22.6499 17.5919C22.7176 17.4395 22.8107 17.3041 22.9292 17.1856C23.0477 17.0671 23.2085 16.9741 23.4116 16.9063C23.6147 16.8386 23.8517 16.8386 24.1226 16.9063ZM23.3862 17.6173C23.2339 17.7527 23.1577 17.9135 23.1577 18.0997C23.1577 18.2859 23.2339 18.4467 23.3862 18.5821C23.5386 18.7175 23.6824 18.7852 23.8179 18.7852C23.9533 18.7852 24.0972 18.7175 24.2495 18.5821C24.4019 18.4467 24.478 18.2859 24.478 18.0997C24.478 17.9135 24.4019 17.7527 24.2495 17.6173C24.0972 17.4819 23.9533 17.4141 23.8179 17.4141C23.6824 17.4141 23.5386 17.4819 23.3862 17.6173ZM19.7554 18.4298C19.9246 18.4298 20.1024 18.4721 20.2886 18.5567C20.4748 18.6414 20.6186 18.7429 20.7202 18.8614C20.8218 18.9799 20.8979 19.1069 20.9487 19.2423C20.9995 19.3777 21.0249 19.5216 21.0249 19.6739C21.0249 19.8262 20.9826 20.004 20.8979 20.2071C20.8133 20.4102 20.7117 20.5626 20.5933 20.6641C20.4748 20.7657 20.3478 20.8419 20.2124 20.8926C20.077 20.9434 19.9246 20.9688 19.7554 20.9688C19.5861 20.9688 19.4338 20.9434 19.2983 20.8926C19.1629 20.8419 19.0275 20.7573 18.8921 20.6387C18.7567 20.5203 18.6551 20.3848 18.5874 20.2325C18.5197 20.0801 18.4858 19.9024 18.4858 19.6993C18.4858 19.4962 18.5197 19.3184 18.5874 19.1661C18.6551 19.0137 18.7397 18.8868 18.8413 18.7852C18.9429 18.6837 19.0783 18.5991 19.2476 18.5313C19.4168 18.4636 19.5861 18.4298 19.7554 18.4298ZM19.4253 19.1153C19.2729 19.2 19.1714 19.3354 19.1206 19.5216C19.0698 19.7078 19.0867 19.877 19.1714 20.0294C19.256 20.1817 19.383 20.2833 19.5522 20.3341C19.7215 20.3848 19.8569 20.3933 19.9585 20.3594C20.0601 20.3256 20.1531 20.2664 20.2378 20.1817C20.3224 20.0971 20.3732 19.9532 20.3901 19.7501C20.407 19.5469 20.3647 19.3862 20.2632 19.2676C20.1616 19.1492 20.0347 19.073 19.8823 19.0391C19.73 19.0053 19.5776 19.0307 19.4253 19.1153ZM9.52295 19.6485C9.74298 19.6485 9.91229 19.6739 10.0308 19.7247C10.1492 19.7755 10.2762 19.8686 10.4116 20.004C10.5471 20.1394 10.6401 20.2664 10.6909 20.3848C10.7417 20.5034 10.7671 20.6726 10.7671 20.8926C10.7671 21.1127 10.7417 21.282 10.6909 21.4005C10.6401 21.519 10.5724 21.629 10.4878 21.7305C10.4031 21.8321 10.2762 21.9252 10.1069 22.0098C9.93768 22.0945 9.6922 22.1199 9.3706 22.086C9.04901 22.0522 8.82049 21.976 8.68506 21.8575C8.54962 21.739 8.44806 21.6121 8.38037 21.4766C8.31268 21.3412 8.27033 21.1804 8.25342 20.9942C8.23651 20.808 8.25342 20.6387 8.3042 20.4864C8.35498 20.3341 8.43963 20.1902 8.5581 20.0548C8.67658 19.9194 8.81201 19.8178 8.96435 19.7501C9.1167 19.6824 9.30291 19.6485 9.52295 19.6485ZM9.1167 20.3848C8.96435 20.5034 8.8797 20.6557 8.86279 20.8419C8.84588 21.0281 8.8797 21.1804 8.96435 21.2989C9.04901 21.4174 9.19287 21.4936 9.39599 21.5274C9.59912 21.5613 9.76837 21.5274 9.90381 21.4258C10.0392 21.3243 10.1238 21.1804 10.1577 20.9942C10.1916 20.808 10.1577 20.6472 10.0561 20.5118C9.95459 20.3764 9.81072 20.2917 9.62451 20.2579C9.43829 20.2241 9.26904 20.2664 9.1167 20.3848Z" fill="#BE0E0B"/>
</g>
</g>
<defs>
<clipPath id="clip0_137_9999">
<rect width="26" height="26" fill="white" transform="translate(3 3)"/>
</clipPath>
</defs>
</svg>
