<svg width="32" height="32" viewBox="0 0 32 32" fill="none" xmlns="http://www.w3.org/2000/svg">
<rect x="12" width="20" height="20" rx="10" fill="#0837B6"/>
<rect x="12" width="20" height="20" rx="10" fill="white" fill-opacity="0.9"/>
<g clip-path="url(#clip0_139_10023)">
<mask id="mask0_139_10023" style="mask-type:luminance" maskUnits="userSpaceOnUse" x="3" y="3" width="26" height="26">
<path d="M29 3H3V29H29V3Z" fill="white"/>
</mask>
<g mask="url(#mask0_139_10023)">
<path d="M25.5684 3.12036C25.3822 3.205 25.1113 3.44198 24.7559 3.8313C24.4004 4.22062 24.7982 4.97388 25.9492 6.09106C26.5247 6.64966 27.1002 7.20825 27.6758 7.76684C27.8704 7.56372 28.0651 7.36059 28.2598 7.15747C28.6491 6.75122 28.8692 6.48039 28.9199 6.34497C28.9707 6.20956 28.9876 5.99797 28.9707 5.7102C28.9538 5.42245 28.903 5.20239 28.8184 5.05005C28.7337 4.8977 28.4375 4.56763 27.9297 4.05981C27.4219 3.552 27.0579 3.24731 26.8379 3.14575C26.6178 3.04419 26.3978 2.99341 26.1778 2.99341C25.9577 2.99341 25.7545 3.03573 25.5684 3.12036ZM21.6328 6.92895C20.651 7.92765 19.5084 8.57936 18.2051 8.88405C16.9017 9.18873 16.0807 9.40029 15.7422 9.51881C15.4036 9.63729 14.9974 9.83193 14.5235 10.1028C14.0495 10.3736 13.6263 10.6783 13.2539 11.0169C13.0677 11.1861 12.8815 11.3554 12.6953 11.5247C13.9818 12.8196 15.2682 14.1145 16.5547 15.4094C17.8411 16.7044 19.1276 17.9993 20.4141 19.2942C20.5918 19.108 20.7696 18.9218 20.9473 18.7356C21.3028 18.3632 21.6159 17.94 21.8867 17.4661C22.1576 16.9921 22.3438 16.6197 22.4453 16.3489C22.5469 16.078 22.7584 15.2571 23.0801 13.886C23.4017 12.5149 24.0619 11.3385 25.0606 10.3567C25.5599 9.8658 26.0592 9.3749 26.5586 8.88405C25.9831 8.30849 25.4076 7.73299 24.8321 7.15747C24.2565 6.58195 23.681 6.00643 23.1055 5.43091C22.6146 5.93026 22.1237 6.42961 21.6328 6.92895ZM9.14064 15.1301C8.32814 15.9596 7.51562 16.789 6.70312 17.6184C7.99805 18.8964 9.29299 20.1744 10.5879 21.4524C11.8828 22.7304 13.1778 24.0084 14.4727 25.2864C15.2852 24.4739 16.0977 23.6614 16.9102 22.8489C18.5352 21.2239 19.3477 20.386 19.3477 20.3352C19.3477 20.2844 18.0528 18.9895 15.4629 16.4505C14.168 15.1809 12.8731 13.9114 11.5781 12.6419C10.7656 13.4713 9.95314 14.3007 9.14064 15.1301ZM11.6543 16.7551C11.8744 16.789 12.5176 17.3391 13.584 18.4055C14.6504 19.4719 15.2005 20.1151 15.2344 20.3352C15.2682 20.5553 15.2428 20.733 15.1582 20.8684C15.0736 21.0038 14.9297 21.0969 14.7266 21.1477C14.5235 21.1985 14.3626 21.1985 14.2442 21.1477C14.1256 21.0969 13.5417 20.5468 12.4922 19.4973C11.4427 18.4478 10.8926 17.8638 10.8418 17.7454C10.791 17.6269 10.7741 17.4999 10.791 17.3645C10.8079 17.2291 10.8502 17.1106 10.918 17.009C10.9857 16.9075 11.0703 16.8313 11.1719 16.7805C11.2735 16.7298 11.4342 16.7213 11.6543 16.7551ZM4.54492 19.6751C3.85091 20.369 3.44466 20.8176 3.32617 21.0208C3.20768 21.2239 3.12305 21.4185 3.07227 21.6047C3.02148 21.7909 2.99609 22.0279 2.99609 22.3157C2.99609 22.6034 3.04687 22.8912 3.14844 23.179C3.25 23.4667 4.14714 24.4569 5.83984 26.1497C7.53255 27.8424 8.52279 28.7395 8.81057 28.8411C9.09829 28.9426 9.38607 28.9934 9.67385 28.9934C9.96157 28.9934 10.2494 28.9426 10.5371 28.8411C10.8249 28.7395 11.3665 28.2909 12.1621 27.4954C12.5599 27.0976 12.9577 26.6998 13.3555 26.302C12.0606 25.024 10.7656 23.746 9.47072 22.468C8.1758 21.19 6.88086 19.912 5.58594 18.634C5.23893 18.981 4.89193 19.328 4.54492 19.6751Z" fill="#BE0E0B"/>
</g>
</g>
<defs>
<clipPath id="clip0_139_10023">
<rect width="26" height="26" fill="white" transform="translate(3 3)"/>
</clipPath>
</defs>
</svg>
