<svg width="32" height="32" viewBox="0 0 32 32" fill="none" xmlns="http://www.w3.org/2000/svg">
<path d="M17.1982 1.074C15.1777 1.62033 13.9089 2.02413 13.3921 2.28541C12.8751 2.5467 12.6167 2.71295 12.6167 2.78421C12.6167 2.85547 13.5683 3.85311 15.4714 5.77712C17.3745 7.70114 18.5257 8.77004 18.9251 8.98382C19.3245 9.1976 19.7944 9.31639 20.3348 9.34012C20.8751 9.36392 22.4493 9.01945 25.0573 8.30685C26.3612 7.95055 27.6652 7.59425 28.9692 7.23795C28.8399 7.00044 28.7107 6.76293 28.5815 6.52535C28.323 6.05033 27.4302 5.0408 25.9031 3.49681C24.3759 1.95287 23.3891 1.05025 22.9427 0.788959C22.4963 0.52767 21.9324 0.373279 21.2511 0.32577C20.5697 0.278261 19.2188 0.52767 17.1982 1.074ZM11.7357 3.92437C11.4772 4.42319 11.113 5.56334 10.6432 7.34484C10.1733 9.12634 9.93833 10.1002 9.93833 10.2665C9.93833 10.4328 10.8781 11.0623 12.7577 12.1549C14.6373 13.2476 15.7298 13.972 16.0352 14.3283C16.3407 14.6846 16.5756 15.0765 16.7401 15.5041C16.8223 15.7179 16.9045 15.9316 16.9868 16.1454C17.1278 15.9911 17.2687 15.8367 17.4097 15.6822C17.6916 15.3735 18.0675 14.2927 18.5374 12.4399C19.0073 10.5872 19.0425 9.56579 18.6432 9.37574C18.2437 9.18577 17.0573 8.10497 15.0837 6.13342C14.0969 5.14769 13.1101 4.16195 12.1233 3.17614C11.9941 3.42555 11.8649 3.67496 11.7357 3.92437ZM25.0925 8.80567C22.5551 9.51826 21.0279 9.87456 20.511 9.87456C19.9941 9.87456 19.5242 10.6822 19.1013 12.2974C18.8899 13.1051 18.6784 13.9126 18.467 14.7202C18.6666 14.6371 18.8663 14.554 19.0661 14.4708C19.4654 14.3046 19.9236 14.2096 20.4405 14.1858C20.9574 14.1621 22.2143 14.4234 24.2115 14.9696C26.2085 15.516 27.2892 15.611 27.4537 15.2547C27.6182 14.8984 27.9354 13.8295 28.4053 12.048C28.8751 10.2665 29.1218 9.15014 29.1454 8.69878C29.1688 8.24749 29.1688 7.97435 29.1454 7.87929C29.1218 7.7843 29.0749 7.73677 29.0044 7.73677C28.9339 7.73677 27.63 8.09307 25.0925 8.80567ZM7.0837 10.8366C6.73128 10.9554 5.86192 11.4185 4.47577 12.2261C3.08955 13.0338 2.20849 13.5563 1.8326 13.7939C1.45663 14.0314 1.163 14.2689 0.951542 14.5065C0.740088 14.744 0.681304 14.9222 0.77533 15.0409C0.869286 15.1597 1.91478 15.801 3.91189 16.9649C5.90893 18.1289 7.07193 18.7583 7.40088 18.8533C7.72976 18.9484 8.11743 18.9721 8.56388 18.9246C9.01025 18.8771 10.3377 18.212 12.5463 16.9293C14.7547 15.6466 15.8473 14.9578 15.8238 14.8628C15.8002 14.7678 15.6945 14.6252 15.5066 14.4352C15.3186 14.2452 14.4258 13.6751 12.8282 12.725C11.2305 11.7748 10.1733 11.1929 9.65639 10.9791C9.13945 10.7653 8.6696 10.6584 8.2467 10.6584C7.82379 10.6584 7.43612 10.7179 7.0837 10.8366ZM19.7004 14.7559C19.442 14.8271 19.1366 14.9696 18.7841 15.1834C18.4317 15.3972 17.5507 16.2167 16.141 17.6419C14.7313 19.0671 13.9324 19.9341 13.7445 20.2429C13.5565 20.5517 13.4626 20.7536 13.4626 20.8486C13.4626 20.9436 14.6373 21.3118 16.9868 21.9531C19.3362 22.5944 20.6989 22.9151 21.0749 22.9151C21.4508 22.9151 21.8502 22.8201 22.2731 22.6301C22.696 22.4401 23.7885 21.4425 25.5507 19.6372C26.4317 18.7346 27.3128 17.8319 28.1938 16.9293C27.9588 16.7987 27.7239 16.668 27.489 16.5374C27.0191 16.2761 25.9031 15.9079 24.141 15.4328C22.3789 14.9578 21.2628 14.7084 20.793 14.6846C20.323 14.6609 19.9588 14.6846 19.7004 14.7559ZM0.140969 15.8604C0.0469427 16.1454 0 17.3094 0 19.3521C0 21.3949 0.082185 22.6301 0.246696 23.0576C0.411137 23.4852 0.669604 23.8771 1.02203 24.2334C1.37445 24.5897 2.36123 25.243 3.98238 26.1931C5.60352 27.1432 6.55507 27.6777 6.837 27.7964C7.11894 27.9152 7.37734 27.9865 7.61233 28.0102C7.72976 28.0221 7.84726 28.034 7.96476 28.0458C7.96476 26.6206 7.96476 25.1954 7.96476 23.7702C7.96476 20.9198 7.74153 19.4353 7.29515 19.3165C6.8487 19.1978 5.56828 18.5208 3.45374 17.2856C2.39647 16.668 1.33921 16.0504 0.281938 15.4328C0.234925 15.5753 0.187912 15.7179 0.140969 15.8604ZM13.2159 17.1431C11.3128 18.2832 10.2203 18.9246 9.93833 19.0671C9.65639 19.2096 9.35091 19.3165 9.02203 19.3878C8.69307 19.459 8.52863 20.9198 8.52863 23.7702C8.52863 25.1954 8.52863 26.6206 8.52863 28.0458C8.74009 27.9984 8.95154 27.9508 9.163 27.9033C9.5859 27.8083 10.4082 27.4045 11.63 26.6919C12.8517 25.9793 13.3451 25.1836 13.1101 24.3047C12.8751 23.4258 12.7459 22.7964 12.7225 22.4163C12.6989 22.0363 12.7107 21.7037 12.7577 21.4187C12.8047 21.1336 12.9574 20.7417 13.2159 20.2429C13.4743 19.744 14.0851 19.0196 15.0485 18.0694C16.0117 17.1193 16.4581 16.4661 16.3877 16.1098C16.3172 15.7535 16.2467 15.5516 16.1762 15.5041C16.1057 15.4566 15.1189 16.0029 13.2159 17.1431ZM25.8326 20.0647C24.0705 21.87 23.0249 22.8558 22.696 23.022C22.3671 23.1883 22.5668 24.6491 23.2952 27.4045C23.6593 28.7822 24.0235 30.1599 24.3877 31.5375C24.5756 31.4426 24.7636 31.3476 24.9515 31.2525C25.3274 31.0625 26.2555 30.2192 27.7357 28.7228C29.2159 27.2263 30.0617 26.2525 30.2731 25.8011C30.4846 25.3498 30.602 24.8986 30.6256 24.4472C30.649 23.9959 30.4493 22.9507 30.0264 21.3118C29.6035 19.6728 29.3216 18.6752 29.1806 18.3189C29.0397 17.9626 28.8869 17.7131 28.7225 17.5706C28.558 17.4281 27.5947 18.2595 25.8326 20.0647ZM13.2511 22.1669C13.2511 22.6182 13.4626 23.6515 13.8855 25.2667C14.3084 26.8819 14.5785 27.832 14.696 28.1171C14.8135 28.4021 15.0132 28.711 15.2952 29.0435C15.5771 29.376 15.9177 29.6492 16.3172 29.8629C16.7165 30.0767 17.8326 30.433 19.6652 30.9318C21.4978 31.4307 22.6608 31.6801 23.1542 31.6801C23.4009 31.6801 23.6476 31.6801 23.8943 31.6801C23.5301 30.3024 23.1659 28.9247 22.8018 27.547C22.0734 24.7917 21.439 23.4021 20.8987 23.3783C20.3583 23.3546 18.9486 23.0339 16.6696 22.4163C15.5301 22.1075 14.3906 21.7988 13.2511 21.4899C13.2511 21.7156 13.2511 21.9413 13.2511 22.1669Z" fill="#CC7700"/>
</svg>
