<svg width="104" height="40" viewBox="0 0 104 40" fill="none" xmlns="http://www.w3.org/2000/svg">
<g clip-path="url(#clip0_534_28711)">
<path d="M6.06272 18.5069C8.12544 21.4425 13.0081 21.8533 15.1916 21.6918C14.216 13.6605 9.7561 10.8218 8.01394 9.22943C12.8223 10.8218 15.1916 15.876 15.8188 17.8146C16.0279 13.9374 16.8641 13.1758 17.2822 12.2065C14.007 4.52143 2.22997 5.00608 0 5.00608C2.09059 7.29084 3.48432 14.8375 6.06272 18.5069Z" fill="#2A9F47"/>
<path d="M17.561 33.75H15.1916C15.3542 32.3653 16.25 28.75 17.77 24.3919C16.5854 20.5148 16.9316 12.8989 22.5087 8.81402C28.0858 4.72914 36.7247 5.00608 40 5.00608C38.662 6.16923 37.0267 11.3988 36.3763 13.8682C35.633 16.1068 33.4774 21.1379 30.8014 23.3534C27.4564 26.1228 23.0662 25.8459 20.9059 25.8459C21.324 17.2607 27.3171 12.6912 29.8955 10.3372C20.5296 14.6021 17.4448 28.9728 17.561 33.75Z" fill="#2A9F47"/>
</g>
<path d="M50.0227 31.5V8.22727H59.3409C61.053 8.22727 62.4811 8.48106 63.625 8.98864C64.7689 9.49621 65.6288 10.2008 66.2045 11.1023C66.7803 11.9962 67.0682 13.0265 67.0682 14.1932C67.0682 15.1023 66.8864 15.9015 66.5227 16.5909C66.1591 17.2727 65.6591 17.8333 65.0227 18.2727C64.3939 18.7045 63.6742 19.0114 62.8636 19.1932V19.4205C63.75 19.4583 64.5795 19.7083 65.3523 20.1705C66.1326 20.6326 66.7652 21.2803 67.25 22.1136C67.7348 22.9394 67.9773 23.9242 67.9773 25.0682C67.9773 26.303 67.6705 27.4053 67.0568 28.375C66.4508 29.3371 65.553 30.0985 64.3636 30.6591C63.1742 31.2197 61.7083 31.5 59.9659 31.5H50.0227ZM54.9432 27.4773H58.9545C60.3258 27.4773 61.3258 27.2159 61.9545 26.6932C62.5833 26.1629 62.8977 25.4583 62.8977 24.5795C62.8977 23.9356 62.7424 23.3674 62.4318 22.875C62.1212 22.3826 61.678 21.9962 61.1023 21.7159C60.5341 21.4356 59.8561 21.2955 59.0682 21.2955H54.9432V27.4773ZM54.9432 17.9659H58.5909C59.2652 17.9659 59.8636 17.8485 60.3864 17.6136C60.9167 17.3712 61.3333 17.0303 61.6364 16.5909C61.947 16.1515 62.1023 15.625 62.1023 15.0114C62.1023 14.1705 61.803 13.4924 61.2045 12.9773C60.6136 12.4621 59.7727 12.2045 58.6818 12.2045H54.9432V17.9659ZM76.1794 8.22727V31.5H71.259V8.22727H76.1794ZM101.694 19.8636C101.694 22.4015 101.213 24.5606 100.251 26.3409C99.2964 28.1212 97.9933 29.4811 96.3418 30.4205C94.6979 31.3523 92.8494 31.8182 90.7964 31.8182C88.7282 31.8182 86.8721 31.3485 85.2282 30.4091C83.5842 29.4697 82.285 28.1098 81.3305 26.3295C80.3759 24.5492 79.8986 22.3939 79.8986 19.8636C79.8986 17.3258 80.3759 15.1667 81.3305 13.3864C82.285 11.6061 83.5842 10.25 85.2282 9.31818C86.8721 8.37879 88.7282 7.90909 90.7964 7.90909C92.8494 7.90909 94.6979 8.37879 96.3418 9.31818C97.9933 10.25 99.2964 11.6061 100.251 13.3864C101.213 15.1667 101.694 17.3258 101.694 19.8636ZM96.7055 19.8636C96.7055 18.2197 96.4592 16.8333 95.9668 15.7045C95.482 14.5758 94.7964 13.7197 93.91 13.1364C93.0236 12.553 91.9858 12.2614 90.7964 12.2614C89.607 12.2614 88.5691 12.553 87.6827 13.1364C86.7964 13.7197 86.107 14.5758 85.6145 15.7045C85.1297 16.8333 84.8873 18.2197 84.8873 19.8636C84.8873 21.5076 85.1297 22.8939 85.6145 24.0227C86.107 25.1515 86.7964 26.0076 87.6827 26.5909C88.5691 27.1742 89.607 27.4659 90.7964 27.4659C91.9858 27.4659 93.0236 27.1742 93.91 26.5909C94.7964 26.0076 95.482 25.1515 95.9668 24.0227C96.4592 22.8939 96.7055 21.5076 96.7055 19.8636Z" fill="#2A9F47"/>
<defs>
<clipPath id="clip0_534_28711">
<rect width="40" height="40" fill="white"/>
</clipPath>
</defs>
</svg>
