<svg width="32" height="32" viewBox="0 0 32 32" fill="none" xmlns="http://www.w3.org/2000/svg">
<path fill-rule="evenodd" clip-rule="evenodd" d="M10.3514 2.08609C10.2619 1.848 10.2623 1.55029 10.3519 1.19314C10.4413 0.835823 10.6535 0.547951 10.9886 0.329532C11.3236 0.111279 12.9873 0.00132749 15.9793 1.08586e-05C18.9714 -0.00130578 20.6457 0.117112 21.0029 0.35509C21.3601 0.593063 21.5721 0.781454 21.6389 0.920263C21.7058 1.05924 21.7393 1.2674 21.7393 1.54525C21.7389 1.8231 21.5825 2.14073 21.2697 2.49782C20.9568 2.85524 20.8002 3.58956 20.7996 4.70062C20.799 5.81201 20.8652 6.8239 20.9988 7.73665C21.1324 8.64941 21.4442 9.83975 21.9346 11.308C22.4252 12.7762 22.7258 13.9367 22.8371 14.7899C22.9481 15.6433 23.0025 18.3718 22.9999 22.9752C22.9974 27.5789 22.8731 30.1089 22.6274 30.5654C22.3813 31.0219 22.0351 31.3693 21.5883 31.6076C21.1418 31.8459 19.3219 31.9756 16.1287 31.9969C12.9359 32.0182 11.0938 31.9298 10.6026 31.7314C10.1117 31.5332 9.72102 31.2258 9.43095 30.8094C9.14088 30.3926 8.9973 27.7239 9.00004 22.8028C9.00278 17.8816 9.09381 14.925 9.27294 13.9329C9.45207 12.9407 9.73176 11.9383 10.112 10.9262C10.4919 9.91409 10.7606 8.90186 10.9174 7.88986C11.0742 6.87786 11.153 5.81608 11.1536 4.70502C11.1542 3.59362 11.0429 2.93902 10.8197 2.74071C10.5965 2.54239 10.4404 2.32419 10.3514 2.08609ZM15.9955 25.58C18.2016 25.58 19.99 23.9907 19.99 22.0302C19.99 20.0697 18.1464 15.2037 15.9955 14.1115C13.8447 15.2037 12.0011 20.0697 12.0011 22.0302C12.0011 23.9907 13.7895 25.58 15.9955 25.58Z" fill="black"/>
</svg>
