<svg width="104" height="40" viewBox="0 0 104 40" fill="none" xmlns="http://www.w3.org/2000/svg">
<g clip-path="url(#clip0_498_32087)">
<g clip-path="url(#clip1_498_32087)">
<path d="M11.2507 10.1167C10.8667 9.36083 10.6661 8.53833 10.6486 7.64938C10.6311 6.76043 10.9544 6.27577 11.6181 6.19561C12.2817 6.11544 13.0432 6.12146 13.9025 6.21369C14.7618 6.3059 15.4715 6.43999 16.0311 6.61635C16.5911 6.79253 17.0674 7.00729 17.4603 7.26067C17.8532 7.51406 18.2599 7.91507 18.6809 8.46354C19.1015 9.01222 19.3898 9.56763 19.5454 10.13C19.7011 10.6923 19.7745 11.2247 19.7656 11.7272C19.7567 12.2296 19.6177 12.6019 19.3483 12.8443L18.9448 13.2074L18.2081 12.7323C17.717 12.4156 17.1588 12.1481 16.5334 11.9297C15.908 11.7113 14.9673 11.5434 13.7112 11.4261C12.4549 11.309 11.6347 10.8725 11.2507 10.1167Z" fill="#F2BA00"/>
<path d="M16.4112 4.78253C16.6238 3.99567 17.0684 3.1967 17.7451 2.38558C18.4215 1.57468 19.0282 0.972661 19.5651 0.579551L20.3702 -0.0100098L21.0578 0.433402C21.5161 0.729004 22.0539 1.21448 22.6712 1.88965C23.2883 2.56501 23.7394 3.27168 24.0244 4.00987C24.3093 4.74806 24.4339 5.19791 24.3978 5.35959C24.3621 5.52106 23.8751 5.90013 22.9373 6.49663C21.9998 7.09293 21.2928 7.74584 20.8167 8.45516L20.1026 9.51913L19.9121 9.04992C19.7853 8.73699 19.5268 8.36263 19.1373 7.92645C18.7477 7.49029 18.1426 7.05418 17.3227 6.61749C16.5025 6.18101 16.1987 5.56936 16.4112 4.78253Z" fill="#F2BA00"/>
<path d="M11.0545 15.6033C10.7368 14.844 10.5685 14.0654 10.5493 13.2679C10.5305 12.4701 10.7538 12.0135 11.2194 11.898C11.685 11.7826 12.3146 11.7498 13.1084 11.7998C13.9023 11.8498 14.6455 11.9593 15.3378 12.1288C16.0301 12.2982 16.5732 12.4866 16.9669 12.6943C17.3606 12.902 17.8173 13.289 18.3373 13.8551C18.857 14.4215 19.2111 14.9962 19.3995 15.5797C19.5879 16.1631 19.6769 16.7518 19.6663 17.3457C19.6558 17.9395 19.5164 18.3347 19.2481 18.5311C18.9795 18.7278 18.4354 18.6077 17.6152 18.1712C16.7951 17.7347 15.8405 17.4192 14.7512 17.2249C13.6619 17.0306 12.9348 16.9543 12.5697 16.9962C12.2048 17.0379 11.9404 17.0061 11.7767 16.9005C11.613 16.7949 11.3721 16.3626 11.0545 15.6033Z" fill="#F2BA00"/>
<path d="M20.8417 9.85712C21.0853 9.18279 21.3431 8.65589 21.6144 8.27686C21.886 7.89761 22.3239 7.48686 22.9276 7.04478C23.5316 6.60251 24.2 6.24838 24.9333 5.98195C25.6664 5.71574 26.6138 5.51801 27.7749 5.38918C28.9361 5.26038 29.5658 5.22763 29.664 5.29097C29.7622 5.35433 29.7696 5.88999 29.6855 6.89839C29.6014 7.90678 29.405 8.70439 29.0967 9.29079C28.7885 9.8772 28.5504 10.2319 28.3826 10.3548C28.2147 10.4777 27.6828 10.5966 26.7869 10.7116C25.8907 10.8267 25.2095 10.9649 24.7431 11.126C24.2766 11.2872 23.5915 11.6536 22.6872 12.2255L21.3309 13.0834L20.8901 12.7298C20.5963 12.4941 20.454 12.1249 20.4629 11.6224C20.4717 11.12 20.5978 10.5317 20.8417 9.85712Z" fill="#F2BA00"/>
<path d="M11.002 21.3903C10.6516 20.6099 10.4671 19.7982 10.4491 18.9547C10.4308 18.1115 10.4719 17.6529 10.5727 17.5792C10.6731 17.5057 10.8892 17.4601 11.2208 17.4428C11.5521 17.4257 12.2964 17.4668 13.4536 17.5663C14.6109 17.6657 15.4198 17.7948 15.8807 17.9534C16.3413 18.1121 16.8173 18.3497 17.3083 18.6664C17.7995 18.9831 18.2388 19.4279 18.6259 20.0012C19.0132 20.5742 19.2829 21.2332 19.4354 21.9785C19.5877 22.7236 19.6451 23.2226 19.6075 23.4754C19.5699 23.7285 19.3835 23.9778 19.0481 24.2234L18.5448 24.5919L17.8093 24.0483C17.319 23.6858 16.8272 23.4149 16.3339 23.235C15.8403 23.0554 14.916 22.8981 13.5605 22.7633C12.2054 22.6283 11.3525 22.1708 11.002 21.3903Z" fill="#F2BA00"/>
<path d="M20.7437 15.4071C20.9176 14.919 21.2249 14.4009 21.6649 13.8533C22.1053 13.3054 22.6267 12.8334 23.2299 12.4368C23.8329 12.0405 24.3676 11.7616 24.8341 11.6004C25.3005 11.4393 25.5665 11.3797 25.632 11.4219C25.6975 11.4642 26.0296 11.4013 26.6286 11.2333C27.2277 11.0652 27.8586 10.9639 28.5215 10.9294C29.1843 10.8949 29.565 10.9093 29.6632 10.9726C29.7614 11.0359 29.77 11.4807 29.6891 12.3062C29.6085 13.1319 29.4466 13.8589 29.2035 14.4877C28.961 15.1165 28.7211 15.5625 28.4848 15.8258C28.2482 16.0893 27.9479 16.2189 27.5837 16.2148C27.2196 16.2111 26.5719 16.3248 25.6408 16.5557C24.7091 16.7867 23.9934 17.0178 23.4925 17.2492C22.9919 17.4808 22.523 17.779 22.086 18.1441C21.649 18.5088 21.3643 18.6951 21.2317 18.702C21.0993 18.7087 20.9187 18.6153 20.6904 18.4218C20.4619 18.2286 20.3702 17.7996 20.4149 17.1357C20.4598 16.4716 20.5694 15.8953 20.7437 15.4071Z" fill="#F2BA00"/>
<path d="M10.9027 27.0088C10.5522 26.2283 10.351 25.4289 10.2994 24.6101C10.2475 23.7914 10.2719 23.3452 10.3727 23.2714C10.4734 23.1977 10.7556 23.1489 11.2197 23.1246C11.6836 23.1005 12.4116 23.1312 13.4034 23.2164C14.3955 23.3018 15.1711 23.4325 15.7311 23.6087C16.291 23.7849 16.7999 24.021 17.2581 24.3165C17.7165 24.6122 18.1709 25.136 18.6213 25.8884C19.0717 26.6408 19.3418 27.277 19.4321 27.7972C19.522 28.3175 19.5307 28.762 19.4579 29.1307C19.3854 29.4997 19.2315 29.7699 18.9965 29.942L18.6443 30.1999L17.9568 29.7565C17.4986 29.461 16.9403 29.1934 16.2823 28.9536C15.6243 28.7142 14.932 28.5447 14.2049 28.4457C13.4785 28.3467 12.8832 28.3092 12.4188 28.3333C11.955 28.3575 11.6737 28.3378 11.5757 28.2746C11.4774 28.2112 11.2532 27.7892 10.9027 27.0088Z" fill="#F2BA00"/>
<path d="M20.7461 20.8835C20.9883 20.3004 21.2952 19.7824 21.6677 19.3295C22.0399 18.8765 22.694 18.3975 23.6303 17.8925C24.5662 17.3873 25.7644 17.0284 27.2254 16.8156C28.6862 16.6026 29.4657 16.5278 29.564 16.5912C29.662 16.6544 29.6887 17.0184 29.6439 17.6822C29.599 18.3463 29.4201 19.1087 29.1069 19.9693C28.7935 20.8298 28.5359 21.3568 28.3339 21.5498C28.1317 21.7426 27.7156 21.8672 27.0855 21.9228C26.4552 21.9783 25.724 22.1305 24.892 22.3791C24.06 22.6277 23.2082 23.0258 22.3378 23.5729C21.9024 23.8465 21.4671 24.1202 21.032 24.394L20.6403 24.0721C20.3793 23.8575 20.271 23.4182 20.3159 22.754C20.3605 22.09 20.5041 21.4664 20.7461 20.8835Z" fill="#F2BA00"/>
<path d="M10.4682 31.926C10.3398 31.7045 10.2496 31.1844 10.1975 30.3656C10.146 29.5467 10.1872 29.0883 10.3212 28.9901C10.4555 28.8918 10.788 28.8288 11.3181 28.8013C11.8483 28.7737 12.5267 28.7955 13.3533 28.8666C14.1797 28.9376 14.8404 29.0401 15.3345 29.1742C15.8289 29.3081 16.4037 29.5863 17.0584 30.0086C17.7132 30.4309 18.2175 30.9411 18.5712 31.5386C18.9249 32.1362 19.163 32.7286 19.2849 33.3154C19.4071 33.9024 19.4483 34.3682 19.409 34.7124C19.3701 35.0568 19.2162 35.327 18.9476 35.5237C18.6793 35.7201 18.2634 35.8445 17.6995 35.8965C17.1355 35.9489 16.4075 35.9182 15.5156 35.805C14.6234 35.6915 13.8167 35.4483 13.0948 35.0752C12.3729 34.7021 11.7533 34.1638 11.2358 33.4606C10.7183 32.7573 10.4933 32.381 10.5604 32.3318C10.6273 32.2829 10.5965 32.1475 10.4682 31.926Z" fill="#F2BA00"/>
<path d="M20.54 26.9182C20.7847 26.1979 21.0595 25.6362 21.3646 25.2323C21.6699 24.8286 22.1077 24.4178 22.6779 24.0003C23.2481 23.5828 23.8001 23.2688 24.3335 23.0584C24.8671 22.8481 25.8142 22.6506 27.1751 22.4656C28.5362 22.2808 29.2817 22.2535 29.4117 22.3835C29.5419 22.5137 29.567 22.9688 29.487 23.7486C29.4072 24.5286 29.2117 25.2805 28.9009 26.004C28.5902 26.7275 28.3339 27.1629 28.1328 27.3102C27.9313 27.4577 27.4659 27.5733 26.736 27.6569C26.0057 27.7404 25.3413 27.8663 24.7424 28.0345C24.1432 28.2025 23.677 28.3638 23.3431 28.5179C23.0093 28.6721 22.5736 28.9686 22.0359 29.4075C21.4985 29.8461 21.0655 29.9826 20.7374 29.8172C20.4092 29.6518 20.2333 29.3072 20.2094 28.7836C20.1855 28.26 20.2956 27.6382 20.54 26.9182Z" fill="#F2BA00"/>
<path d="M20.5991 32.0151C20.8742 31.4531 21.1805 30.9806 21.518 30.5981C21.8562 30.2155 22.4434 29.7855 23.2795 29.3083C24.1158 28.8313 24.9826 28.4895 25.8804 28.2834C26.7783 28.0768 27.5586 27.9563 28.2214 27.9218C28.8842 27.8873 29.2637 27.9475 29.3606 28.1021C29.457 28.2567 29.4834 28.6436 29.4393 29.2617C29.3952 29.8801 29.1664 30.6565 28.7525 31.5908C28.3386 32.5248 27.8128 33.2483 27.1744 33.7609C26.5362 34.2732 25.867 34.6731 25.1663 34.9605C24.4661 35.2479 23.6015 35.4528 22.5729 35.5746C21.544 35.6966 20.882 35.6854 20.5865 35.5411C20.2911 35.3968 20.1145 35.0749 20.0574 34.5761C19.9999 34.0771 20.0215 33.7905 20.122 33.717C20.2227 33.6432 20.2587 33.4815 20.2299 33.2322C20.2015 32.9827 20.3244 32.5768 20.5991 32.0151Z" fill="#F2BA00"/>
<path d="M18.9208 39.872C18.8233 39.7629 18.7846 39.1373 18.8045 37.9954C18.825 36.8535 18.9857 36.1947 19.2868 36.0194C19.5879 35.8441 19.8697 35.8178 20.1327 35.9412C20.3953 36.0643 20.5163 36.7199 20.495 37.9075C20.474 39.0953 20.3967 39.7381 20.2624 39.8364C20.1281 39.9348 19.8954 39.9923 19.5637 40.0096C19.2326 40.0268 19.018 39.9809 18.9208 39.872Z" fill="#F2BA00"/>
</g>
</g>
<path d="M65.4545 15.75C65.2955 15.197 65.072 14.7083 64.7841 14.2841C64.4962 13.8523 64.1439 13.4886 63.7273 13.1932C63.3182 12.8902 62.8485 12.6591 62.3182 12.5C61.7955 12.3409 61.2159 12.2614 60.5795 12.2614C59.3902 12.2614 58.3447 12.5568 57.4432 13.1477C56.5492 13.7386 55.8523 14.5985 55.3523 15.7273C54.8523 16.8485 54.6023 18.2197 54.6023 19.8409C54.6023 21.4621 54.8485 22.8409 55.3409 23.9773C55.8333 25.1136 56.5303 25.9811 57.4318 26.5795C58.3333 27.1705 59.3977 27.4659 60.625 27.4659C61.7386 27.4659 62.6894 27.2689 63.4773 26.875C64.2727 26.4735 64.8788 25.9091 65.2955 25.1818C65.7197 24.4545 65.9318 23.5947 65.9318 22.6023L66.9318 22.75H60.9318V19.0455H70.6705V21.9773C70.6705 24.0227 70.2386 25.7803 69.375 27.25C68.5114 28.7121 67.322 29.8409 65.8068 30.6364C64.2917 31.4242 62.5568 31.8182 60.6023 31.8182C58.4205 31.8182 56.5038 31.3371 54.8523 30.375C53.2008 29.4053 51.9129 28.0303 50.9886 26.25C50.072 24.4621 49.6136 22.3409 49.6136 19.8864C49.6136 18 49.8864 16.3182 50.4318 14.8409C50.9848 13.3561 51.7576 12.0985 52.75 11.0682C53.7424 10.0379 54.8977 9.25379 56.2159 8.71591C57.5341 8.17803 58.9621 7.90909 60.5 7.90909C61.8182 7.90909 63.0455 8.10227 64.1818 8.48864C65.3182 8.86742 66.3258 9.4053 67.2045 10.1023C68.0909 10.7992 68.8144 11.6288 69.375 12.5909C69.9356 13.5455 70.2955 14.5985 70.4545 15.75H65.4545ZM74.4465 31.5V8.22727H89.8556V12.2841H79.3669V17.8295H88.8328V21.8864H79.3669V31.5H74.4465Z" fill="#F2BA00"/>
<defs>
<clipPath id="clip0_498_32087">
<rect width="40" height="40" fill="white"/>
</clipPath>
<clipPath id="clip1_498_32087">
<rect width="40" height="40" fill="white"/>
</clipPath>
</defs>
</svg>
