<svg width="32" height="32" viewBox="0 0 32 32" fill="none" xmlns="http://www.w3.org/2000/svg">
<g clip-path="url(#clip0_460_25694)">
<path d="M9.00036 8.09329C8.69316 7.48862 8.5327 6.83062 8.51871 6.11946C8.50472 5.40829 8.7633 5.02057 9.29425 4.95644C9.82519 4.8923 10.4344 4.89712 11.1218 4.9709C11.8092 5.04467 12.377 5.15194 12.8247 5.29303C13.2727 5.43398 13.6538 5.60579 13.9681 5.80849C14.2824 6.0112 14.6078 6.33201 14.9445 6.77079C15.281 7.20973 15.5116 7.65405 15.6362 8.10392C15.7607 8.55379 15.8194 8.97972 15.8123 9.38169C15.8052 9.78366 15.694 10.0815 15.4785 10.2754L15.1556 10.5659L14.5663 10.1858C14.1734 9.93244 13.7268 9.7184 13.2265 9.54368C12.7262 9.36897 11.9736 9.23469 10.9688 9.14084C9.96372 9.04715 9.30759 8.69797 9.00036 8.09329Z" fill="#F2BA00"/>
<path d="M13.1288 3.82597C13.2988 3.19649 13.6545 2.55731 14.1959 1.90841C14.737 1.25969 15.2224 0.77808 15.6519 0.463592L16.296 -0.00805664L16.846 0.346673C17.2127 0.583154 17.6429 0.971532 18.1368 1.51167C18.6304 2.05196 18.9913 2.61729 19.2193 3.20785C19.4473 3.7984 19.5469 4.15828 19.5181 4.28763C19.4894 4.4168 19.0999 4.72006 18.3497 5.19726C17.5996 5.6743 17.0341 6.19662 16.6532 6.76408L16.0819 7.61526L15.9295 7.23988C15.828 6.98954 15.6213 6.69005 15.3096 6.34111C14.998 5.99219 14.5139 5.6433 13.858 5.29394C13.2018 4.94476 12.9588 4.45544 13.1288 3.82597Z" fill="#F2BA00"/>
<path d="M8.84336 12.4826C8.58921 11.8751 8.45459 11.2523 8.43926 10.6142C8.42418 9.97604 8.60286 9.61076 8.97531 9.51838C9.34778 9.42602 9.85152 9.39983 10.4866 9.43981C11.1216 9.47981 11.7162 9.56741 12.2701 9.70297C12.8239 9.83851 13.2584 9.98926 13.5733 10.1554C13.8883 10.3216 14.2537 10.6312 14.6696 11.0841C15.0854 11.5371 15.3687 11.9969 15.5194 12.4637C15.6701 12.9305 15.7413 13.4014 15.7329 13.8765C15.7244 14.3516 15.6129 14.6677 15.3983 14.8249C15.1834 14.9822 14.7481 14.8861 14.092 14.5369C13.4359 14.1877 12.6722 13.9353 11.8007 13.7799C10.9293 13.6244 10.3476 13.5634 10.0555 13.5969C9.76364 13.6303 9.55212 13.6048 9.42115 13.5203C9.2902 13.4359 9.09752 13.09 8.84336 12.4826Z" fill="#F2BA00"/>
<path d="M16.6732 7.88565C16.868 7.34618 17.0743 6.92466 17.2913 6.62144C17.5086 6.31804 17.8589 5.98944 18.3419 5.63578C18.8251 5.28196 19.3598 4.99865 19.9465 4.78551C20.5329 4.57254 21.2908 4.41436 22.2197 4.3113C23.1487 4.20825 23.6524 4.18206 23.731 4.23273C23.8096 4.28342 23.8155 4.71194 23.7482 5.51866C23.681 6.32538 23.5238 6.96346 23.2772 7.43258C23.0306 7.90171 22.8401 8.18544 22.7059 8.28377C22.5716 8.38209 22.1461 8.47724 21.4293 8.5692C20.7124 8.66132 20.1674 8.77184 19.7942 8.90078C19.4211 9.02969 18.873 9.32285 18.1496 9.78038L17.0645 10.4667L16.7119 10.1838C16.4769 9.99522 16.363 9.69987 16.3701 9.2979C16.3772 8.89593 16.4781 8.42528 16.6732 7.88565Z" fill="#F2BA00"/>
<path d="M8.80144 17.1122C8.5211 16.4879 8.37348 15.8385 8.35907 15.1637C8.34441 14.4891 8.37735 14.1223 8.45793 14.0633C8.53828 14.0045 8.71119 13.9681 8.97645 13.9542C9.24147 13.9405 9.83689 13.9734 10.7627 14.053C11.6885 14.1325 12.3357 14.2358 12.7044 14.3626C13.0728 14.4896 13.4536 14.6797 13.8465 14.9331C14.2394 15.1865 14.5908 15.5423 14.9005 16.0009C15.2103 16.4593 15.4261 16.9865 15.5482 17.5827C15.67 18.1788 15.7159 18.578 15.6858 18.7802C15.6557 18.9828 15.5066 19.1822 15.2383 19.3787L14.8356 19.6735L14.2473 19.2386C13.855 18.9486 13.4616 18.7319 13.0669 18.588C12.672 18.4443 11.9326 18.3185 10.8482 18.2106C9.76412 18.1026 9.0818 17.7366 8.80144 17.1122Z" fill="#F2BA00"/>
<path d="M16.5947 12.3256C16.7339 11.9351 16.9797 11.5207 17.3318 11.0826C17.684 10.6443 18.1012 10.2667 18.5837 9.94942C19.0661 9.63233 19.4939 9.40922 19.8671 9.2803C20.2402 9.15137 20.453 9.10371 20.5054 9.13749C20.5578 9.17129 20.8235 9.12103 21.3027 8.98656C21.7819 8.85208 22.2867 8.77105 22.817 8.74347C23.3473 8.7159 23.6518 8.72736 23.7304 8.77803C23.8089 8.8287 23.8158 9.18451 23.7511 9.84493C23.6866 10.5055 23.5571 11.0871 23.3626 11.5901C23.1686 12.0932 22.9767 12.45 22.7876 12.6606C22.5983 12.8714 22.3581 12.9751 22.0668 12.9718C21.7754 12.9689 21.2573 13.0598 20.5124 13.2445C19.7671 13.4293 19.1945 13.6142 18.7938 13.7993C18.3933 13.9846 18.0182 14.2232 17.6686 14.5152C17.319 14.807 17.0913 14.956 16.9851 14.9615C16.8792 14.9669 16.7347 14.8922 16.5521 14.7374C16.3693 14.5828 16.296 14.2397 16.3317 13.7085C16.3677 13.1772 16.4553 12.7162 16.5947 12.3256Z" fill="#F2BA00"/>
<path d="M8.72197 21.607C8.4416 20.9826 8.28059 20.3431 8.23934 19.688C8.19782 19.0331 8.21735 18.6761 8.29793 18.6171C8.3785 18.5581 8.60425 18.5191 8.97558 18.4996C9.34671 18.4804 9.92905 18.5049 10.7225 18.5731C11.5162 18.6414 12.1367 18.746 12.5847 18.8869C13.0326 19.0279 13.4398 19.2168 13.8063 19.4532C14.173 19.6897 14.5366 20.1088 14.8968 20.7107C15.2571 21.3126 15.4733 21.8216 15.5454 22.2377C15.6174 22.654 15.6244 23.0095 15.5661 23.3046C15.5081 23.5997 15.385 23.8159 15.197 23.9536L14.9152 24.1599L14.3652 23.8052C13.9987 23.5688 13.552 23.3547 13.0256 23.1629C12.4992 22.9713 11.9454 22.8357 11.3638 22.7565C10.7826 22.6773 10.3064 22.6473 9.93488 22.6666C9.56384 22.6859 9.33878 22.6702 9.26036 22.6196C9.18173 22.5689 9.00233 22.2313 8.72197 21.607Z" fill="#F2BA00"/>
<path d="M16.5966 16.7067C16.7905 16.2402 17.0359 15.8259 17.3339 15.4636C17.6317 15.1011 18.155 14.718 18.904 14.3139C19.6528 13.9098 20.6113 13.6227 21.7802 13.4524C22.9487 13.282 23.5724 13.2222 23.651 13.2729C23.7294 13.3234 23.7508 13.6146 23.7149 14.1457C23.679 14.677 23.5359 15.2869 23.2853 15.9754C23.0346 16.6638 22.8285 17.0854 22.667 17.2398C22.5052 17.394 22.1723 17.4937 21.6682 17.5382C21.164 17.5826 20.579 17.7043 19.9134 17.9032C19.2478 18.1021 18.5664 18.4206 17.87 18.8583C17.5217 19.0772 17.1735 19.2961 16.8254 19.5152L16.512 19.2576C16.3032 19.0859 16.2166 18.7345 16.2525 18.2032C16.2882 17.672 16.4031 17.1731 16.5966 16.7067Z" fill="#F2BA00"/>
<path d="M8.37434 25.5407C8.27165 25.3636 8.19947 24.9474 8.1578 24.2924C8.11657 23.6373 8.14956 23.2706 8.25677 23.1921C8.3642 23.1134 8.63019 23.063 9.05431 23.041C9.47842 23.0189 10.0211 23.0363 10.6825 23.0933C11.3436 23.1501 11.8721 23.232 12.2674 23.3393C12.663 23.4465 13.1227 23.669 13.6465 24.0068C14.1703 24.3446 14.5738 24.7528 14.8568 25.2309C15.1397 25.7089 15.3302 26.1828 15.4277 26.6523C15.5254 27.1219 15.5584 27.4945 15.527 27.7699C15.4959 28.0454 15.3728 28.2615 15.1579 28.4189C14.9433 28.576 14.6106 28.6756 14.1594 28.7171C13.7082 28.759 13.1258 28.7345 12.4123 28.6439C11.6986 28.5532 11.0532 28.3586 10.4756 28.0601C9.89812 27.7616 9.40247 27.331 8.98846 26.7684C8.57445 26.2058 8.39442 25.9048 8.44814 25.8654C8.50163 25.8263 8.47703 25.7179 8.37434 25.5407Z" fill="#F2BA00"/>
<path d="M16.4318 21.5345C16.6276 20.9583 16.8474 20.5089 17.0915 20.1858C17.3358 19.8628 17.686 19.5342 18.1421 19.2002C18.5983 18.8662 19.0399 18.615 19.4666 18.4467C19.8935 18.2785 20.6512 18.1204 21.7398 17.9725C22.8287 17.8246 23.4252 17.8027 23.5292 17.9068C23.6334 18.011 23.6534 18.375 23.5894 18.9988C23.5256 19.6228 23.3691 20.2244 23.1205 20.8032C22.8719 21.382 22.667 21.7303 22.506 21.8481C22.3449 21.9661 21.9725 22.0586 21.3886 22.1255C20.8044 22.1923 20.2728 22.293 19.7937 22.4275C19.3144 22.5619 18.9414 22.691 18.6743 22.8143C18.4073 22.9377 18.0587 23.1749 17.6285 23.5259C17.1986 23.8768 16.8522 23.986 16.5897 23.8537C16.3272 23.7214 16.1864 23.4457 16.1673 23.0268C16.1482 22.6079 16.2363 22.1105 16.4318 21.5345Z" fill="#F2BA00"/>
<path d="M16.4791 25.612C16.6991 25.1624 16.9442 24.7844 17.2142 24.4784C17.4848 24.1723 17.9545 23.8284 18.6234 23.4466C19.2925 23.065 19.9859 22.7916 20.7041 22.6266C21.4224 22.4614 22.0467 22.365 22.5769 22.3374C23.1072 22.3098 23.4107 22.3579 23.4883 22.4816C23.5654 22.6053 23.5865 22.9148 23.5512 23.4093C23.516 23.9041 23.3329 24.5251 23.0018 25.2726C22.6707 26.0198 22.25 26.5986 21.7393 27.0087C21.2288 27.4185 20.6934 27.7384 20.1328 27.9684C19.5727 28.1983 18.881 28.3622 18.0581 28.4596C17.235 28.5573 16.7054 28.5483 16.469 28.4329C16.2327 28.3174 16.0914 28.0599 16.0457 27.6608C15.9997 27.2616 16.017 27.0324 16.0974 26.9735C16.178 26.9145 16.2067 26.7852 16.1838 26.5857C16.161 26.3861 16.2593 26.0614 16.4791 25.612Z" fill="#F2BA00"/>
<path d="M15.1364 31.8975C15.0584 31.8102 15.0275 31.3098 15.0434 30.3963C15.0598 29.4828 15.1884 28.9557 15.4293 28.8155C15.6701 28.6752 15.8956 28.6542 16.1059 28.7529C16.3161 28.8514 16.4128 29.3759 16.3958 30.3259C16.379 31.2762 16.3172 31.7904 16.2097 31.8691C16.1023 31.9478 15.9161 31.9938 15.6508 32.0076C15.3859 32.0214 15.2142 31.9847 15.1364 31.8975Z" fill="#F2BA00"/>
</g>
<defs>
<clipPath id="clip0_460_25694">
<rect width="32" height="32" fill="white"/>
</clipPath>
</defs>
</svg>
