<svg width="104" height="40" viewBox="0 0 104 40" fill="none" xmlns="http://www.w3.org/2000/svg">
<g clip-path="url(#clip0_498_32079)">
<path d="M21.4978 1.34256C18.9721 2.02547 17.3862 2.53022 16.7401 2.85683C16.0939 3.18344 15.7709 3.39125 15.7709 3.48033C15.7709 3.5694 16.9604 4.81645 19.3392 7.22147C21.7181 9.62649 23.1571 10.9626 23.6564 11.2298C24.1556 11.4971 24.743 11.6455 25.4185 11.6752C26.0939 11.705 28.0617 11.2744 31.3216 10.3836C32.9515 9.93825 34.5815 9.49287 36.2115 9.0475C36.0499 8.75061 35.8884 8.45373 35.7269 8.15675C35.4038 7.56298 34.2878 6.30106 32.3789 4.37107C30.4699 2.44114 29.2364 1.31287 28.6784 0.986259C28.1204 0.659649 27.4155 0.466659 26.5639 0.407273C25.7122 0.347887 24.0234 0.659649 21.4978 1.34256ZM14.6696 4.90552C14.3465 5.52905 13.8913 6.95424 13.304 9.18111C12.7166 11.408 12.4229 12.6254 12.4229 12.8332C12.4229 13.0411 13.5976 13.8279 15.9471 15.1937C18.2966 16.5595 19.6622 17.4651 20.0441 17.9104C20.4258 18.3558 20.7195 18.8457 20.9251 19.3802C21.0278 19.6474 21.1307 19.9146 21.2335 20.1818C21.4097 19.9889 21.5859 19.7959 21.7621 19.6029C22.1145 19.2169 22.5844 17.8659 23.1718 15.55C23.7591 13.234 23.8032 11.9573 23.304 11.7197C22.8047 11.4823 21.3216 10.1313 18.8546 7.66684C17.6211 6.43467 16.3877 5.2025 15.1542 3.97024C14.9926 4.282 14.8311 4.59376 14.6696 4.90552ZM31.3656 11.0071C28.1938 11.8979 26.2848 12.3433 25.6388 12.3433C24.9926 12.3433 24.4053 13.3528 23.8767 15.3718C23.6123 16.3814 23.348 17.3909 23.0837 18.4004C23.3333 18.2965 23.5829 18.1925 23.8326 18.0886C24.3318 17.8808 24.9045 17.762 25.5507 17.7323C26.1967 17.7026 27.7679 18.0293 30.2643 18.7121C32.7606 19.395 34.1115 19.5138 34.3172 19.0684C34.5227 18.623 34.9192 17.2869 35.5066 15.06C36.0939 12.8332 36.4023 11.4377 36.4317 10.8735C36.4611 10.3094 36.4611 9.968 36.4317 9.84917C36.4023 9.73044 36.3436 9.67102 36.2555 9.67102C36.1674 9.67102 34.5374 10.1164 31.3656 11.0071ZM8.85463 13.5458C8.4141 13.6943 7.3274 14.2732 5.59471 15.2827C3.86194 16.2923 2.76062 16.9455 2.29075 17.2424C1.82079 17.5394 1.45374 17.8362 1.18943 18.1331C0.92511 18.4301 0.85163 18.6528 0.969163 18.8012C1.08661 18.9497 2.39348 19.7513 4.88987 21.2062C7.38617 22.6612 8.83991 23.448 9.2511 23.5667C9.6622 23.6855 10.1468 23.7152 10.7048 23.6558C11.2628 23.5964 12.9221 22.765 15.6828 21.1617C18.4434 19.5583 19.8091 18.6973 19.7797 18.5785C19.7503 18.4598 19.6181 18.2816 19.3833 18.0441C19.1483 17.8066 18.0322 17.094 16.0352 15.9063C14.0381 14.7186 12.7166 13.9911 12.0705 13.7239C11.4243 13.4567 10.837 13.3231 10.3084 13.3231C9.77973 13.3231 9.29515 13.3974 8.85463 13.5458ZM24.6256 18.4449C24.3025 18.534 23.9207 18.7121 23.4802 18.9793C23.0396 19.2466 21.9383 20.2709 20.1762 22.0524C18.4141 23.8339 17.4155 24.9177 17.1806 25.3036C16.9456 25.6897 16.8282 25.942 16.8282 26.0608C16.8282 26.1796 18.2966 26.6398 21.2335 27.4414C24.1703 28.2431 25.8737 28.644 26.3436 28.644C26.8135 28.644 27.3128 28.5252 27.8414 28.2877C28.37 28.0502 29.7357 26.8031 31.9383 24.5465C33.0397 23.4183 34.141 22.29 35.2423 21.1617C34.9486 20.9984 34.6549 20.8351 34.3612 20.6718C33.7738 20.3452 32.3789 19.885 30.1762 19.2911C27.9736 18.6973 26.5785 18.3856 25.9912 18.3558C25.4038 18.3262 24.9485 18.3558 24.6256 18.4449ZM0.176211 19.8255C0.0586784 20.1818 0 21.6368 0 24.1902C0 26.7437 0.102731 28.2877 0.30837 28.8221C0.513921 29.3565 0.837005 29.8465 1.27753 30.2918C1.71806 30.7372 2.95154 31.5538 4.97797 32.7414C7.0044 33.9291 8.19383 34.5972 8.54626 34.7456C8.89868 34.8941 9.22167 34.9831 9.51542 35.0128C9.6622 35.0277 9.80907 35.0425 9.95595 35.0573C9.95595 33.2758 9.95595 31.4943 9.95595 29.7128C9.95595 26.1499 9.67692 24.2942 9.11894 24.1457C8.56088 23.9973 6.96035 23.1511 4.31718 21.607C2.99559 20.8351 1.67401 20.0631 0.352423 19.2911C0.293656 19.4692 0.23489 19.6474 0.176211 19.8255ZM16.5198 21.4289C14.141 22.8541 12.7753 23.6558 12.4229 23.8339C12.0705 24.0121 11.6886 24.1457 11.2775 24.2347C10.8663 24.3238 10.6608 26.1499 10.6608 29.7128C10.6608 31.4943 10.6608 33.2758 10.6608 35.0573C10.9251 34.998 11.1894 34.9386 11.4537 34.8792C11.9824 34.7604 13.0102 34.2557 14.5374 33.3649C16.0646 32.4742 16.6813 31.4796 16.3877 30.3809C16.0939 29.2823 15.9324 28.4956 15.9031 28.0204C15.8737 27.5454 15.8884 27.1297 15.9471 26.7734C16.0058 26.4171 16.1967 25.9272 16.5198 25.3036C16.8428 24.6801 17.6064 23.7746 18.8106 22.5869C20.0146 21.3992 20.5727 20.5827 20.4846 20.1373C20.3965 19.6919 20.3084 19.4396 20.2203 19.3802C20.1322 19.3209 18.8987 20.0037 16.5198 21.4289ZM32.2908 25.081C30.0881 27.3376 28.7811 28.5698 28.37 28.7776C27.9589 28.9855 28.2085 30.8115 29.1189 34.2557C29.5741 35.9778 30.0293 37.6999 30.4846 39.422C30.7195 39.3033 30.9545 39.1845 31.1894 39.0657C31.6593 38.8282 32.8194 37.7741 34.6696 35.9035C36.5198 34.033 37.5771 32.8157 37.8414 32.2515C38.1057 31.6874 38.2525 31.1233 38.2819 30.5591C38.3113 29.9949 38.0617 28.6885 37.533 26.6398C37.0044 24.591 36.652 23.344 36.4758 22.8986C36.2996 22.4533 36.1086 22.1415 35.9031 21.9633C35.6974 21.7852 34.4934 22.8244 32.2908 25.081ZM16.5639 27.7087C16.5639 28.2729 16.8282 29.5644 17.3568 31.5834C17.8855 33.6025 18.2232 34.7901 18.37 35.1464C18.5168 35.5027 18.7665 35.8888 19.1189 36.3044C19.4714 36.7201 19.8972 37.0615 20.3965 37.3287C20.8957 37.596 22.2907 38.0413 24.5815 38.6649C26.8722 39.2884 28.326 39.6001 28.9427 39.6001C29.2511 39.6001 29.5595 39.6001 29.8678 39.6001C29.4126 37.8781 28.9574 36.156 28.5022 34.4338C27.5917 30.9896 26.7988 29.2527 26.1233 29.2229C25.4478 29.1933 23.6857 28.7924 20.837 28.0204C19.4126 27.6345 17.9882 27.2485 16.5639 26.8625C16.5639 27.1446 16.5639 27.4267 16.5639 27.7087Z" fill="#CC7700"/>
</g>
<path d="M62.6477 14.9205C62.5568 14.0038 62.1667 13.2917 61.4773 12.7841C60.7879 12.2765 59.8523 12.0227 58.6705 12.0227C57.8674 12.0227 57.1894 12.1364 56.6364 12.3636C56.0833 12.5833 55.6591 12.8902 55.3636 13.2841C55.0758 13.678 54.9318 14.125 54.9318 14.625C54.9167 15.0417 55.0038 15.4053 55.1932 15.7159C55.3902 16.0265 55.6591 16.2955 56 16.5227C56.3409 16.7424 56.7348 16.9356 57.1818 17.1023C57.6288 17.2614 58.1061 17.3977 58.6136 17.5114L60.7045 18.0114C61.7197 18.2386 62.6515 18.5417 63.5 18.9205C64.3485 19.2992 65.0833 19.7652 65.7045 20.3182C66.3258 20.8712 66.8068 21.5227 67.1477 22.2727C67.4962 23.0227 67.6742 23.8826 67.6818 24.8523C67.6742 26.2765 67.3106 27.5114 66.5909 28.5568C65.8788 29.5947 64.8485 30.4015 63.5 30.9773C62.1591 31.5455 60.5417 31.8295 58.6477 31.8295C56.7689 31.8295 55.1326 31.5417 53.7386 30.9659C52.3523 30.3902 51.2689 29.5379 50.4886 28.4091C49.7159 27.2727 49.3106 25.8674 49.2727 24.1932H54.0341C54.0871 24.9735 54.3106 25.625 54.7045 26.1477C55.1061 26.6629 55.6402 27.053 56.3068 27.3182C56.9811 27.5758 57.7424 27.7045 58.5909 27.7045C59.4242 27.7045 60.1477 27.5833 60.7614 27.3409C61.3826 27.0985 61.8636 26.7614 62.2045 26.3295C62.5455 25.8977 62.7159 25.4015 62.7159 24.8409C62.7159 24.3182 62.5606 23.8788 62.25 23.5227C61.947 23.1667 61.5 22.8636 60.9091 22.6136C60.3258 22.3636 59.6098 22.1364 58.7614 21.9318L56.2273 21.2955C54.2652 20.8182 52.7159 20.072 51.5795 19.0568C50.4432 18.0417 49.8788 16.6742 49.8864 14.9545C49.8788 13.5455 50.2538 12.3144 51.0114 11.2614C51.7765 10.2083 52.8258 9.38636 54.1591 8.79545C55.4924 8.20454 57.0076 7.90909 58.7045 7.90909C60.4318 7.90909 61.9394 8.20454 63.2273 8.79545C64.5227 9.38636 65.5303 10.2083 66.25 11.2614C66.9697 12.3144 67.3409 13.5341 67.3636 14.9205H62.6477ZM71.0715 31.5V8.22727H86.4806V12.2841H75.9919V17.8295H85.4578V21.8864H75.9919V31.5H71.0715Z" fill="#CC7700"/>
<defs>
<clipPath id="clip0_498_32079">
<rect width="40" height="40" fill="white"/>
</clipPath>
</defs>
</svg>
