<svg width="32" height="32" viewBox="0 0 32 32" fill="none" xmlns="http://www.w3.org/2000/svg">
<path d="M4.85017 14.8056C6.50035 17.154 10.4065 17.4827 12.1533 17.3534C11.3728 10.9284 7.80488 8.65748 6.41115 7.38355C10.2578 8.65748 12.1533 12.7008 12.6551 14.2517C12.8223 11.1499 13.4913 10.5407 13.8258 9.76523C11.2056 3.61715 1.78397 4.00486 0 4.00486C1.67247 5.83267 2.78746 11.87 4.85017 14.8056Z" fill="#2A9F47"/>
<path d="M14.0488 27H12.1533C12.2834 25.8922 13 23 14.216 19.5136C13.2683 16.4118 13.5453 10.3191 18.007 7.05122C22.4687 3.78332 29.3798 4.00486 32 4.00486C30.9296 4.93538 29.6214 9.11904 29.101 11.0946C28.5064 12.8854 26.7819 16.9103 24.6411 18.6827C21.9652 20.8983 18.453 20.6767 16.7247 20.6767C17.0592 13.8086 21.8537 10.153 23.9164 8.26976C16.4237 11.6817 13.9559 23.1782 14.0488 27Z" fill="#2A9F47"/>
</svg>
